M48
; DRILL file {KiCad 9.0.0} date 2025-05-27T23:14:03+0200
; FORMAT={-:-/ absolute / metric / decimal}
; #@! TF.CreationDate,2025-05-27T23:14:03+02:00
; #@! TF.GenerationSoftware,Kicad,Pcbnew,9.0.0
; #@! TF.FileFunction,Plated,1,2,PTH
FMAT,2
METRIC
; #@! TA.AperFunction,Plated,PTH,ViaDrill
T1C0.500
; #@! TA.AperFunction,Plated,PTH,ComponentDrill
T2C0.500
; #@! TA.AperFunction,Plated,PTH,ComponentDrill
T3C0.800
; #@! TA.AperFunction,Plated,PTH,ComponentDrill
T4C1.650
; #@! TA.AperFunction,Plated,PTH,ComponentDrill
T5C1.850
; #@! TA.AperFunction,Plated,PTH,ComponentDrill
T6C3.000
%
G90
G05
T1
X170.63Y-122.76
X170.65Y-118.75
X170.65Y-120.75
X170.65Y-126.75
X170.65Y-128.775
X170.65Y-130.725
X170.68Y-124.75
X170.7Y-85.75
X170.7Y-87.725
X170.7Y-91.75
X170.7Y-116.75
X170.725Y-81.725
X170.725Y-83.75
X170.725Y-89.75
X170.725Y-93.75
X170.75Y-79.775
T2
X122.75Y-58.25
X123.0Y-138.0
X123.409Y-56.659
X123.409Y-59.841
X123.659Y-136.409
X123.659Y-139.591
X125.0Y-56.0
X125.0Y-60.5
X125.25Y-135.75
X125.25Y-140.25
X126.591Y-56.659
X126.591Y-59.841
X126.841Y-136.409
X126.841Y-139.591
X127.25Y-58.25
X127.5Y-138.0
X172.341Y-105.25
X173.0Y-103.659
X173.0Y-106.841
X174.591Y-103.0
X174.591Y-107.5
X176.182Y-103.659
X176.182Y-106.841
X176.841Y-105.25
T3
X174.86Y-75.19
X174.86Y-98.29
X174.9Y-112.23
X174.9Y-135.33
X176.86Y-75.19
X176.86Y-98.29
X176.9Y-112.23
X176.9Y-135.33
T4
X145.47Y-122.43
X145.47Y-126.68
X145.47Y-130.93
X145.47Y-135.18
X145.505Y-109.66
X145.505Y-113.91
X145.505Y-118.16
X145.53Y-75.66
X145.53Y-79.91
X145.53Y-84.16
X145.53Y-88.41
X145.53Y-92.66
X145.53Y-96.91
X145.53Y-101.16
X145.53Y-105.41
X145.55Y-139.43
X149.13Y-122.43
X149.13Y-126.68
X149.13Y-130.93
X149.13Y-135.18
X149.165Y-109.66
X149.165Y-113.91
X149.165Y-118.16
X149.19Y-75.66
X149.19Y-79.91
X149.19Y-84.16
X149.19Y-88.41
X149.19Y-92.66
X149.19Y-96.91
X149.19Y-101.16
X149.19Y-105.41
X149.21Y-139.43
X153.59Y-122.5
X153.59Y-126.75
X153.59Y-131.0
X153.59Y-135.25
X153.625Y-109.73
X153.625Y-113.98
X153.625Y-118.23
X153.65Y-75.73
X153.65Y-79.98
X153.65Y-84.23
X153.65Y-88.48
X153.65Y-92.73
X153.65Y-96.98
X153.65Y-101.23
X153.65Y-105.48
X153.67Y-139.5
X157.25Y-122.5
X157.25Y-126.75
X157.25Y-131.0
X157.25Y-135.25
X157.285Y-109.73
X157.285Y-113.98
X157.285Y-118.23
X157.31Y-75.73
X157.31Y-79.98
X157.31Y-84.23
X157.31Y-88.48
X157.31Y-92.73
X157.31Y-96.98
X157.31Y-101.23
X157.31Y-105.48
X157.33Y-139.5
T5
X169.5Y-57.88
X169.5Y-63.75
X175.37Y-57.88
X175.37Y-63.75
T6
X125.0Y-58.25
X125.25Y-138.0
X174.591Y-105.25
M30
