%TF.GenerationSoftware,KiCad,Pcbnew,9.0.0*%
%TF.CreationDate,2025-05-27T23:15:15+02:00*%
%TF.ProjectId,PUTM_EV_PDMv2_PLAN_B_2024,5055544d-5f45-4565-9f50-444d76325f50,1.0*%
%TF.SameCoordinates,Original*%
%TF.FileFunction,Copper,L2,Bot*%
%TF.FilePolarity,Positive*%
%FSLAX46Y46*%
G04 Gerber Fmt 4.6, Leading zero omitted, Abs format (unit mm)*
G04 Created by KiCad (PCBNEW 9.0.0) date 2025-05-27 23:15:15*
%MOMM*%
%LPD*%
G01*
G04 APERTURE LIST*
G04 Aperture macros list*
%AMRoundRect*
0 Rectangle with rounded corners*
0 $1 Rounding radius*
0 $2 $3 $4 $5 $6 $7 $8 $9 X,Y pos of 4 corners*
0 Add a 4 corners polygon primitive as box body*
4,1,4,$2,$3,$4,$5,$6,$7,$8,$9,$2,$3,0*
0 Add four circle primitives for the rounded corners*
1,1,$1+$1,$2,$3*
1,1,$1+$1,$4,$5*
1,1,$1+$1,$6,$7*
1,1,$1+$1,$8,$9*
0 Add four rect primitives between the rounded corners*
20,1,$1+$1,$2,$3,$4,$5,0*
20,1,$1+$1,$4,$5,$6,$7,0*
20,1,$1+$1,$6,$7,$8,$9,0*
20,1,$1+$1,$8,$9,$2,$3,0*%
G04 Aperture macros list end*
%TA.AperFunction,ComponentPad*%
%ADD10C,1.650000*%
%TD*%
%TA.AperFunction,SMDPad,CuDef*%
%ADD11RoundRect,0.420000X-2.580000X-0.980000X2.580000X-0.980000X2.580000X0.980000X-2.580000X0.980000X0*%
%TD*%
%TA.AperFunction,ComponentPad*%
%ADD12C,1.308000*%
%TD*%
%TA.AperFunction,ComponentPad*%
%ADD13C,0.800000*%
%TD*%
%TA.AperFunction,ComponentPad*%
%ADD14C,6.000000*%
%TD*%
%TA.AperFunction,ComponentPad*%
%ADD15C,2.775000*%
%TD*%
%TA.AperFunction,ViaPad*%
%ADD16C,0.700000*%
%TD*%
%TA.AperFunction,Conductor*%
%ADD17C,1.500000*%
%TD*%
%TA.AperFunction,Conductor*%
%ADD18C,3.000000*%
%TD*%
%TA.AperFunction,Conductor*%
%ADD19C,0.150000*%
%TD*%
G04 APERTURE END LIST*
D10*
%TO.P,TSAL/HV_1,1*%
%TO.N,+BATT*%
X145550000Y-139430000D03*
D11*
X147380000Y-139430000D03*
D10*
X149210000Y-139430000D03*
%TO.P,TSAL/HV_1,2*%
%TO.N,CAR_FUSE9*%
X153670000Y-139500000D03*
D11*
X155500000Y-139500000D03*
D10*
X157330000Y-139500000D03*
%TD*%
%TO.P,BRAKE/IR/AIR_1,1*%
%TO.N,+BATT*%
X145505000Y-118160000D03*
D11*
X147335000Y-118160000D03*
D10*
X149165000Y-118160000D03*
%TO.P,BRAKE/IR/AIR_1,2*%
%TO.N,CAR_FUSE14*%
X153625000Y-118230000D03*
D11*
X155455000Y-118230000D03*
D10*
X157285000Y-118230000D03*
%TD*%
%TO.P,INVERTER_2,1*%
%TO.N,+BATT*%
X145470000Y-126680000D03*
D11*
X147300000Y-126680000D03*
D10*
X149130000Y-126680000D03*
%TO.P,INVERTER_2,2*%
%TO.N,CAR_FUSE12*%
X153590000Y-126750000D03*
D11*
X155420000Y-126750000D03*
D10*
X157250000Y-126750000D03*
%TD*%
%TO.P,FAN_1,1*%
%TO.N,+BATT*%
X145530000Y-88410000D03*
D11*
X147360000Y-88410000D03*
D10*
X149190000Y-88410000D03*
%TO.P,FAN_1,2*%
%TO.N,CAR_FUSE5*%
X153650000Y-88480000D03*
D11*
X155480000Y-88480000D03*
D10*
X157310000Y-88480000D03*
%TD*%
D12*
%TO.P,J5,S1*%
%TO.N,N/C*%
X174860000Y-98290000D03*
%TO.P,J5,S2*%
X176860000Y-98290000D03*
%TO.P,J5,S3*%
X174860000Y-75190000D03*
%TO.P,J5,S4*%
X176860000Y-75190000D03*
%TD*%
D13*
%TO.P,REF\u002A\u002A,1*%
%TO.N,N/C*%
X172340990Y-105250000D03*
X173000000Y-103659010D03*
X173000000Y-106840990D03*
%TO.N,GND*%
X174590990Y-103000000D03*
D14*
X174590990Y-105250000D03*
D13*
X174590990Y-107500000D03*
X176181980Y-103659010D03*
X176181980Y-106840990D03*
X176840990Y-105250000D03*
%TD*%
D10*
%TO.P,PC_4,1*%
%TO.N,+BATT*%
X145530000Y-92660000D03*
D11*
X147360000Y-92660000D03*
D10*
X149190000Y-92660000D03*
%TO.P,PC_4,2*%
%TO.N,CAR_FUSE4*%
X153650000Y-92730000D03*
D11*
X155480000Y-92730000D03*
D10*
X157310000Y-92730000D03*
%TD*%
%TO.P,PUMP_1,1*%
%TO.N,+BATT*%
X145530000Y-84160000D03*
D11*
X147360000Y-84160000D03*
D10*
X149190000Y-84160000D03*
%TO.P,PUMP_1,2*%
%TO.N,CAR_FUSE6*%
X153650000Y-84230000D03*
D11*
X155480000Y-84230000D03*
D10*
X157310000Y-84230000D03*
%TD*%
%TO.P,INVERTER_1,1*%
%TO.N,+BATT*%
X145470000Y-130930000D03*
D11*
X147300000Y-130930000D03*
D10*
X149130000Y-130930000D03*
%TO.P,INVERTER_1,2*%
%TO.N,CAR_FUSE11*%
X153590000Y-131000000D03*
D11*
X155420000Y-131000000D03*
D10*
X157250000Y-131000000D03*
%TD*%
%TO.P,PUMP_2,1*%
%TO.N,+BATT*%
X145530000Y-79910000D03*
D11*
X147360000Y-79910000D03*
D10*
X149190000Y-79910000D03*
%TO.P,PUMP_2,2*%
%TO.N,CAR_FUSE7*%
X153650000Y-79980000D03*
D11*
X155480000Y-79980000D03*
D10*
X157310000Y-79980000D03*
%TD*%
D12*
%TO.P,J8,S1*%
%TO.N,N/C*%
X174900000Y-135330000D03*
%TO.P,J8,S2*%
X176900000Y-135330000D03*
%TO.P,J8,S3*%
X174900000Y-112230000D03*
%TO.P,J8,S4*%
X176900000Y-112230000D03*
%TD*%
D15*
%TO.P,J2,1,1*%
%TO.N,+BATT*%
X169500000Y-63750000D03*
%TO.P,J2,2,2*%
X175370000Y-63750000D03*
%TO.P,J2,3,3*%
X175370000Y-57880000D03*
%TO.P,J2,4,4*%
X169500000Y-57880000D03*
%TD*%
D10*
%TO.P,REARBOX/DIAGPORT/BRAKE_L_1,1*%
%TO.N,+BATT*%
X145470000Y-135180000D03*
D11*
X147300000Y-135180000D03*
D10*
X149130000Y-135180000D03*
%TO.P,REARBOX/DIAGPORT/BRAKE_L_1,2*%
%TO.N,CAR_FUSE10*%
X153590000Y-135250000D03*
D11*
X155420000Y-135250000D03*
D10*
X157250000Y-135250000D03*
%TD*%
%TO.P,SDC/ASMS_1,1*%
%TO.N,+BATT*%
X145505000Y-113910000D03*
D11*
X147335000Y-113910000D03*
D10*
X149165000Y-113910000D03*
%TO.P,SDC/ASMS_1,2*%
%TO.N,CAR_FUSE15*%
X153625000Y-113980000D03*
D11*
X155455000Y-113980000D03*
D10*
X157285000Y-113980000D03*
%TD*%
D13*
%TO.P,REF\u002A\u002A,1*%
%TO.N,GND*%
X122750000Y-58250000D03*
X123409010Y-56659010D03*
X123409010Y-59840990D03*
X125000000Y-56000000D03*
D14*
X125000000Y-58250000D03*
D13*
X125000000Y-60500000D03*
X126590990Y-56659010D03*
X126590990Y-59840990D03*
X127250000Y-58250000D03*
%TD*%
D10*
%TO.P,PC_3,1*%
%TO.N,+BATT*%
X145530000Y-96910000D03*
D11*
X147360000Y-96910000D03*
D10*
X149190000Y-96910000D03*
%TO.P,PC_3,2*%
%TO.N,CAR_FUSE3*%
X153650000Y-96980000D03*
D11*
X155480000Y-96980000D03*
D10*
X157310000Y-96980000D03*
%TD*%
D13*
%TO.P,REF\u002A\u002A,1*%
%TO.N,GND*%
X123000000Y-138000000D03*
X123659010Y-136409010D03*
X123659010Y-139590990D03*
X125250000Y-135750000D03*
D14*
X125250000Y-138000000D03*
D13*
X125250000Y-140250000D03*
X126840990Y-136409010D03*
X126840990Y-139590990D03*
X127500000Y-138000000D03*
%TD*%
D10*
%TO.P,PC_1,1*%
%TO.N,+BATT*%
X145530000Y-105410000D03*
D11*
X147360000Y-105410000D03*
D10*
X149190000Y-105410000D03*
%TO.P,PC_1,2*%
%TO.N,CAR_FUSE1*%
X153650000Y-105480000D03*
D11*
X155480000Y-105480000D03*
D10*
X157310000Y-105480000D03*
%TD*%
%TO.P,FBOX_1,1*%
%TO.N,+BATT*%
X145470000Y-122430000D03*
D11*
X147300000Y-122430000D03*
D10*
X149130000Y-122430000D03*
%TO.P,FBOX_1,2*%
%TO.N,CAR_FUSE13*%
X153590000Y-122500000D03*
D11*
X155420000Y-122500000D03*
D10*
X157250000Y-122500000D03*
%TD*%
%TO.P,FAN_2,1*%
%TO.N,+BATT*%
X145530000Y-75660000D03*
D11*
X147360000Y-75660000D03*
D10*
X149190000Y-75660000D03*
%TO.P,FAN_2,2*%
%TO.N,CAR_FUSE8*%
X153650000Y-75730000D03*
D11*
X155480000Y-75730000D03*
D10*
X157310000Y-75730000D03*
%TD*%
%TO.P,DASH_1,1*%
%TO.N,+BATT*%
X145505000Y-109660000D03*
D11*
X147335000Y-109660000D03*
D10*
X149165000Y-109660000D03*
%TO.P,DASH_1,2*%
%TO.N,CAR_FUSE16*%
X153625000Y-109730000D03*
D11*
X155455000Y-109730000D03*
D10*
X157285000Y-109730000D03*
%TD*%
%TO.P,PC_2,1*%
%TO.N,+BATT*%
X145530000Y-101160000D03*
D11*
X147360000Y-101160000D03*
D10*
X149190000Y-101160000D03*
%TO.P,PC_2,2*%
%TO.N,CAR_FUSE2*%
X153650000Y-101230000D03*
D11*
X155480000Y-101230000D03*
D10*
X157310000Y-101230000D03*
%TD*%
D16*
%TO.N,CAR_FUSE1*%
X170725000Y-93750000D03*
%TO.N,CAR_FUSE2*%
X170700000Y-91750000D03*
%TO.N,CAR_FUSE3*%
X170725000Y-89750000D03*
%TO.N,CAR_FUSE4*%
X170700000Y-87725000D03*
%TO.N,CAR_FUSE5*%
X170700000Y-85750000D03*
%TO.N,CAR_FUSE6*%
X170725000Y-83750000D03*
%TO.N,CAR_FUSE7*%
X170725000Y-81725000D03*
%TO.N,CAR_FUSE8*%
X170750000Y-79775000D03*
%TO.N,CAR_FUSE9*%
X170650000Y-130725000D03*
%TO.N,CAR_FUSE10*%
X170650000Y-128775000D03*
%TO.N,CAR_FUSE11*%
X170650000Y-126750000D03*
%TO.N,CAR_FUSE12*%
X170680000Y-124750000D03*
%TO.N,CAR_FUSE13*%
X170630000Y-122760000D03*
%TO.N,CAR_FUSE14*%
X170650000Y-120750000D03*
%TO.N,CAR_FUSE15*%
X170650000Y-118750000D03*
%TO.N,CAR_FUSE16*%
X170700000Y-116750000D03*
%TD*%
D17*
%TO.N,CAR_FUSE1*%
X157310000Y-105480000D02*
X163520000Y-105480000D01*
X163520000Y-105480000D02*
X170750000Y-98250000D01*
X170725000Y-98225000D02*
X170725000Y-93750000D01*
X170750000Y-98250000D02*
X170725000Y-98225000D01*
D18*
%TO.N,+BATT*%
X175370000Y-63750000D02*
X174870000Y-64250000D01*
X169500000Y-57880000D02*
X169430000Y-57950000D01*
D19*
X169530000Y-57830000D02*
X169530000Y-63700000D01*
D18*
X174870000Y-64250000D02*
X170000000Y-64250000D01*
D17*
%TO.N,CAR_FUSE2*%
X166000000Y-93000000D02*
X166000000Y-98000000D01*
X167250000Y-91750000D02*
X166000000Y-93000000D01*
X166000000Y-98000000D02*
X162750000Y-101250000D01*
X170700000Y-91750000D02*
X167250000Y-91750000D01*
X162730000Y-101230000D02*
X157310000Y-101230000D01*
X162750000Y-101250000D02*
X162730000Y-101230000D01*
%TO.N,CAR_FUSE3*%
X159020000Y-96980000D02*
X166250000Y-89750000D01*
X166250000Y-89750000D02*
X170725000Y-89750000D01*
X157310000Y-96980000D02*
X159020000Y-96980000D01*
%TO.N,CAR_FUSE4*%
X170675000Y-87750000D02*
X170700000Y-87725000D01*
X165000000Y-87750000D02*
X170675000Y-87750000D01*
X160020000Y-92730000D02*
X165000000Y-87750000D01*
X157310000Y-92730000D02*
X160020000Y-92730000D01*
%TO.N,CAR_FUSE5*%
X164250000Y-85750000D02*
X170700000Y-85750000D01*
X157310000Y-88480000D02*
X161520000Y-88480000D01*
X161520000Y-88480000D02*
X164250000Y-85750000D01*
%TO.N,CAR_FUSE6*%
X157790000Y-83750000D02*
X157310000Y-84230000D01*
X170725000Y-83750000D02*
X157790000Y-83750000D01*
%TO.N,CAR_FUSE7*%
X170700000Y-81750000D02*
X170725000Y-81725000D01*
X162250000Y-81750000D02*
X170700000Y-81750000D01*
X157310000Y-79980000D02*
X160480000Y-79980000D01*
X160480000Y-79980000D02*
X162250000Y-81750000D01*
%TO.N,CAR_FUSE8*%
X160480000Y-75730000D02*
X157310000Y-75730000D01*
X170750000Y-79775000D02*
X164525000Y-79775000D01*
X164525000Y-79775000D02*
X160480000Y-75730000D01*
%TO.N,CAR_FUSE9*%
X170650000Y-133350000D02*
X164500000Y-139500000D01*
X170650000Y-130725000D02*
X170650000Y-133350000D01*
X164500000Y-139500000D02*
X157330000Y-139500000D01*
%TO.N,CAR_FUSE10*%
X170650000Y-128775000D02*
X167975000Y-128775000D01*
X167975000Y-128775000D02*
X161500000Y-135250000D01*
X161500000Y-135250000D02*
X157250000Y-135250000D01*
%TO.N,CAR_FUSE11*%
X166500000Y-126750000D02*
X162250000Y-131000000D01*
X170650000Y-126750000D02*
X166500000Y-126750000D01*
X162250000Y-131000000D02*
X157250000Y-131000000D01*
%TO.N,CAR_FUSE12*%
X163500000Y-126750000D02*
X165500000Y-124750000D01*
X157250000Y-126750000D02*
X163500000Y-126750000D01*
X165500000Y-124750000D02*
X170680000Y-124750000D01*
%TO.N,CAR_FUSE13*%
X170630000Y-122760000D02*
X161760000Y-122760000D01*
X161760000Y-122760000D02*
X161500000Y-122500000D01*
X161500000Y-122500000D02*
X157250000Y-122500000D01*
%TO.N,CAR_FUSE14*%
X163250000Y-120750000D02*
X160730000Y-118230000D01*
X160730000Y-118230000D02*
X157285000Y-118230000D01*
X170650000Y-120750000D02*
X163250000Y-120750000D01*
%TO.N,CAR_FUSE15*%
X160730000Y-113980000D02*
X157285000Y-113980000D01*
X170650000Y-118750000D02*
X165500000Y-118750000D01*
X165500000Y-118750000D02*
X160730000Y-113980000D01*
%TO.N,CAR_FUSE16*%
X167250000Y-116750000D02*
X160230000Y-109730000D01*
X160230000Y-109730000D02*
X157285000Y-109730000D01*
X170700000Y-116750000D02*
X167250000Y-116750000D01*
%TD*%
%TA.AperFunction,Conductor*%
%TO.N,+BATT*%
G36*
X177685190Y-55271892D02*
G01*
X177732707Y-55323116D01*
X177745656Y-55382482D01*
X177250000Y-70499987D01*
X177250000Y-70720500D01*
X177230315Y-70787539D01*
X177177511Y-70833294D01*
X177126000Y-70844500D01*
X172749995Y-70844500D01*
X172704271Y-70849651D01*
X172621873Y-70889333D01*
X172564849Y-70960838D01*
X172558789Y-70973424D01*
X172556128Y-70972142D01*
X172532389Y-71014577D01*
X172470725Y-71047431D01*
X172445613Y-71050000D01*
X169499997Y-71050000D01*
X168723851Y-71486583D01*
X168672717Y-71502131D01*
X165500006Y-71749999D01*
X158506276Y-72998879D01*
X158493638Y-73000471D01*
X151749999Y-73499999D01*
X151749999Y-73500000D01*
X151520923Y-141475918D01*
X151501013Y-141542891D01*
X151448055Y-141588467D01*
X151396924Y-141599500D01*
X130373188Y-141599500D01*
X130306149Y-141579815D01*
X130260394Y-141527011D01*
X130249189Y-141475867D01*
X130240076Y-138395848D01*
X144130000Y-138395848D01*
X144130000Y-140464162D01*
X144136132Y-140531651D01*
X144136134Y-140531658D01*
X144184537Y-140686989D01*
X144184540Y-140686998D01*
X144268710Y-140826233D01*
X144268713Y-140826237D01*
X144383762Y-140941286D01*
X144383766Y-140941289D01*
X144523001Y-141025459D01*
X144523007Y-141025461D01*
X144678337Y-141073864D01*
X144678344Y-141073865D01*
X144745848Y-141079999D01*
X145469998Y-141079999D01*
X145469998Y-141079998D01*
X146083551Y-141079998D01*
X146083552Y-141079999D01*
X148676447Y-141079999D01*
X148676447Y-141079998D01*
X147380000Y-139783552D01*
X146083551Y-141079998D01*
X145469998Y-141079998D01*
X145478009Y-141060660D01*
X145477420Y-141059581D01*
X145482404Y-140989889D01*
X145510905Y-140945542D01*
X147026447Y-139429999D01*
X147733552Y-139429999D01*
X147733552Y-139430000D01*
X149249093Y-140945541D01*
X149282578Y-141006864D01*
X149279210Y-141053951D01*
X149290000Y-141079999D01*
X150014161Y-141079999D01*
X150081651Y-141073867D01*
X150081658Y-141073865D01*
X150236989Y-141025462D01*
X150236998Y-141025459D01*
X150376233Y-140941289D01*
X150376237Y-140941286D01*
X150491286Y-140826237D01*
X150491289Y-140826233D01*
X150575459Y-140686998D01*
X150575461Y-140686992D01*
X150623864Y-140531662D01*
X150623865Y-140531655D01*
X150629999Y-140464151D01*
X150629999Y-138395837D01*
X150623867Y-138328348D01*
X150623865Y-138328341D01*
X150575462Y-138173010D01*
X150575459Y-138173001D01*
X150491289Y-138033766D01*
X150491286Y-138033762D01*
X150376237Y-137918713D01*
X150376233Y-137918710D01*
X150236998Y-137834540D01*
X150236992Y-137834538D01*
X150081662Y-137786135D01*
X150081655Y-137786134D01*
X150014151Y-137780000D01*
X149290000Y-137780000D01*
X149281989Y-137799338D01*
X149282579Y-137800418D01*
X149277595Y-137870110D01*
X149249094Y-137914457D01*
X147733552Y-139429999D01*
X147026447Y-139429999D01*
X145510904Y-137914456D01*
X145506565Y-137906510D01*
X145499318Y-137901085D01*
X145490083Y-137876325D01*
X145477419Y-137853133D01*
X145478064Y-137844103D01*
X145474901Y-137835621D01*
X145480517Y-137809800D01*
X145480786Y-137806042D01*
X145469999Y-137780000D01*
X146083551Y-137780000D01*
X147380000Y-139076448D01*
X147380001Y-139076448D01*
X148676447Y-137780000D01*
X146083551Y-137780000D01*
X145469999Y-137780000D01*
X144745837Y-137780000D01*
X144678348Y-137786132D01*
X144678341Y-137786134D01*
X144523010Y-137834537D01*
X144523001Y-137834540D01*
X144383766Y-137918710D01*
X144383762Y-137918713D01*
X144268713Y-138033762D01*
X144268710Y-138033766D01*
X144184540Y-138173001D01*
X144184538Y-138173007D01*
X144136135Y-138328337D01*
X144136134Y-138328344D01*
X144130000Y-138395848D01*
X130240076Y-138395848D01*
X130240069Y-138393402D01*
X130239877Y-138328341D01*
X130227503Y-134145848D01*
X144050000Y-134145848D01*
X144050000Y-136214162D01*
X144056132Y-136281651D01*
X144056134Y-136281658D01*
X144104537Y-136436989D01*
X144104540Y-136436998D01*
X144188710Y-136576233D01*
X144188713Y-136576237D01*
X144303762Y-136691286D01*
X144303766Y-136691289D01*
X144443001Y-136775459D01*
X144443007Y-136775461D01*
X144598337Y-136823864D01*
X144598344Y-136823865D01*
X144665848Y-136829999D01*
X145389998Y-136829999D01*
X145389998Y-136829998D01*
X146003551Y-136829998D01*
X146003552Y-136829999D01*
X148596447Y-136829999D01*
X148596447Y-136829998D01*
X147300000Y-135533552D01*
X146003551Y-136829998D01*
X145389998Y-136829998D01*
X145398009Y-136810660D01*
X145397420Y-136809581D01*
X145402404Y-136739889D01*
X145430905Y-136695542D01*
X146946447Y-135179999D01*
X147653552Y-135179999D01*
X147653552Y-135180000D01*
X149169093Y-136695541D01*
X149202578Y-136756864D01*
X149199210Y-136803951D01*
X149210000Y-136829999D01*
X149934161Y-136829999D01*
X150001651Y-136823867D01*
X150001658Y-136823865D01*
X150156989Y-136775462D01*
X150156998Y-136775459D01*
X150296233Y-136691289D01*
X150296237Y-136691286D01*
X150411286Y-136576237D01*
X150411289Y-136576233D01*
X150495459Y-136436998D01*
X150495461Y-136436992D01*
X150543864Y-136281662D01*
X150543865Y-136281655D01*
X150549999Y-136214151D01*
X150549999Y-134145837D01*
X150543867Y-134078348D01*
X150543865Y-134078341D01*
X150495462Y-133923010D01*
X150495459Y-133923001D01*
X150411289Y-133783766D01*
X150411286Y-133783762D01*
X150296237Y-133668713D01*
X150296233Y-133668710D01*
X150156998Y-133584540D01*
X150156992Y-133584538D01*
X150001662Y-133536135D01*
X150001655Y-133536134D01*
X149934151Y-133530000D01*
X149210000Y-133530000D01*
X149201989Y-133549338D01*
X149202579Y-133550418D01*
X149197595Y-133620110D01*
X149169094Y-133664457D01*
X147653552Y-135179999D01*
X146946447Y-135179999D01*
X145430904Y-133664456D01*
X145426565Y-133656510D01*
X145419318Y-133651085D01*
X145410083Y-133626325D01*
X145397419Y-133603133D01*
X145398064Y-133594103D01*
X145394901Y-133585621D01*
X145400517Y-133559800D01*
X145400786Y-133556042D01*
X145389999Y-133530000D01*
X146003551Y-133530000D01*
X147300000Y-134826448D01*
X147300001Y-134826448D01*
X148596447Y-133530000D01*
X146003551Y-133530000D01*
X145389999Y-133530000D01*
X144665837Y-133530000D01*
X144598348Y-133536132D01*
X144598341Y-133536134D01*
X144443010Y-133584537D01*
X144443001Y-133584540D01*
X144303766Y-133668710D01*
X144303762Y-133668713D01*
X144188713Y-133783762D01*
X144188710Y-133783766D01*
X144104540Y-133923001D01*
X144104538Y-133923007D01*
X144056135Y-134078337D01*
X144056134Y-134078344D01*
X144050000Y-134145848D01*
X130227503Y-134145848D01*
X130214929Y-129895848D01*
X144050000Y-129895848D01*
X144050000Y-131964162D01*
X144056132Y-132031651D01*
X144056134Y-132031658D01*
X144104537Y-132186989D01*
X144104540Y-132186998D01*
X144188710Y-132326233D01*
X144188713Y-132326237D01*
X144303762Y-132441286D01*
X144303766Y-132441289D01*
X144443001Y-132525459D01*
X144443007Y-132525461D01*
X144598337Y-132573864D01*
X144598344Y-132573865D01*
X144665848Y-132579999D01*
X145389998Y-132579999D01*
X145389998Y-132579998D01*
X146003551Y-132579998D01*
X146003552Y-132579999D01*
X148596447Y-132579999D01*
X148596447Y-132579998D01*
X147300000Y-131283552D01*
X146003551Y-132579998D01*
X145389998Y-132579998D01*
X145398009Y-132560660D01*
X145397420Y-132559581D01*
X145402404Y-132489889D01*
X145430905Y-132445542D01*
X146946447Y-130929999D01*
X147653552Y-130929999D01*
X147653552Y-130930000D01*
X149169093Y-132445541D01*
X149202578Y-132506864D01*
X149199210Y-132553951D01*
X149210000Y-132579999D01*
X149934161Y-132579999D01*
X150001651Y-132573867D01*
X150001658Y-132573865D01*
X150156989Y-132525462D01*
X150156998Y-132525459D01*
X150296233Y-132441289D01*
X150296237Y-132441286D01*
X150411286Y-132326237D01*
X150411289Y-132326233D01*
X150495459Y-132186998D01*
X150495461Y-132186992D01*
X150543864Y-132031662D01*
X150543865Y-132031655D01*
X150549999Y-131964151D01*
X150549999Y-129895837D01*
X150543867Y-129828348D01*
X150543865Y-129828341D01*
X150495462Y-129673010D01*
X150495459Y-129673001D01*
X150411289Y-129533766D01*
X150411286Y-129533762D01*
X150296237Y-129418713D01*
X150296233Y-129418710D01*
X150156998Y-129334540D01*
X150156992Y-129334538D01*
X150001662Y-129286135D01*
X150001655Y-129286134D01*
X149934151Y-129280000D01*
X149210000Y-129280000D01*
X149201989Y-129299338D01*
X149202579Y-129300418D01*
X149197595Y-129370110D01*
X149169094Y-129414457D01*
X147653552Y-130929999D01*
X146946447Y-130929999D01*
X145430904Y-129414456D01*
X145426565Y-129406510D01*
X145419318Y-129401085D01*
X145410083Y-129376325D01*
X145397419Y-129353133D01*
X145398064Y-129344103D01*
X145394901Y-129335621D01*
X145400517Y-129309800D01*
X145400786Y-129306042D01*
X145389999Y-129280000D01*
X146003551Y-129280000D01*
X147300000Y-130576448D01*
X147300001Y-130576448D01*
X148596447Y-129280000D01*
X146003551Y-129280000D01*
X145389999Y-129280000D01*
X144665837Y-129280000D01*
X144598348Y-129286132D01*
X144598341Y-129286134D01*
X144443010Y-129334537D01*
X144443001Y-129334540D01*
X144303766Y-129418710D01*
X144303762Y-129418713D01*
X144188713Y-129533762D01*
X144188710Y-129533766D01*
X144104540Y-129673001D01*
X144104538Y-129673007D01*
X144056135Y-129828337D01*
X144056134Y-129828344D01*
X144050000Y-129895848D01*
X130214929Y-129895848D01*
X130202355Y-125645848D01*
X144050000Y-125645848D01*
X144050000Y-127714162D01*
X144056132Y-127781651D01*
X144056134Y-127781658D01*
X144104537Y-127936989D01*
X144104540Y-127936998D01*
X144188710Y-128076233D01*
X144188713Y-128076237D01*
X144303762Y-128191286D01*
X144303766Y-128191289D01*
X144443001Y-128275459D01*
X144443007Y-128275461D01*
X144598337Y-128323864D01*
X144598344Y-128323865D01*
X144665848Y-128329999D01*
X145389998Y-128329999D01*
X145389998Y-128329998D01*
X146003551Y-128329998D01*
X146003552Y-128329999D01*
X148596447Y-128329999D01*
X148596447Y-128329998D01*
X147300000Y-127033552D01*
X146003551Y-128329998D01*
X145389998Y-128329998D01*
X145398009Y-128310660D01*
X145397420Y-128309581D01*
X145402404Y-128239889D01*
X145430905Y-128195542D01*
X146946447Y-126679999D01*
X147653552Y-126679999D01*
X147653552Y-126680000D01*
X149169093Y-128195541D01*
X149202578Y-128256864D01*
X149199210Y-128303951D01*
X149210000Y-128329999D01*
X149934161Y-128329999D01*
X150001651Y-128323867D01*
X150001658Y-128323865D01*
X150156989Y-128275462D01*
X150156998Y-128275459D01*
X150296233Y-128191289D01*
X150296237Y-128191286D01*
X150411286Y-128076237D01*
X150411289Y-128076233D01*
X150495459Y-127936998D01*
X150495461Y-127936992D01*
X150543864Y-127781662D01*
X150543865Y-127781655D01*
X150549999Y-127714151D01*
X150549999Y-125645837D01*
X150543867Y-125578348D01*
X150543865Y-125578341D01*
X150495462Y-125423010D01*
X150495459Y-125423001D01*
X150411289Y-125283766D01*
X150411286Y-125283762D01*
X150296237Y-125168713D01*
X150296233Y-125168710D01*
X150156998Y-125084540D01*
X150156992Y-125084538D01*
X150001662Y-125036135D01*
X150001655Y-125036134D01*
X149934151Y-125030000D01*
X149210000Y-125030000D01*
X149201989Y-125049338D01*
X149202579Y-125050418D01*
X149197595Y-125120110D01*
X149169094Y-125164457D01*
X147653552Y-126679999D01*
X146946447Y-126679999D01*
X145430904Y-125164456D01*
X145426565Y-125156510D01*
X145419318Y-125151085D01*
X145410083Y-125126325D01*
X145397419Y-125103133D01*
X145398064Y-125094103D01*
X145394901Y-125085621D01*
X145400517Y-125059800D01*
X145400786Y-125056042D01*
X145389999Y-125030000D01*
X146003551Y-125030000D01*
X147300000Y-126326448D01*
X147300001Y-126326448D01*
X148596447Y-125030000D01*
X146003551Y-125030000D01*
X145389999Y-125030000D01*
X144665837Y-125030000D01*
X144598348Y-125036132D01*
X144598341Y-125036134D01*
X144443010Y-125084537D01*
X144443001Y-125084540D01*
X144303766Y-125168710D01*
X144303762Y-125168713D01*
X144188713Y-125283762D01*
X144188710Y-125283766D01*
X144104540Y-125423001D01*
X144104538Y-125423007D01*
X144056135Y-125578337D01*
X144056134Y-125578344D01*
X144050000Y-125645848D01*
X130202355Y-125645848D01*
X130189781Y-121395848D01*
X144050000Y-121395848D01*
X144050000Y-123464162D01*
X144056132Y-123531651D01*
X144056134Y-123531658D01*
X144104537Y-123686989D01*
X144104540Y-123686998D01*
X144188710Y-123826233D01*
X144188713Y-123826237D01*
X144303762Y-123941286D01*
X144303766Y-123941289D01*
X144443001Y-124025459D01*
X144443007Y-124025461D01*
X144598337Y-124073864D01*
X144598344Y-124073865D01*
X144665848Y-124079999D01*
X145389998Y-124079999D01*
X145389998Y-124079998D01*
X146003551Y-124079998D01*
X146003552Y-124079999D01*
X148596447Y-124079999D01*
X148596447Y-124079998D01*
X147300000Y-122783552D01*
X146003551Y-124079998D01*
X145389998Y-124079998D01*
X145398009Y-124060660D01*
X145397420Y-124059581D01*
X145402404Y-123989889D01*
X145430905Y-123945542D01*
X146946447Y-122429999D01*
X147653552Y-122429999D01*
X147653552Y-122430000D01*
X149169093Y-123945541D01*
X149202578Y-124006864D01*
X149199210Y-124053951D01*
X149210000Y-124079999D01*
X149934161Y-124079999D01*
X150001651Y-124073867D01*
X150001658Y-124073865D01*
X150156989Y-124025462D01*
X150156998Y-124025459D01*
X150296233Y-123941289D01*
X150296237Y-123941286D01*
X150411286Y-123826237D01*
X150411289Y-123826233D01*
X150495459Y-123686998D01*
X150495461Y-123686992D01*
X150543864Y-123531662D01*
X150543865Y-123531655D01*
X150549999Y-123464151D01*
X150549999Y-121395837D01*
X150543867Y-121328348D01*
X150543865Y-121328341D01*
X150495462Y-121173010D01*
X150495459Y-121173001D01*
X150411289Y-121033766D01*
X150411286Y-121033762D01*
X150296237Y-120918713D01*
X150296233Y-120918710D01*
X150156998Y-120834540D01*
X150156992Y-120834538D01*
X150001662Y-120786135D01*
X150001655Y-120786134D01*
X149934151Y-120780000D01*
X149210000Y-120780000D01*
X149201989Y-120799338D01*
X149202579Y-120800418D01*
X149197595Y-120870110D01*
X149169094Y-120914457D01*
X147653552Y-122429999D01*
X146946447Y-122429999D01*
X145430904Y-120914456D01*
X145426565Y-120906510D01*
X145419318Y-120901085D01*
X145410083Y-120876325D01*
X145397419Y-120853133D01*
X145398064Y-120844103D01*
X145394901Y-120835621D01*
X145400517Y-120809800D01*
X145400786Y-120806042D01*
X145389999Y-120780000D01*
X146003551Y-120780000D01*
X147300000Y-122076448D01*
X147300001Y-122076448D01*
X148596447Y-120780000D01*
X146003551Y-120780000D01*
X145389999Y-120780000D01*
X144665837Y-120780000D01*
X144598348Y-120786132D01*
X144598341Y-120786134D01*
X144443010Y-120834537D01*
X144443001Y-120834540D01*
X144303766Y-120918710D01*
X144303762Y-120918713D01*
X144188713Y-121033762D01*
X144188710Y-121033766D01*
X144104540Y-121173001D01*
X144104538Y-121173007D01*
X144056135Y-121328337D01*
X144056134Y-121328344D01*
X144050000Y-121395848D01*
X130189781Y-121395848D01*
X130177148Y-117125848D01*
X144085000Y-117125848D01*
X144085000Y-119194162D01*
X144091132Y-119261651D01*
X144091134Y-119261658D01*
X144139537Y-119416989D01*
X144139540Y-119416998D01*
X144223710Y-119556233D01*
X144223713Y-119556237D01*
X144338762Y-119671286D01*
X144338766Y-119671289D01*
X144478001Y-119755459D01*
X144478007Y-119755461D01*
X144633337Y-119803864D01*
X144633344Y-119803865D01*
X144700848Y-119809999D01*
X145424998Y-119809999D01*
X145424998Y-119809998D01*
X146038551Y-119809998D01*
X146038552Y-119809999D01*
X148631447Y-119809999D01*
X148631447Y-119809998D01*
X147335000Y-118513552D01*
X146038551Y-119809998D01*
X145424998Y-119809998D01*
X145433009Y-119790660D01*
X145432420Y-119789581D01*
X145437404Y-119719889D01*
X145465905Y-119675542D01*
X146981447Y-118159999D01*
X147688552Y-118159999D01*
X147688552Y-118160000D01*
X149204093Y-119675541D01*
X149237578Y-119736864D01*
X149234210Y-119783951D01*
X149245000Y-119809999D01*
X149969161Y-119809999D01*
X150036651Y-119803867D01*
X150036658Y-119803865D01*
X150191989Y-119755462D01*
X150191998Y-119755459D01*
X150331233Y-119671289D01*
X150331237Y-119671286D01*
X150446286Y-119556237D01*
X150446289Y-119556233D01*
X150530459Y-119416998D01*
X150530461Y-119416992D01*
X150578864Y-119261662D01*
X150578865Y-119261655D01*
X150584999Y-119194151D01*
X150584999Y-117125837D01*
X150578867Y-117058348D01*
X150578865Y-117058341D01*
X150530462Y-116903010D01*
X150530459Y-116903001D01*
X150446289Y-116763766D01*
X150446286Y-116763762D01*
X150331237Y-116648713D01*
X150331233Y-116648710D01*
X150191998Y-116564540D01*
X150191992Y-116564538D01*
X150036662Y-116516135D01*
X150036655Y-116516134D01*
X149969151Y-116510000D01*
X149245000Y-116510000D01*
X149236989Y-116529338D01*
X149237579Y-116530418D01*
X149232595Y-116600110D01*
X149204094Y-116644457D01*
X147688552Y-118159999D01*
X146981447Y-118159999D01*
X145465904Y-116644456D01*
X145461565Y-116636510D01*
X145454318Y-116631085D01*
X145445083Y-116606325D01*
X145432419Y-116583133D01*
X145433064Y-116574103D01*
X145429901Y-116565621D01*
X145435517Y-116539800D01*
X145435786Y-116536042D01*
X145424999Y-116510000D01*
X146038551Y-116510000D01*
X147335000Y-117806448D01*
X147335001Y-117806448D01*
X148631447Y-116510000D01*
X146038551Y-116510000D01*
X145424999Y-116510000D01*
X144700837Y-116510000D01*
X144633348Y-116516132D01*
X144633341Y-116516134D01*
X144478010Y-116564537D01*
X144478001Y-116564540D01*
X144338766Y-116648710D01*
X144338762Y-116648713D01*
X144223713Y-116763762D01*
X144223710Y-116763766D01*
X144139540Y-116903001D01*
X144139538Y-116903007D01*
X144091135Y-117058337D01*
X144091134Y-117058344D01*
X144085000Y-117125848D01*
X130177148Y-117125848D01*
X130164574Y-112875848D01*
X144085000Y-112875848D01*
X144085000Y-114944162D01*
X144091132Y-115011651D01*
X144091134Y-115011658D01*
X144139537Y-115166989D01*
X144139540Y-115166998D01*
X144223710Y-115306233D01*
X144223713Y-115306237D01*
X144338762Y-115421286D01*
X144338766Y-115421289D01*
X144478001Y-115505459D01*
X144478007Y-115505461D01*
X144633337Y-115553864D01*
X144633344Y-115553865D01*
X144700848Y-115559999D01*
X145424998Y-115559999D01*
X145424998Y-115559998D01*
X146038551Y-115559998D01*
X146038552Y-115559999D01*
X148631447Y-115559999D01*
X148631447Y-115559998D01*
X147335000Y-114263552D01*
X146038551Y-115559998D01*
X145424998Y-115559998D01*
X145433009Y-115540660D01*
X145432420Y-115539581D01*
X145437404Y-115469889D01*
X145465905Y-115425542D01*
X146981447Y-113909999D01*
X147688552Y-113909999D01*
X147688552Y-113910000D01*
X149204093Y-115425541D01*
X149237578Y-115486864D01*
X149234210Y-115533951D01*
X149245000Y-115559999D01*
X149969161Y-115559999D01*
X150036651Y-115553867D01*
X150036658Y-115553865D01*
X150191989Y-115505462D01*
X150191998Y-115505459D01*
X150331233Y-115421289D01*
X150331237Y-115421286D01*
X150446286Y-115306237D01*
X150446289Y-115306233D01*
X150530459Y-115166998D01*
X150530461Y-115166992D01*
X150578864Y-115011662D01*
X150578865Y-115011655D01*
X150584999Y-114944151D01*
X150584999Y-112875837D01*
X150578867Y-112808348D01*
X150578865Y-112808341D01*
X150530462Y-112653010D01*
X150530459Y-112653001D01*
X150446289Y-112513766D01*
X150446286Y-112513762D01*
X150331237Y-112398713D01*
X150331233Y-112398710D01*
X150191998Y-112314540D01*
X150191992Y-112314538D01*
X150036662Y-112266135D01*
X150036655Y-112266134D01*
X149969151Y-112260000D01*
X149245000Y-112260000D01*
X149236989Y-112279338D01*
X149237579Y-112280418D01*
X149232595Y-112350110D01*
X149204094Y-112394457D01*
X147688552Y-113909999D01*
X146981447Y-113909999D01*
X145465904Y-112394456D01*
X145461565Y-112386510D01*
X145454318Y-112381085D01*
X145445083Y-112356325D01*
X145432419Y-112333133D01*
X145433064Y-112324103D01*
X145429901Y-112315621D01*
X145435517Y-112289800D01*
X145435786Y-112286042D01*
X145424999Y-112260000D01*
X146038551Y-112260000D01*
X147335000Y-113556448D01*
X147335001Y-113556448D01*
X148631447Y-112260000D01*
X146038551Y-112260000D01*
X145424999Y-112260000D01*
X144700837Y-112260000D01*
X144633348Y-112266132D01*
X144633341Y-112266134D01*
X144478010Y-112314537D01*
X144478001Y-112314540D01*
X144338766Y-112398710D01*
X144338762Y-112398713D01*
X144223713Y-112513762D01*
X144223710Y-112513766D01*
X144139540Y-112653001D01*
X144139538Y-112653007D01*
X144091135Y-112808337D01*
X144091134Y-112808344D01*
X144085000Y-112875848D01*
X130164574Y-112875848D01*
X130152000Y-108625848D01*
X144085000Y-108625848D01*
X144085000Y-110694162D01*
X144091132Y-110761651D01*
X144091134Y-110761658D01*
X144139537Y-110916989D01*
X144139540Y-110916998D01*
X144223710Y-111056233D01*
X144223713Y-111056237D01*
X144338762Y-111171286D01*
X144338766Y-111171289D01*
X144478001Y-111255459D01*
X144478007Y-111255461D01*
X144633337Y-111303864D01*
X144633344Y-111303865D01*
X144700848Y-111309999D01*
X145424998Y-111309999D01*
X145424998Y-111309998D01*
X146038551Y-111309998D01*
X146038552Y-111309999D01*
X148631447Y-111309999D01*
X148631447Y-111309998D01*
X147335000Y-110013552D01*
X146038551Y-111309998D01*
X145424998Y-111309998D01*
X145433009Y-111290660D01*
X145432420Y-111289581D01*
X145437404Y-111219889D01*
X145465905Y-111175542D01*
X146981447Y-109659999D01*
X147688552Y-109659999D01*
X147688552Y-109660000D01*
X149204093Y-111175541D01*
X149237578Y-111236864D01*
X149234210Y-111283951D01*
X149245000Y-111309999D01*
X149969161Y-111309999D01*
X150036651Y-111303867D01*
X150036658Y-111303865D01*
X150191989Y-111255462D01*
X150191998Y-111255459D01*
X150331233Y-111171289D01*
X150331237Y-111171286D01*
X150446286Y-111056237D01*
X150446289Y-111056233D01*
X150530459Y-110916998D01*
X150530461Y-110916992D01*
X150578864Y-110761662D01*
X150578865Y-110761655D01*
X150584999Y-110694151D01*
X150584999Y-108625837D01*
X150578867Y-108558348D01*
X150578865Y-108558341D01*
X150530462Y-108403010D01*
X150530459Y-108403001D01*
X150446289Y-108263766D01*
X150446286Y-108263762D01*
X150331237Y-108148713D01*
X150331233Y-108148710D01*
X150191998Y-108064540D01*
X150191992Y-108064538D01*
X150036662Y-108016135D01*
X150036655Y-108016134D01*
X149969151Y-108010000D01*
X149245000Y-108010000D01*
X149236989Y-108029338D01*
X149237579Y-108030418D01*
X149232595Y-108100110D01*
X149204094Y-108144457D01*
X147688552Y-109659999D01*
X146981447Y-109659999D01*
X145465904Y-108144456D01*
X145461565Y-108136510D01*
X145454318Y-108131085D01*
X145445083Y-108106325D01*
X145432419Y-108083133D01*
X145433064Y-108074103D01*
X145429901Y-108065621D01*
X145435517Y-108039800D01*
X145435786Y-108036042D01*
X145424999Y-108010000D01*
X146038551Y-108010000D01*
X147335000Y-109306448D01*
X147335001Y-109306448D01*
X148631447Y-108010000D01*
X146038551Y-108010000D01*
X145424999Y-108010000D01*
X144700837Y-108010000D01*
X144633348Y-108016132D01*
X144633341Y-108016134D01*
X144478010Y-108064537D01*
X144478001Y-108064540D01*
X144338766Y-108148710D01*
X144338762Y-108148713D01*
X144223713Y-108263762D01*
X144223710Y-108263766D01*
X144139540Y-108403001D01*
X144139538Y-108403007D01*
X144091135Y-108558337D01*
X144091134Y-108558344D01*
X144085000Y-108625848D01*
X130152000Y-108625848D01*
X130139426Y-104375848D01*
X144110000Y-104375848D01*
X144110000Y-106444162D01*
X144116132Y-106511651D01*
X144116134Y-106511658D01*
X144164537Y-106666989D01*
X144164540Y-106666998D01*
X144248710Y-106806233D01*
X144248713Y-106806237D01*
X144363762Y-106921286D01*
X144363766Y-106921289D01*
X144503001Y-107005459D01*
X144503007Y-107005461D01*
X144658337Y-107053864D01*
X144658344Y-107053865D01*
X144725848Y-107059999D01*
X145449998Y-107059999D01*
X145449998Y-107059998D01*
X146063551Y-107059998D01*
X146063552Y-107059999D01*
X148656447Y-107059999D01*
X148656447Y-107059998D01*
X147360000Y-105763552D01*
X146063551Y-107059998D01*
X145449998Y-107059998D01*
X145458009Y-107040660D01*
X145457420Y-107039581D01*
X145462404Y-106969889D01*
X145490905Y-106925542D01*
X147006447Y-105409999D01*
X147713552Y-105409999D01*
X147713552Y-105410000D01*
X149229093Y-106925541D01*
X149262578Y-106986864D01*
X149259210Y-107033951D01*
X149270000Y-107059999D01*
X149994161Y-107059999D01*
X150061651Y-107053867D01*
X150061658Y-107053865D01*
X150216989Y-107005462D01*
X150216998Y-107005459D01*
X150356233Y-106921289D01*
X150356237Y-106921286D01*
X150471286Y-106806237D01*
X150471289Y-106806233D01*
X150555459Y-106666998D01*
X150555461Y-106666992D01*
X150603864Y-106511662D01*
X150603865Y-106511655D01*
X150609999Y-106444151D01*
X150609999Y-104375837D01*
X150603867Y-104308348D01*
X150603865Y-104308341D01*
X150555462Y-104153010D01*
X150555459Y-104153001D01*
X150471289Y-104013766D01*
X150471286Y-104013762D01*
X150356237Y-103898713D01*
X150356233Y-103898710D01*
X150216998Y-103814540D01*
X150216992Y-103814538D01*
X150061662Y-103766135D01*
X150061655Y-103766134D01*
X149994151Y-103760000D01*
X149270000Y-103760000D01*
X149261989Y-103779338D01*
X149262579Y-103780418D01*
X149257595Y-103850110D01*
X149229094Y-103894457D01*
X147713552Y-105409999D01*
X147006447Y-105409999D01*
X145490904Y-103894456D01*
X145486565Y-103886510D01*
X145479318Y-103881085D01*
X145470083Y-103856325D01*
X145457419Y-103833133D01*
X145458064Y-103824103D01*
X145454901Y-103815621D01*
X145460517Y-103789800D01*
X145460786Y-103786042D01*
X145449999Y-103760000D01*
X146063551Y-103760000D01*
X147360000Y-105056448D01*
X147360001Y-105056448D01*
X148656447Y-103760000D01*
X146063551Y-103760000D01*
X145449999Y-103760000D01*
X144725837Y-103760000D01*
X144658348Y-103766132D01*
X144658341Y-103766134D01*
X144503010Y-103814537D01*
X144503001Y-103814540D01*
X144363766Y-103898710D01*
X144363762Y-103898713D01*
X144248713Y-104013762D01*
X144248710Y-104013766D01*
X144164540Y-104153001D01*
X144164538Y-104153007D01*
X144116135Y-104308337D01*
X144116134Y-104308344D01*
X144110000Y-104375848D01*
X130139426Y-104375848D01*
X130126852Y-100125848D01*
X144110000Y-100125848D01*
X144110000Y-102194162D01*
X144116132Y-102261651D01*
X144116134Y-102261658D01*
X144164537Y-102416989D01*
X144164540Y-102416998D01*
X144248710Y-102556233D01*
X144248713Y-102556237D01*
X144363762Y-102671286D01*
X144363766Y-102671289D01*
X144503001Y-102755459D01*
X144503007Y-102755461D01*
X144658337Y-102803864D01*
X144658344Y-102803865D01*
X144725848Y-102809999D01*
X145449998Y-102809999D01*
X145449998Y-102809998D01*
X146063551Y-102809998D01*
X146063552Y-102809999D01*
X148656447Y-102809999D01*
X148656447Y-102809998D01*
X147360000Y-101513552D01*
X146063551Y-102809998D01*
X145449998Y-102809998D01*
X145458009Y-102790660D01*
X145457420Y-102789581D01*
X145462404Y-102719889D01*
X145490905Y-102675542D01*
X147006447Y-101159999D01*
X147713552Y-101159999D01*
X147713552Y-101160000D01*
X149229093Y-102675541D01*
X149262578Y-102736864D01*
X149259210Y-102783951D01*
X149270000Y-102809999D01*
X149994161Y-102809999D01*
X150061651Y-102803867D01*
X150061658Y-102803865D01*
X150216989Y-102755462D01*
X150216998Y-102755459D01*
X150356233Y-102671289D01*
X150356237Y-102671286D01*
X150471286Y-102556237D01*
X150471289Y-102556233D01*
X150555459Y-102416998D01*
X150555461Y-102416992D01*
X150603864Y-102261662D01*
X150603865Y-102261655D01*
X150609999Y-102194151D01*
X150609999Y-100125837D01*
X150603867Y-100058348D01*
X150603865Y-100058341D01*
X150555462Y-99903010D01*
X150555459Y-99903001D01*
X150471289Y-99763766D01*
X150471286Y-99763762D01*
X150356237Y-99648713D01*
X150356233Y-99648710D01*
X150216998Y-99564540D01*
X150216992Y-99564538D01*
X150061662Y-99516135D01*
X150061655Y-99516134D01*
X149994151Y-99510000D01*
X149270000Y-99510000D01*
X149261989Y-99529338D01*
X149262579Y-99530418D01*
X149257595Y-99600110D01*
X149229094Y-99644457D01*
X147713552Y-101159999D01*
X147006447Y-101159999D01*
X145490904Y-99644456D01*
X145486565Y-99636510D01*
X145479318Y-99631085D01*
X145470083Y-99606325D01*
X145457419Y-99583133D01*
X145458064Y-99574103D01*
X145454901Y-99565621D01*
X145460517Y-99539800D01*
X145460786Y-99536042D01*
X145449999Y-99510000D01*
X146063551Y-99510000D01*
X147360000Y-100806448D01*
X147360001Y-100806448D01*
X148656447Y-99510000D01*
X146063551Y-99510000D01*
X145449999Y-99510000D01*
X144725837Y-99510000D01*
X144658348Y-99516132D01*
X144658341Y-99516134D01*
X144503010Y-99564537D01*
X144503001Y-99564540D01*
X144363766Y-99648710D01*
X144363762Y-99648713D01*
X144248713Y-99763762D01*
X144248710Y-99763766D01*
X144164540Y-99903001D01*
X144164538Y-99903007D01*
X144116135Y-100058337D01*
X144116134Y-100058344D01*
X144110000Y-100125848D01*
X130126852Y-100125848D01*
X130114278Y-95875848D01*
X144110000Y-95875848D01*
X144110000Y-97944162D01*
X144116132Y-98011651D01*
X144116134Y-98011658D01*
X144164537Y-98166989D01*
X144164540Y-98166998D01*
X144248710Y-98306233D01*
X144248713Y-98306237D01*
X144363762Y-98421286D01*
X144363766Y-98421289D01*
X144503001Y-98505459D01*
X144503007Y-98505461D01*
X144658337Y-98553864D01*
X144658344Y-98553865D01*
X144725848Y-98559999D01*
X145449998Y-98559999D01*
X145449998Y-98559998D01*
X146063551Y-98559998D01*
X146063552Y-98559999D01*
X148656447Y-98559999D01*
X148656447Y-98559998D01*
X147360000Y-97263552D01*
X146063551Y-98559998D01*
X145449998Y-98559998D01*
X145458009Y-98540660D01*
X145457420Y-98539581D01*
X145462404Y-98469889D01*
X145490905Y-98425542D01*
X147006447Y-96909999D01*
X147713552Y-96909999D01*
X147713552Y-96910000D01*
X149229093Y-98425541D01*
X149262578Y-98486864D01*
X149259210Y-98533951D01*
X149270000Y-98559999D01*
X149994161Y-98559999D01*
X150061651Y-98553867D01*
X150061658Y-98553865D01*
X150216989Y-98505462D01*
X150216998Y-98505459D01*
X150356233Y-98421289D01*
X150356237Y-98421286D01*
X150471286Y-98306237D01*
X150471289Y-98306233D01*
X150555459Y-98166998D01*
X150555461Y-98166992D01*
X150603864Y-98011662D01*
X150603865Y-98011655D01*
X150609999Y-97944151D01*
X150609999Y-95875837D01*
X150603867Y-95808348D01*
X150603865Y-95808341D01*
X150555462Y-95653010D01*
X150555459Y-95653001D01*
X150471289Y-95513766D01*
X150471286Y-95513762D01*
X150356237Y-95398713D01*
X150356233Y-95398710D01*
X150216998Y-95314540D01*
X150216992Y-95314538D01*
X150061662Y-95266135D01*
X150061655Y-95266134D01*
X149994151Y-95260000D01*
X149270000Y-95260000D01*
X149261989Y-95279338D01*
X149262579Y-95280418D01*
X149257595Y-95350110D01*
X149229094Y-95394457D01*
X147713552Y-96909999D01*
X147006447Y-96909999D01*
X145490904Y-95394456D01*
X145486565Y-95386510D01*
X145479318Y-95381085D01*
X145470083Y-95356325D01*
X145457419Y-95333133D01*
X145458064Y-95324103D01*
X145454901Y-95315621D01*
X145460517Y-95289800D01*
X145460786Y-95286042D01*
X145449999Y-95260000D01*
X146063551Y-95260000D01*
X147360000Y-96556448D01*
X147360001Y-96556448D01*
X148656447Y-95260000D01*
X146063551Y-95260000D01*
X145449999Y-95260000D01*
X144725837Y-95260000D01*
X144658348Y-95266132D01*
X144658341Y-95266134D01*
X144503010Y-95314537D01*
X144503001Y-95314540D01*
X144363766Y-95398710D01*
X144363762Y-95398713D01*
X144248713Y-95513762D01*
X144248710Y-95513766D01*
X144164540Y-95653001D01*
X144164538Y-95653007D01*
X144116135Y-95808337D01*
X144116134Y-95808344D01*
X144110000Y-95875848D01*
X130114278Y-95875848D01*
X130101704Y-91625848D01*
X144110000Y-91625848D01*
X144110000Y-93694162D01*
X144116132Y-93761651D01*
X144116134Y-93761658D01*
X144164537Y-93916989D01*
X144164540Y-93916998D01*
X144248710Y-94056233D01*
X144248713Y-94056237D01*
X144363762Y-94171286D01*
X144363766Y-94171289D01*
X144503001Y-94255459D01*
X144503007Y-94255461D01*
X144658337Y-94303864D01*
X144658344Y-94303865D01*
X144725848Y-94309999D01*
X145449998Y-94309999D01*
X145449998Y-94309998D01*
X146063551Y-94309998D01*
X146063552Y-94309999D01*
X148656447Y-94309999D01*
X148656447Y-94309998D01*
X147360000Y-93013552D01*
X146063551Y-94309998D01*
X145449998Y-94309998D01*
X145458009Y-94290660D01*
X145457420Y-94289581D01*
X145462404Y-94219889D01*
X145490905Y-94175542D01*
X147006447Y-92659999D01*
X147713552Y-92659999D01*
X147713552Y-92660000D01*
X149229093Y-94175541D01*
X149262578Y-94236864D01*
X149259210Y-94283951D01*
X149270000Y-94309999D01*
X149994161Y-94309999D01*
X150061651Y-94303867D01*
X150061658Y-94303865D01*
X150216989Y-94255462D01*
X150216998Y-94255459D01*
X150356233Y-94171289D01*
X150356237Y-94171286D01*
X150471286Y-94056237D01*
X150471289Y-94056233D01*
X150555459Y-93916998D01*
X150555461Y-93916992D01*
X150603864Y-93761662D01*
X150603865Y-93761655D01*
X150609999Y-93694151D01*
X150609999Y-91625837D01*
X150603867Y-91558348D01*
X150603865Y-91558341D01*
X150555462Y-91403010D01*
X150555459Y-91403001D01*
X150471289Y-91263766D01*
X150471286Y-91263762D01*
X150356237Y-91148713D01*
X150356233Y-91148710D01*
X150216998Y-91064540D01*
X150216992Y-91064538D01*
X150061662Y-91016135D01*
X150061655Y-91016134D01*
X149994151Y-91010000D01*
X149270000Y-91010000D01*
X149261989Y-91029338D01*
X149262579Y-91030418D01*
X149257595Y-91100110D01*
X149229094Y-91144457D01*
X147713552Y-92659999D01*
X147006447Y-92659999D01*
X145490904Y-91144456D01*
X145486565Y-91136510D01*
X145479318Y-91131085D01*
X145470083Y-91106325D01*
X145457419Y-91083133D01*
X145458064Y-91074103D01*
X145454901Y-91065621D01*
X145460517Y-91039800D01*
X145460786Y-91036042D01*
X145449999Y-91010000D01*
X146063551Y-91010000D01*
X147360000Y-92306448D01*
X147360001Y-92306448D01*
X148656447Y-91010000D01*
X146063551Y-91010000D01*
X145449999Y-91010000D01*
X144725837Y-91010000D01*
X144658348Y-91016132D01*
X144658341Y-91016134D01*
X144503010Y-91064537D01*
X144503001Y-91064540D01*
X144363766Y-91148710D01*
X144363762Y-91148713D01*
X144248713Y-91263762D01*
X144248710Y-91263766D01*
X144164540Y-91403001D01*
X144164538Y-91403007D01*
X144116135Y-91558337D01*
X144116134Y-91558344D01*
X144110000Y-91625848D01*
X130101704Y-91625848D01*
X130089130Y-87375848D01*
X144110000Y-87375848D01*
X144110000Y-89444162D01*
X144116132Y-89511651D01*
X144116134Y-89511658D01*
X144164537Y-89666989D01*
X144164540Y-89666998D01*
X144248710Y-89806233D01*
X144248713Y-89806237D01*
X144363762Y-89921286D01*
X144363766Y-89921289D01*
X144503001Y-90005459D01*
X144503007Y-90005461D01*
X144658337Y-90053864D01*
X144658344Y-90053865D01*
X144725848Y-90059999D01*
X145449998Y-90059999D01*
X145449998Y-90059998D01*
X146063551Y-90059998D01*
X146063552Y-90059999D01*
X148656447Y-90059999D01*
X148656447Y-90059998D01*
X147360000Y-88763552D01*
X146063551Y-90059998D01*
X145449998Y-90059998D01*
X145458009Y-90040660D01*
X145457420Y-90039581D01*
X145462404Y-89969889D01*
X145490905Y-89925542D01*
X147006447Y-88409999D01*
X147713552Y-88409999D01*
X147713552Y-88410000D01*
X149229093Y-89925541D01*
X149262578Y-89986864D01*
X149259210Y-90033951D01*
X149270000Y-90059999D01*
X149994161Y-90059999D01*
X150061651Y-90053867D01*
X150061658Y-90053865D01*
X150216989Y-90005462D01*
X150216998Y-90005459D01*
X150356233Y-89921289D01*
X150356237Y-89921286D01*
X150471286Y-89806237D01*
X150471289Y-89806233D01*
X150555459Y-89666998D01*
X150555461Y-89666992D01*
X150603864Y-89511662D01*
X150603865Y-89511655D01*
X150609999Y-89444151D01*
X150609999Y-87375837D01*
X150603867Y-87308348D01*
X150603865Y-87308341D01*
X150555462Y-87153010D01*
X150555459Y-87153001D01*
X150471289Y-87013766D01*
X150471286Y-87013762D01*
X150356237Y-86898713D01*
X150356233Y-86898710D01*
X150216998Y-86814540D01*
X150216992Y-86814538D01*
X150061662Y-86766135D01*
X150061655Y-86766134D01*
X149994151Y-86760000D01*
X149270000Y-86760000D01*
X149261989Y-86779338D01*
X149262579Y-86780418D01*
X149257595Y-86850110D01*
X149229094Y-86894457D01*
X147713552Y-88409999D01*
X147006447Y-88409999D01*
X145490904Y-86894456D01*
X145486565Y-86886510D01*
X145479318Y-86881085D01*
X145470083Y-86856325D01*
X145457419Y-86833133D01*
X145458064Y-86824103D01*
X145454901Y-86815621D01*
X145460517Y-86789800D01*
X145460786Y-86786042D01*
X145449999Y-86760000D01*
X146063551Y-86760000D01*
X147360000Y-88056448D01*
X147360001Y-88056448D01*
X148656447Y-86760000D01*
X146063551Y-86760000D01*
X145449999Y-86760000D01*
X144725837Y-86760000D01*
X144658348Y-86766132D01*
X144658341Y-86766134D01*
X144503010Y-86814537D01*
X144503001Y-86814540D01*
X144363766Y-86898710D01*
X144363762Y-86898713D01*
X144248713Y-87013762D01*
X144248710Y-87013766D01*
X144164540Y-87153001D01*
X144164538Y-87153007D01*
X144116135Y-87308337D01*
X144116134Y-87308344D01*
X144110000Y-87375848D01*
X130089130Y-87375848D01*
X130076556Y-83125848D01*
X144110000Y-83125848D01*
X144110000Y-85194162D01*
X144116132Y-85261651D01*
X144116134Y-85261658D01*
X144164537Y-85416989D01*
X144164540Y-85416998D01*
X144248710Y-85556233D01*
X144248713Y-85556237D01*
X144363762Y-85671286D01*
X144363766Y-85671289D01*
X144503001Y-85755459D01*
X144503007Y-85755461D01*
X144658337Y-85803864D01*
X144658344Y-85803865D01*
X144725848Y-85809999D01*
X145449998Y-85809999D01*
X145449998Y-85809998D01*
X146063551Y-85809998D01*
X146063552Y-85809999D01*
X148656447Y-85809999D01*
X148656447Y-85809998D01*
X147360000Y-84513552D01*
X146063551Y-85809998D01*
X145449998Y-85809998D01*
X145458009Y-85790660D01*
X145457420Y-85789581D01*
X145462404Y-85719889D01*
X145490905Y-85675542D01*
X147006447Y-84159999D01*
X147713552Y-84159999D01*
X147713552Y-84160000D01*
X149229093Y-85675541D01*
X149262578Y-85736864D01*
X149259210Y-85783951D01*
X149270000Y-85809999D01*
X149994161Y-85809999D01*
X150061651Y-85803867D01*
X150061658Y-85803865D01*
X150216989Y-85755462D01*
X150216998Y-85755459D01*
X150356233Y-85671289D01*
X150356237Y-85671286D01*
X150471286Y-85556237D01*
X150471289Y-85556233D01*
X150555459Y-85416998D01*
X150555461Y-85416992D01*
X150603864Y-85261662D01*
X150603865Y-85261655D01*
X150609999Y-85194151D01*
X150609999Y-83125837D01*
X150603867Y-83058348D01*
X150603865Y-83058341D01*
X150555462Y-82903010D01*
X150555459Y-82903001D01*
X150471289Y-82763766D01*
X150471286Y-82763762D01*
X150356237Y-82648713D01*
X150356233Y-82648710D01*
X150216998Y-82564540D01*
X150216992Y-82564538D01*
X150061662Y-82516135D01*
X150061655Y-82516134D01*
X149994151Y-82510000D01*
X149270000Y-82510000D01*
X149261989Y-82529338D01*
X149262579Y-82530418D01*
X149257595Y-82600110D01*
X149229094Y-82644457D01*
X147713552Y-84159999D01*
X147006447Y-84159999D01*
X145490904Y-82644456D01*
X145486565Y-82636510D01*
X145479318Y-82631085D01*
X145470083Y-82606325D01*
X145457419Y-82583133D01*
X145458064Y-82574103D01*
X145454901Y-82565621D01*
X145460517Y-82539800D01*
X145460786Y-82536042D01*
X145449999Y-82510000D01*
X146063551Y-82510000D01*
X147360000Y-83806448D01*
X147360001Y-83806448D01*
X148656447Y-82510000D01*
X146063551Y-82510000D01*
X145449999Y-82510000D01*
X144725837Y-82510000D01*
X144658348Y-82516132D01*
X144658341Y-82516134D01*
X144503010Y-82564537D01*
X144503001Y-82564540D01*
X144363766Y-82648710D01*
X144363762Y-82648713D01*
X144248713Y-82763762D01*
X144248710Y-82763766D01*
X144164540Y-82903001D01*
X144164538Y-82903007D01*
X144116135Y-83058337D01*
X144116134Y-83058344D01*
X144110000Y-83125848D01*
X130076556Y-83125848D01*
X130063982Y-78875848D01*
X144110000Y-78875848D01*
X144110000Y-80944162D01*
X144116132Y-81011651D01*
X144116134Y-81011658D01*
X144164537Y-81166989D01*
X144164540Y-81166998D01*
X144248710Y-81306233D01*
X144248713Y-81306237D01*
X144363762Y-81421286D01*
X144363766Y-81421289D01*
X144503001Y-81505459D01*
X144503007Y-81505461D01*
X144658337Y-81553864D01*
X144658344Y-81553865D01*
X144725848Y-81559999D01*
X145449998Y-81559999D01*
X145449998Y-81559998D01*
X146063551Y-81559998D01*
X146063552Y-81559999D01*
X148656447Y-81559999D01*
X148656447Y-81559998D01*
X147360000Y-80263552D01*
X146063551Y-81559998D01*
X145449998Y-81559998D01*
X145458009Y-81540660D01*
X145457420Y-81539581D01*
X145462404Y-81469889D01*
X145490905Y-81425542D01*
X147006447Y-79909999D01*
X147713552Y-79909999D01*
X147713552Y-79910000D01*
X149229093Y-81425541D01*
X149262578Y-81486864D01*
X149259210Y-81533951D01*
X149270000Y-81559999D01*
X149994161Y-81559999D01*
X150061651Y-81553867D01*
X150061658Y-81553865D01*
X150216989Y-81505462D01*
X150216998Y-81505459D01*
X150356233Y-81421289D01*
X150356237Y-81421286D01*
X150471286Y-81306237D01*
X150471289Y-81306233D01*
X150555459Y-81166998D01*
X150555461Y-81166992D01*
X150603864Y-81011662D01*
X150603865Y-81011655D01*
X150609999Y-80944151D01*
X150609999Y-78875837D01*
X150603867Y-78808348D01*
X150603865Y-78808341D01*
X150555462Y-78653010D01*
X150555459Y-78653001D01*
X150471289Y-78513766D01*
X150471286Y-78513762D01*
X150356237Y-78398713D01*
X150356233Y-78398710D01*
X150216998Y-78314540D01*
X150216992Y-78314538D01*
X150061662Y-78266135D01*
X150061655Y-78266134D01*
X149994151Y-78260000D01*
X149270000Y-78260000D01*
X149261989Y-78279338D01*
X149262579Y-78280418D01*
X149257595Y-78350110D01*
X149229094Y-78394457D01*
X147713552Y-79909999D01*
X147006447Y-79909999D01*
X145490904Y-78394456D01*
X145486565Y-78386510D01*
X145479318Y-78381085D01*
X145470083Y-78356325D01*
X145457419Y-78333133D01*
X145458064Y-78324103D01*
X145454901Y-78315621D01*
X145460517Y-78289800D01*
X145460786Y-78286042D01*
X145449999Y-78260000D01*
X146063551Y-78260000D01*
X147360000Y-79556448D01*
X147360001Y-79556448D01*
X148656447Y-78260000D01*
X146063551Y-78260000D01*
X145449999Y-78260000D01*
X144725837Y-78260000D01*
X144658348Y-78266132D01*
X144658341Y-78266134D01*
X144503010Y-78314537D01*
X144503001Y-78314540D01*
X144363766Y-78398710D01*
X144363762Y-78398713D01*
X144248713Y-78513762D01*
X144248710Y-78513766D01*
X144164540Y-78653001D01*
X144164538Y-78653007D01*
X144116135Y-78808337D01*
X144116134Y-78808344D01*
X144110000Y-78875848D01*
X130063982Y-78875848D01*
X130051408Y-74625848D01*
X144110000Y-74625848D01*
X144110000Y-76694162D01*
X144116132Y-76761651D01*
X144116134Y-76761658D01*
X144164537Y-76916989D01*
X144164540Y-76916998D01*
X144248710Y-77056233D01*
X144248713Y-77056237D01*
X144363762Y-77171286D01*
X144363766Y-77171289D01*
X144503001Y-77255459D01*
X144503007Y-77255461D01*
X144658337Y-77303864D01*
X144658344Y-77303865D01*
X144725848Y-77309999D01*
X145449998Y-77309999D01*
X145449998Y-77309998D01*
X146063551Y-77309998D01*
X146063552Y-77309999D01*
X148656447Y-77309999D01*
X148656447Y-77309998D01*
X147360000Y-76013552D01*
X146063551Y-77309998D01*
X145449998Y-77309998D01*
X145458009Y-77290660D01*
X145457420Y-77289581D01*
X145462404Y-77219889D01*
X145490905Y-77175542D01*
X147006447Y-75659999D01*
X147713552Y-75659999D01*
X147713552Y-75660000D01*
X149229093Y-77175541D01*
X149262578Y-77236864D01*
X149259210Y-77283951D01*
X149270000Y-77309999D01*
X149994161Y-77309999D01*
X150061651Y-77303867D01*
X150061658Y-77303865D01*
X150216989Y-77255462D01*
X150216998Y-77255459D01*
X150356233Y-77171289D01*
X150356237Y-77171286D01*
X150471286Y-77056237D01*
X150471289Y-77056233D01*
X150555459Y-76916998D01*
X150555461Y-76916992D01*
X150603864Y-76761662D01*
X150603865Y-76761655D01*
X150609999Y-76694151D01*
X150609999Y-74625837D01*
X150603867Y-74558348D01*
X150603865Y-74558341D01*
X150555462Y-74403010D01*
X150555459Y-74403001D01*
X150471289Y-74263766D01*
X150471286Y-74263762D01*
X150356237Y-74148713D01*
X150356233Y-74148710D01*
X150216998Y-74064540D01*
X150216992Y-74064538D01*
X150061662Y-74016135D01*
X150061655Y-74016134D01*
X149994151Y-74010000D01*
X149270000Y-74010000D01*
X149261989Y-74029338D01*
X149262579Y-74030418D01*
X149257595Y-74100110D01*
X149229094Y-74144457D01*
X147713552Y-75659999D01*
X147006447Y-75659999D01*
X145490904Y-74144456D01*
X145486565Y-74136510D01*
X145479318Y-74131085D01*
X145470083Y-74106325D01*
X145457419Y-74083133D01*
X145458064Y-74074103D01*
X145454901Y-74065621D01*
X145460517Y-74039800D01*
X145460786Y-74036042D01*
X145449999Y-74010000D01*
X146063551Y-74010000D01*
X147360000Y-75306448D01*
X147360001Y-75306448D01*
X148656447Y-74010000D01*
X146063551Y-74010000D01*
X145449999Y-74010000D01*
X144725837Y-74010000D01*
X144658348Y-74016132D01*
X144658341Y-74016134D01*
X144503010Y-74064537D01*
X144503001Y-74064540D01*
X144363766Y-74148710D01*
X144363762Y-74148713D01*
X144248713Y-74263762D01*
X144248710Y-74263766D01*
X144164540Y-74403001D01*
X144164538Y-74403007D01*
X144116135Y-74558337D01*
X144116134Y-74558344D01*
X144110000Y-74625848D01*
X130051408Y-74625848D01*
X130018849Y-63621126D01*
X167862500Y-63621126D01*
X167862500Y-63878873D01*
X167902820Y-64133445D01*
X167982471Y-64378584D01*
X168099483Y-64608233D01*
X168178901Y-64717544D01*
X168691497Y-64204947D01*
X168781505Y-64339653D01*
X168910347Y-64468495D01*
X169045050Y-64558501D01*
X168532453Y-65071097D01*
X168532454Y-65071098D01*
X168641758Y-65150512D01*
X168871415Y-65267528D01*
X169116554Y-65347179D01*
X169371127Y-65387500D01*
X169628873Y-65387500D01*
X169883445Y-65347179D01*
X170128584Y-65267528D01*
X170358237Y-65150514D01*
X170467544Y-65071097D01*
X170467545Y-65071097D01*
X169954949Y-64558501D01*
X170089653Y-64468495D01*
X170218495Y-64339653D01*
X170308501Y-64204949D01*
X170821097Y-64717545D01*
X170821097Y-64717544D01*
X170900514Y-64608237D01*
X171017528Y-64378584D01*
X171097179Y-64133445D01*
X171137500Y-63878873D01*
X171137500Y-63621126D01*
X173732500Y-63621126D01*
X173732500Y-63878873D01*
X173772820Y-64133445D01*
X173852471Y-64378584D01*
X173969483Y-64608233D01*
X174048901Y-64717544D01*
X174561497Y-64204947D01*
X174651505Y-64339653D01*
X174780347Y-64468495D01*
X174915050Y-64558501D01*
X174402453Y-65071097D01*
X174402454Y-65071098D01*
X174511758Y-65150512D01*
X174741415Y-65267528D01*
X174986554Y-65347179D01*
X175241127Y-65387500D01*
X175498873Y-65387500D01*
X175753445Y-65347179D01*
X175998584Y-65267528D01*
X176228237Y-65150514D01*
X176337544Y-65071097D01*
X176337545Y-65071097D01*
X175824949Y-64558501D01*
X175959653Y-64468495D01*
X176088495Y-64339653D01*
X176178501Y-64204949D01*
X176691097Y-64717545D01*
X176691097Y-64717544D01*
X176770514Y-64608237D01*
X176887528Y-64378584D01*
X176967179Y-64133445D01*
X177007500Y-63878873D01*
X177007500Y-63621126D01*
X176967179Y-63366554D01*
X176887528Y-63121415D01*
X176770512Y-62891758D01*
X176691098Y-62782454D01*
X176691097Y-62782453D01*
X176178500Y-63295049D01*
X176088495Y-63160347D01*
X175959653Y-63031505D01*
X175824947Y-62941497D01*
X176337544Y-62428901D01*
X176228233Y-62349483D01*
X175998584Y-62232471D01*
X175753445Y-62152820D01*
X175498873Y-62112500D01*
X175241127Y-62112500D01*
X174986554Y-62152820D01*
X174741415Y-62232471D01*
X174511764Y-62349484D01*
X174402454Y-62428901D01*
X174915051Y-62941498D01*
X174780347Y-63031505D01*
X174651505Y-63160347D01*
X174561498Y-63295051D01*
X174048901Y-62782454D01*
X173969484Y-62891764D01*
X173852471Y-63121415D01*
X173772820Y-63366554D01*
X173732500Y-63621126D01*
X171137500Y-63621126D01*
X171097179Y-63366554D01*
X171017528Y-63121415D01*
X170900512Y-62891758D01*
X170821098Y-62782454D01*
X170821097Y-62782453D01*
X170308500Y-63295050D01*
X170218495Y-63160347D01*
X170089653Y-63031505D01*
X169954947Y-62941497D01*
X170467544Y-62428901D01*
X170358233Y-62349483D01*
X170128584Y-62232471D01*
X169883445Y-62152820D01*
X169628873Y-62112500D01*
X169371127Y-62112500D01*
X169116554Y-62152820D01*
X168871415Y-62232471D01*
X168641764Y-62349484D01*
X168532454Y-62428901D01*
X169045051Y-62941498D01*
X168910347Y-63031505D01*
X168781505Y-63160347D01*
X168691498Y-63295051D01*
X168178901Y-62782454D01*
X168099484Y-62891764D01*
X167982471Y-63121415D01*
X167902820Y-63366554D01*
X167862500Y-63621126D01*
X130018849Y-63621126D01*
X130010196Y-60696593D01*
X170930500Y-60696593D01*
X170930500Y-60933406D01*
X170967546Y-61167306D01*
X170967546Y-61167309D01*
X171040723Y-61392524D01*
X171040725Y-61392527D01*
X171148236Y-61603530D01*
X171287432Y-61795116D01*
X171454884Y-61962568D01*
X171646470Y-62101764D01*
X171857473Y-62209275D01*
X171857475Y-62209276D01*
X172082691Y-62282453D01*
X172082692Y-62282453D01*
X172082695Y-62282454D01*
X172316593Y-62319500D01*
X172316594Y-62319500D01*
X172553406Y-62319500D01*
X172553407Y-62319500D01*
X172787305Y-62282454D01*
X172787308Y-62282453D01*
X172787309Y-62282453D01*
X173012524Y-62209276D01*
X173012524Y-62209275D01*
X173012527Y-62209275D01*
X173223530Y-62101764D01*
X173415116Y-61962568D01*
X173582568Y-61795116D01*
X173721764Y-61603530D01*
X173829275Y-61392527D01*
X173902454Y-61167305D01*
X173939500Y-60933407D01*
X173939500Y-60696593D01*
X173902454Y-60462695D01*
X173902453Y-60462691D01*
X173902453Y-60462690D01*
X173829276Y-60237475D01*
X173721763Y-60026469D01*
X173582568Y-59834884D01*
X173415116Y-59667432D01*
X173223530Y-59528236D01*
X173123325Y-59477179D01*
X173012524Y-59420723D01*
X172787308Y-59347546D01*
X172611881Y-59319761D01*
X172553407Y-59310500D01*
X172316593Y-59310500D01*
X172238627Y-59322848D01*
X172082693Y-59347546D01*
X172082690Y-59347546D01*
X171857475Y-59420723D01*
X171646469Y-59528236D01*
X171537162Y-59607652D01*
X171454884Y-59667432D01*
X171454882Y-59667434D01*
X171454881Y-59667434D01*
X171287434Y-59834881D01*
X171287434Y-59834882D01*
X171287432Y-59834884D01*
X171227652Y-59917162D01*
X171148236Y-60026469D01*
X171040723Y-60237475D01*
X170967546Y-60462690D01*
X170967546Y-60462693D01*
X170930500Y-60696593D01*
X130010196Y-60696593D01*
X130001482Y-57751126D01*
X167862500Y-57751126D01*
X167862500Y-58008873D01*
X167902820Y-58263445D01*
X167982471Y-58508584D01*
X168099483Y-58738233D01*
X168178901Y-58847544D01*
X168691497Y-58334947D01*
X168781505Y-58469653D01*
X168910347Y-58598495D01*
X169045050Y-58688501D01*
X168532453Y-59201097D01*
X168532454Y-59201098D01*
X168641758Y-59280512D01*
X168871415Y-59397528D01*
X169116554Y-59477179D01*
X169371127Y-59517500D01*
X169628873Y-59517500D01*
X169883445Y-59477179D01*
X170128584Y-59397528D01*
X170358237Y-59280514D01*
X170467544Y-59201097D01*
X170467545Y-59201097D01*
X169954949Y-58688501D01*
X170089653Y-58598495D01*
X170218495Y-58469653D01*
X170308501Y-58334949D01*
X170821097Y-58847545D01*
X170821097Y-58847544D01*
X170900514Y-58738237D01*
X171017528Y-58508584D01*
X171097179Y-58263445D01*
X171137500Y-58008873D01*
X171137500Y-57751126D01*
X173732500Y-57751126D01*
X173732500Y-58008873D01*
X173772820Y-58263445D01*
X173852471Y-58508584D01*
X173969483Y-58738233D01*
X174048901Y-58847544D01*
X174561497Y-58334947D01*
X174651505Y-58469653D01*
X174780347Y-58598495D01*
X174915050Y-58688501D01*
X174402453Y-59201097D01*
X174402454Y-59201098D01*
X174511758Y-59280512D01*
X174741415Y-59397528D01*
X174986554Y-59477179D01*
X175241127Y-59517500D01*
X175498873Y-59517500D01*
X175753445Y-59477179D01*
X175998584Y-59397528D01*
X176228237Y-59280514D01*
X176337544Y-59201097D01*
X176337545Y-59201097D01*
X175824949Y-58688501D01*
X175959653Y-58598495D01*
X176088495Y-58469653D01*
X176178501Y-58334949D01*
X176691097Y-58847545D01*
X176691097Y-58847544D01*
X176770514Y-58738237D01*
X176887528Y-58508584D01*
X176967179Y-58263445D01*
X177007500Y-58008873D01*
X177007500Y-57751126D01*
X176967179Y-57496554D01*
X176887528Y-57251415D01*
X176770512Y-57021758D01*
X176691098Y-56912454D01*
X176691097Y-56912453D01*
X176178500Y-57425049D01*
X176088495Y-57290347D01*
X175959653Y-57161505D01*
X175824947Y-57071497D01*
X176337544Y-56558901D01*
X176228233Y-56479483D01*
X175998584Y-56362471D01*
X175753445Y-56282820D01*
X175498873Y-56242500D01*
X175241127Y-56242500D01*
X174986554Y-56282820D01*
X174741415Y-56362471D01*
X174511764Y-56479484D01*
X174402454Y-56558901D01*
X174915051Y-57071498D01*
X174780347Y-57161505D01*
X174651505Y-57290347D01*
X174561498Y-57425051D01*
X174048901Y-56912454D01*
X173969484Y-57021764D01*
X173852471Y-57251415D01*
X173772820Y-57496554D01*
X173732500Y-57751126D01*
X171137500Y-57751126D01*
X171097179Y-57496554D01*
X171017528Y-57251415D01*
X170900512Y-57021758D01*
X170821098Y-56912454D01*
X170821097Y-56912453D01*
X170308500Y-57425050D01*
X170218495Y-57290347D01*
X170089653Y-57161505D01*
X169954947Y-57071497D01*
X170467544Y-56558901D01*
X170358233Y-56479483D01*
X170128584Y-56362471D01*
X169883445Y-56282820D01*
X169628873Y-56242500D01*
X169371127Y-56242500D01*
X169116554Y-56282820D01*
X168871415Y-56362471D01*
X168641764Y-56479484D01*
X168532454Y-56558901D01*
X169045051Y-57071498D01*
X168910347Y-57161505D01*
X168781505Y-57290347D01*
X168691498Y-57425051D01*
X168178901Y-56912454D01*
X168099484Y-57021764D01*
X167982471Y-57251415D01*
X167902820Y-57496554D01*
X167862500Y-57751126D01*
X130001482Y-57751126D01*
X130000351Y-57368839D01*
X130019837Y-57301745D01*
X130072505Y-57255834D01*
X130118715Y-57244603D01*
X162999359Y-55750029D01*
X163000601Y-55749979D01*
X177617524Y-55254490D01*
X177685190Y-55271892D01*
G37*
%TD.AperFunction*%
%TD*%
%TA.AperFunction,Conductor*%
%TO.N,GND*%
G36*
X178599500Y-122403909D02*
G01*
X178599500Y-141475500D01*
X178579815Y-141542539D01*
X178527011Y-141588294D01*
X178475500Y-141599500D01*
X172998815Y-141599500D01*
X172948786Y-135245834D01*
X174045500Y-135245834D01*
X174045500Y-135414165D01*
X174078336Y-135579241D01*
X174078338Y-135579249D01*
X174142750Y-135734755D01*
X174142755Y-135734764D01*
X174236265Y-135874711D01*
X174236268Y-135874715D01*
X174355284Y-135993731D01*
X174355288Y-135993734D01*
X174495235Y-136087244D01*
X174495241Y-136087247D01*
X174495242Y-136087248D01*
X174650751Y-136151662D01*
X174815834Y-136184499D01*
X174815838Y-136184500D01*
X174815839Y-136184500D01*
X174984162Y-136184500D01*
X174984163Y-136184499D01*
X175149249Y-136151662D01*
X175304758Y-136087248D01*
X175444712Y-135993734D01*
X175563734Y-135874712D01*
X175657248Y-135734758D01*
X175721662Y-135579249D01*
X175754500Y-135414161D01*
X175754500Y-135245839D01*
X175754499Y-135245834D01*
X176045500Y-135245834D01*
X176045500Y-135414165D01*
X176078336Y-135579241D01*
X176078338Y-135579249D01*
X176142750Y-135734755D01*
X176142755Y-135734764D01*
X176236265Y-135874711D01*
X176236268Y-135874715D01*
X176355284Y-135993731D01*
X176355288Y-135993734D01*
X176495235Y-136087244D01*
X176495241Y-136087247D01*
X176495242Y-136087248D01*
X176650751Y-136151662D01*
X176815834Y-136184499D01*
X176815838Y-136184500D01*
X176815839Y-136184500D01*
X176984162Y-136184500D01*
X176984163Y-136184499D01*
X177149249Y-136151662D01*
X177304758Y-136087248D01*
X177444712Y-135993734D01*
X177563734Y-135874712D01*
X177657248Y-135734758D01*
X177721662Y-135579249D01*
X177754500Y-135414161D01*
X177754500Y-135245839D01*
X177721662Y-135080751D01*
X177657248Y-134925242D01*
X177657247Y-134925241D01*
X177657244Y-134925235D01*
X177563734Y-134785288D01*
X177563731Y-134785284D01*
X177444715Y-134666268D01*
X177444711Y-134666265D01*
X177304764Y-134572755D01*
X177304755Y-134572750D01*
X177149249Y-134508338D01*
X177149241Y-134508336D01*
X176984165Y-134475500D01*
X176984161Y-134475500D01*
X176815839Y-134475500D01*
X176815834Y-134475500D01*
X176650758Y-134508336D01*
X176650750Y-134508338D01*
X176495244Y-134572750D01*
X176495235Y-134572755D01*
X176355288Y-134666265D01*
X176355284Y-134666268D01*
X176236268Y-134785284D01*
X176236265Y-134785288D01*
X176142755Y-134925235D01*
X176142750Y-134925244D01*
X176078338Y-135080750D01*
X176078336Y-135080758D01*
X176045500Y-135245834D01*
X175754499Y-135245834D01*
X175721662Y-135080751D01*
X175657248Y-134925242D01*
X175657247Y-134925241D01*
X175657244Y-134925235D01*
X175563734Y-134785288D01*
X175563731Y-134785284D01*
X175444715Y-134666268D01*
X175444711Y-134666265D01*
X175304764Y-134572755D01*
X175304755Y-134572750D01*
X175149249Y-134508338D01*
X175149241Y-134508336D01*
X174984165Y-134475500D01*
X174984161Y-134475500D01*
X174815839Y-134475500D01*
X174815834Y-134475500D01*
X174650758Y-134508336D01*
X174650750Y-134508338D01*
X174495244Y-134572750D01*
X174495235Y-134572755D01*
X174355288Y-134666265D01*
X174355284Y-134666268D01*
X174236268Y-134785284D01*
X174236265Y-134785288D01*
X174142755Y-134925235D01*
X174142750Y-134925244D01*
X174078338Y-135080750D01*
X174078336Y-135080758D01*
X174045500Y-135245834D01*
X172948786Y-135245834D01*
X172766896Y-112145834D01*
X174045500Y-112145834D01*
X174045500Y-112314165D01*
X174078336Y-112479241D01*
X174078338Y-112479249D01*
X174142750Y-112634755D01*
X174142755Y-112634764D01*
X174236265Y-112774711D01*
X174236268Y-112774715D01*
X174355284Y-112893731D01*
X174355288Y-112893734D01*
X174495235Y-112987244D01*
X174495241Y-112987247D01*
X174495242Y-112987248D01*
X174650751Y-113051662D01*
X174815834Y-113084499D01*
X174815838Y-113084500D01*
X174815839Y-113084500D01*
X174984162Y-113084500D01*
X174984163Y-113084499D01*
X175149249Y-113051662D01*
X175304758Y-112987248D01*
X175444712Y-112893734D01*
X175563734Y-112774712D01*
X175657248Y-112634758D01*
X175721662Y-112479249D01*
X175754500Y-112314161D01*
X175754500Y-112145839D01*
X175754499Y-112145834D01*
X176045500Y-112145834D01*
X176045500Y-112314165D01*
X176078336Y-112479241D01*
X176078338Y-112479249D01*
X176142750Y-112634755D01*
X176142755Y-112634764D01*
X176236265Y-112774711D01*
X176236268Y-112774715D01*
X176355284Y-112893731D01*
X176355288Y-112893734D01*
X176495235Y-112987244D01*
X176495241Y-112987247D01*
X176495242Y-112987248D01*
X176650751Y-113051662D01*
X176815834Y-113084499D01*
X176815838Y-113084500D01*
X176815839Y-113084500D01*
X176984162Y-113084500D01*
X176984163Y-113084499D01*
X177149249Y-113051662D01*
X177304758Y-112987248D01*
X177444712Y-112893734D01*
X177563734Y-112774712D01*
X177657248Y-112634758D01*
X177721662Y-112479249D01*
X177754500Y-112314161D01*
X177754500Y-112145839D01*
X177721662Y-111980751D01*
X177657248Y-111825242D01*
X177657247Y-111825241D01*
X177657244Y-111825235D01*
X177563734Y-111685288D01*
X177563731Y-111685284D01*
X177444715Y-111566268D01*
X177444711Y-111566265D01*
X177304764Y-111472755D01*
X177304755Y-111472750D01*
X177149249Y-111408338D01*
X177149241Y-111408336D01*
X176984165Y-111375500D01*
X176984161Y-111375500D01*
X176815839Y-111375500D01*
X176815834Y-111375500D01*
X176650758Y-111408336D01*
X176650750Y-111408338D01*
X176495244Y-111472750D01*
X176495235Y-111472755D01*
X176355288Y-111566265D01*
X176355284Y-111566268D01*
X176236268Y-111685284D01*
X176236265Y-111685288D01*
X176142755Y-111825235D01*
X176142750Y-111825244D01*
X176078338Y-111980750D01*
X176078336Y-111980758D01*
X176045500Y-112145834D01*
X175754499Y-112145834D01*
X175721662Y-111980751D01*
X175657248Y-111825242D01*
X175657247Y-111825241D01*
X175657244Y-111825235D01*
X175563734Y-111685288D01*
X175563731Y-111685284D01*
X175444715Y-111566268D01*
X175444711Y-111566265D01*
X175304764Y-111472755D01*
X175304755Y-111472750D01*
X175149249Y-111408338D01*
X175149241Y-111408336D01*
X174984165Y-111375500D01*
X174984161Y-111375500D01*
X174815839Y-111375500D01*
X174815834Y-111375500D01*
X174650758Y-111408336D01*
X174650750Y-111408338D01*
X174495244Y-111472750D01*
X174495235Y-111472755D01*
X174355288Y-111566265D01*
X174355284Y-111566268D01*
X174236268Y-111685284D01*
X174236265Y-111685288D01*
X174142755Y-111825235D01*
X174142750Y-111825244D01*
X174078338Y-111980750D01*
X174078336Y-111980758D01*
X174045500Y-112145834D01*
X172766896Y-112145834D01*
X172750000Y-110000000D01*
X170500000Y-108500000D01*
X170500000Y-106761933D01*
X172399500Y-106761933D01*
X172399500Y-106920046D01*
X172440423Y-107072773D01*
X172440426Y-107072780D01*
X172519475Y-107209699D01*
X172519479Y-107209704D01*
X172519480Y-107209706D01*
X172631284Y-107321510D01*
X172631286Y-107321511D01*
X172631290Y-107321514D01*
X172768209Y-107400563D01*
X172768216Y-107400567D01*
X172920943Y-107441490D01*
X172920945Y-107441490D01*
X173079055Y-107441490D01*
X173079057Y-107441490D01*
X173231784Y-107400567D01*
X173368716Y-107321510D01*
X173480520Y-107209706D01*
X173559577Y-107072774D01*
X173600500Y-106920047D01*
X173600500Y-106761933D01*
X173559577Y-106609206D01*
X173559573Y-106609199D01*
X173480524Y-106472280D01*
X173480518Y-106472272D01*
X173368717Y-106360471D01*
X173368709Y-106360465D01*
X173231790Y-106281416D01*
X173231786Y-106281414D01*
X173231784Y-106281413D01*
X173079057Y-106240490D01*
X172920943Y-106240490D01*
X172768216Y-106281413D01*
X172768209Y-106281416D01*
X172631290Y-106360465D01*
X172631282Y-106360471D01*
X172519481Y-106472272D01*
X172519475Y-106472280D01*
X172440426Y-106609199D01*
X172440423Y-106609206D01*
X172399500Y-106761933D01*
X170500000Y-106761933D01*
X170500000Y-105170943D01*
X171740490Y-105170943D01*
X171740490Y-105329057D01*
X171755851Y-105386383D01*
X171781413Y-105481783D01*
X171781416Y-105481790D01*
X171860465Y-105618709D01*
X171860469Y-105618714D01*
X171860470Y-105618716D01*
X171972274Y-105730520D01*
X171972276Y-105730521D01*
X171972280Y-105730524D01*
X172018572Y-105757250D01*
X172109206Y-105809577D01*
X172261933Y-105850500D01*
X172261935Y-105850500D01*
X172420045Y-105850500D01*
X172420047Y-105850500D01*
X172572774Y-105809577D01*
X172709706Y-105730520D01*
X172821510Y-105618716D01*
X172900567Y-105481784D01*
X172941490Y-105329057D01*
X172941490Y-105170943D01*
X172900567Y-105018216D01*
X172900563Y-105018209D01*
X172821514Y-104881290D01*
X172821508Y-104881282D01*
X172709707Y-104769481D01*
X172709699Y-104769475D01*
X172572780Y-104690426D01*
X172572776Y-104690424D01*
X172572774Y-104690423D01*
X172420047Y-104649500D01*
X172261933Y-104649500D01*
X172109206Y-104690423D01*
X172109199Y-104690426D01*
X171972280Y-104769475D01*
X171972272Y-104769481D01*
X171860471Y-104881282D01*
X171860465Y-104881290D01*
X171781416Y-105018209D01*
X171781413Y-105018216D01*
X171740490Y-105170943D01*
X170500000Y-105170943D01*
X170500000Y-103579953D01*
X172399500Y-103579953D01*
X172399500Y-103738066D01*
X172440423Y-103890793D01*
X172440426Y-103890800D01*
X172519475Y-104027719D01*
X172519479Y-104027724D01*
X172519480Y-104027726D01*
X172631284Y-104139530D01*
X172631286Y-104139531D01*
X172631290Y-104139534D01*
X172768209Y-104218583D01*
X172768216Y-104218587D01*
X172920943Y-104259510D01*
X172920945Y-104259510D01*
X173079055Y-104259510D01*
X173079057Y-104259510D01*
X173231784Y-104218587D01*
X173368716Y-104139530D01*
X173480520Y-104027726D01*
X173559577Y-103890794D01*
X173600500Y-103738067D01*
X173600500Y-103579953D01*
X173559577Y-103427226D01*
X173559573Y-103427219D01*
X173480524Y-103290300D01*
X173480518Y-103290292D01*
X173368717Y-103178491D01*
X173368709Y-103178485D01*
X173231790Y-103099436D01*
X173231786Y-103099434D01*
X173231784Y-103099433D01*
X173079057Y-103058510D01*
X172920943Y-103058510D01*
X172768216Y-103099433D01*
X172768209Y-103099436D01*
X172631290Y-103178485D01*
X172631282Y-103178491D01*
X172519481Y-103290292D01*
X172519475Y-103290300D01*
X172440426Y-103427219D01*
X172440423Y-103427226D01*
X172399500Y-103579953D01*
X170500000Y-103579953D01*
X170500000Y-102250000D01*
X172750000Y-101000000D01*
X172750000Y-98205834D01*
X174005500Y-98205834D01*
X174005500Y-98374165D01*
X174038336Y-98539241D01*
X174038338Y-98539249D01*
X174102750Y-98694755D01*
X174102755Y-98694764D01*
X174196265Y-98834711D01*
X174196268Y-98834715D01*
X174315284Y-98953731D01*
X174315288Y-98953734D01*
X174455235Y-99047244D01*
X174455241Y-99047247D01*
X174455242Y-99047248D01*
X174610751Y-99111662D01*
X174775834Y-99144499D01*
X174775838Y-99144500D01*
X174775839Y-99144500D01*
X174944162Y-99144500D01*
X174944163Y-99144499D01*
X175109249Y-99111662D01*
X175264758Y-99047248D01*
X175404712Y-98953734D01*
X175523734Y-98834712D01*
X175617248Y-98694758D01*
X175681662Y-98539249D01*
X175714500Y-98374161D01*
X175714500Y-98205839D01*
X175714499Y-98205834D01*
X176005500Y-98205834D01*
X176005500Y-98374165D01*
X176038336Y-98539241D01*
X176038338Y-98539249D01*
X176102750Y-98694755D01*
X176102755Y-98694764D01*
X176196265Y-98834711D01*
X176196268Y-98834715D01*
X176315284Y-98953731D01*
X176315288Y-98953734D01*
X176455235Y-99047244D01*
X176455241Y-99047247D01*
X176455242Y-99047248D01*
X176610751Y-99111662D01*
X176775834Y-99144499D01*
X176775838Y-99144500D01*
X176775839Y-99144500D01*
X176944162Y-99144500D01*
X176944163Y-99144499D01*
X177109249Y-99111662D01*
X177264758Y-99047248D01*
X177404712Y-98953734D01*
X177523734Y-98834712D01*
X177617248Y-98694758D01*
X177681662Y-98539249D01*
X177714500Y-98374161D01*
X177714500Y-98205839D01*
X177681662Y-98040751D01*
X177617248Y-97885242D01*
X177617247Y-97885241D01*
X177617244Y-97885235D01*
X177523734Y-97745288D01*
X177523731Y-97745284D01*
X177404715Y-97626268D01*
X177404711Y-97626265D01*
X177264764Y-97532755D01*
X177264755Y-97532750D01*
X177109249Y-97468338D01*
X177109241Y-97468336D01*
X176944165Y-97435500D01*
X176944161Y-97435500D01*
X176775839Y-97435500D01*
X176775834Y-97435500D01*
X176610758Y-97468336D01*
X176610750Y-97468338D01*
X176455244Y-97532750D01*
X176455235Y-97532755D01*
X176315288Y-97626265D01*
X176315284Y-97626268D01*
X176196268Y-97745284D01*
X176196265Y-97745288D01*
X176102755Y-97885235D01*
X176102750Y-97885244D01*
X176038338Y-98040750D01*
X176038336Y-98040758D01*
X176005500Y-98205834D01*
X175714499Y-98205834D01*
X175681662Y-98040751D01*
X175617248Y-97885242D01*
X175617247Y-97885241D01*
X175617244Y-97885235D01*
X175523734Y-97745288D01*
X175523731Y-97745284D01*
X175404715Y-97626268D01*
X175404711Y-97626265D01*
X175264764Y-97532755D01*
X175264755Y-97532750D01*
X175109249Y-97468338D01*
X175109241Y-97468336D01*
X174944165Y-97435500D01*
X174944161Y-97435500D01*
X174775839Y-97435500D01*
X174775834Y-97435500D01*
X174610758Y-97468336D01*
X174610750Y-97468338D01*
X174455244Y-97532750D01*
X174455235Y-97532755D01*
X174315288Y-97626265D01*
X174315284Y-97626268D01*
X174196268Y-97745284D01*
X174196265Y-97745288D01*
X174102755Y-97885235D01*
X174102750Y-97885244D01*
X174038338Y-98040750D01*
X174038336Y-98040758D01*
X174005500Y-98205834D01*
X172750000Y-98205834D01*
X172750000Y-94114250D01*
X172755500Y-94076000D01*
X172755500Y-93399000D01*
X172750803Y-93355316D01*
X172750000Y-93351624D01*
X172750000Y-92139250D01*
X172755500Y-92101000D01*
X172755500Y-91424000D01*
X172750803Y-91380316D01*
X172750000Y-91376624D01*
X172750000Y-88114250D01*
X172755500Y-88076000D01*
X172755500Y-87399000D01*
X172750803Y-87355316D01*
X172750000Y-87351624D01*
X172750000Y-86139250D01*
X172755500Y-86101000D01*
X172755500Y-85424000D01*
X172750803Y-85380316D01*
X172750000Y-85376624D01*
X172750000Y-75105834D01*
X174005500Y-75105834D01*
X174005500Y-75274165D01*
X174038336Y-75439241D01*
X174038338Y-75439249D01*
X174102750Y-75594755D01*
X174102755Y-75594764D01*
X174196265Y-75734711D01*
X174196268Y-75734715D01*
X174315284Y-75853731D01*
X174315288Y-75853734D01*
X174455235Y-75947244D01*
X174455241Y-75947247D01*
X174455242Y-75947248D01*
X174610751Y-76011662D01*
X174775834Y-76044499D01*
X174775838Y-76044500D01*
X174775839Y-76044500D01*
X174944162Y-76044500D01*
X174944163Y-76044499D01*
X175109249Y-76011662D01*
X175264758Y-75947248D01*
X175404712Y-75853734D01*
X175523734Y-75734712D01*
X175617248Y-75594758D01*
X175681662Y-75439249D01*
X175714500Y-75274161D01*
X175714500Y-75105839D01*
X175714499Y-75105834D01*
X176005500Y-75105834D01*
X176005500Y-75274165D01*
X176038336Y-75439241D01*
X176038338Y-75439249D01*
X176102750Y-75594755D01*
X176102755Y-75594764D01*
X176196265Y-75734711D01*
X176196268Y-75734715D01*
X176315284Y-75853731D01*
X176315288Y-75853734D01*
X176455235Y-75947244D01*
X176455241Y-75947247D01*
X176455242Y-75947248D01*
X176610751Y-76011662D01*
X176775834Y-76044499D01*
X176775838Y-76044500D01*
X176775839Y-76044500D01*
X176944162Y-76044500D01*
X176944163Y-76044499D01*
X177109249Y-76011662D01*
X177264758Y-75947248D01*
X177404712Y-75853734D01*
X177523734Y-75734712D01*
X177617248Y-75594758D01*
X177681662Y-75439249D01*
X177714500Y-75274161D01*
X177714500Y-75105839D01*
X177681662Y-74940751D01*
X177617248Y-74785242D01*
X177617247Y-74785241D01*
X177617244Y-74785235D01*
X177523734Y-74645288D01*
X177523731Y-74645284D01*
X177404715Y-74526268D01*
X177404711Y-74526265D01*
X177264764Y-74432755D01*
X177264755Y-74432750D01*
X177109249Y-74368338D01*
X177109241Y-74368336D01*
X176944165Y-74335500D01*
X176944161Y-74335500D01*
X176775839Y-74335500D01*
X176775834Y-74335500D01*
X176610758Y-74368336D01*
X176610750Y-74368338D01*
X176455244Y-74432750D01*
X176455235Y-74432755D01*
X176315288Y-74526265D01*
X176315284Y-74526268D01*
X176196268Y-74645284D01*
X176196265Y-74645288D01*
X176102755Y-74785235D01*
X176102750Y-74785244D01*
X176038338Y-74940750D01*
X176038336Y-74940758D01*
X176005500Y-75105834D01*
X175714499Y-75105834D01*
X175681662Y-74940751D01*
X175617248Y-74785242D01*
X175617247Y-74785241D01*
X175617244Y-74785235D01*
X175523734Y-74645288D01*
X175523731Y-74645284D01*
X175404715Y-74526268D01*
X175404711Y-74526265D01*
X175264764Y-74432755D01*
X175264755Y-74432750D01*
X175109249Y-74368338D01*
X175109241Y-74368336D01*
X174944165Y-74335500D01*
X174944161Y-74335500D01*
X174775839Y-74335500D01*
X174775834Y-74335500D01*
X174610758Y-74368336D01*
X174610750Y-74368338D01*
X174455244Y-74432750D01*
X174455235Y-74432755D01*
X174315288Y-74526265D01*
X174315284Y-74526268D01*
X174196268Y-74645284D01*
X174196265Y-74645288D01*
X174102755Y-74785235D01*
X174102750Y-74785244D01*
X174038338Y-74940750D01*
X174038336Y-74940758D01*
X174005500Y-75105834D01*
X172750000Y-75105834D01*
X172750000Y-71050000D01*
X178200000Y-71050000D01*
X178599500Y-122403909D01*
G37*
%TD.AperFunction*%
%TD*%
%TA.AperFunction,NonConductor*%
G36*
X172493039Y-87294685D02*
G01*
X172538794Y-87347489D01*
X172550000Y-87399000D01*
X172550000Y-88076000D01*
X172530315Y-88143039D01*
X172477511Y-88188794D01*
X172426000Y-88200000D01*
X171717641Y-88200000D01*
X171650602Y-88180315D01*
X171604847Y-88127511D01*
X171594903Y-88058353D01*
X171603080Y-88028547D01*
X171603617Y-88027251D01*
X171613973Y-88002250D01*
X171650500Y-87818617D01*
X171650500Y-87631384D01*
X171613973Y-87447750D01*
X171613432Y-87446446D01*
X171613353Y-87445709D01*
X171612205Y-87441923D01*
X171612923Y-87441705D01*
X171605968Y-87376977D01*
X171637247Y-87314499D01*
X171697337Y-87278850D01*
X171727997Y-87275000D01*
X172426000Y-87275000D01*
X172493039Y-87294685D01*
G37*
%TD.AperFunction*%
%TA.AperFunction,NonConductor*%
G36*
X172418039Y-118319685D02*
G01*
X172463794Y-118372489D01*
X172475000Y-118424000D01*
X172475000Y-119101000D01*
X172455315Y-119168039D01*
X172402511Y-119213794D01*
X172351000Y-119225000D01*
X171667642Y-119225000D01*
X171600603Y-119205315D01*
X171554848Y-119152511D01*
X171544904Y-119083353D01*
X171553080Y-119053548D01*
X171563973Y-119027251D01*
X171600500Y-118843616D01*
X171600500Y-118656384D01*
X171563973Y-118472749D01*
X171563435Y-118471452D01*
X171563357Y-118470719D01*
X171562205Y-118466922D01*
X171562925Y-118466703D01*
X171555967Y-118401983D01*
X171587242Y-118339504D01*
X171647331Y-118303852D01*
X171677997Y-118300000D01*
X172351000Y-118300000D01*
X172418039Y-118319685D01*
G37*
%TD.AperFunction*%
%TA.AperFunction,NonConductor*%
G36*
X172493039Y-85319685D02*
G01*
X172538794Y-85372489D01*
X172550000Y-85424000D01*
X172550000Y-86101000D01*
X172530315Y-86168039D01*
X172477511Y-86213794D01*
X172426000Y-86225000D01*
X171717642Y-86225000D01*
X171650603Y-86205315D01*
X171604848Y-86152511D01*
X171594904Y-86083353D01*
X171603080Y-86053548D01*
X171613973Y-86027251D01*
X171650500Y-85843616D01*
X171650500Y-85656384D01*
X171613973Y-85472749D01*
X171613435Y-85471452D01*
X171613357Y-85470719D01*
X171612205Y-85466922D01*
X171612925Y-85466703D01*
X171605967Y-85401983D01*
X171637242Y-85339504D01*
X171697331Y-85303852D01*
X171727997Y-85300000D01*
X172426000Y-85300000D01*
X172493039Y-85319685D01*
G37*
%TD.AperFunction*%
%TA.AperFunction,NonConductor*%
G36*
X172493039Y-91319685D02*
G01*
X172538794Y-91372489D01*
X172550000Y-91424000D01*
X172550000Y-92101000D01*
X172530315Y-92168039D01*
X172477511Y-92213794D01*
X172426000Y-92225000D01*
X171717642Y-92225000D01*
X171650603Y-92205315D01*
X171604848Y-92152511D01*
X171594904Y-92083353D01*
X171603080Y-92053548D01*
X171613973Y-92027251D01*
X171650500Y-91843616D01*
X171650500Y-91656384D01*
X171613973Y-91472749D01*
X171613435Y-91471452D01*
X171613357Y-91470719D01*
X171612205Y-91466922D01*
X171612925Y-91466703D01*
X171605967Y-91401983D01*
X171637242Y-91339504D01*
X171697331Y-91303852D01*
X171727997Y-91300000D01*
X172426000Y-91300000D01*
X172493039Y-91319685D01*
G37*
%TD.AperFunction*%
%TA.AperFunction,Conductor*%
%TO.N,GND*%
G36*
X178558691Y-54719407D02*
G01*
X178594655Y-54768907D01*
X178599500Y-54799500D01*
X178599500Y-122403909D01*
X178200000Y-71050000D01*
X177393930Y-71050000D01*
X177430375Y-71018420D01*
X177472553Y-70973687D01*
X177523439Y-70873611D01*
X177543124Y-70806572D01*
X177555500Y-70720500D01*
X177555500Y-70506623D01*
X177555553Y-70503379D01*
X177780412Y-63645168D01*
X178050992Y-55392493D01*
X178044138Y-55317377D01*
X178031189Y-55258011D01*
X178016609Y-55210290D01*
X177956680Y-55115351D01*
X177909163Y-55064127D01*
X177889702Y-55046985D01*
X177863025Y-55023487D01*
X177761279Y-54976019D01*
X177693615Y-54958617D01*
X177607174Y-54949164D01*
X162990235Y-55444654D01*
X162988237Y-55444728D01*
X162987067Y-55444775D01*
X162985609Y-55444838D01*
X162985487Y-55444844D01*
X140488268Y-56467444D01*
X130104837Y-56939418D01*
X130054875Y-56946557D01*
X130046566Y-56947745D01*
X130046564Y-56947745D01*
X130046560Y-56947746D01*
X130000371Y-56958972D01*
X130000337Y-56958981D01*
X129968511Y-56968578D01*
X129968504Y-56968581D01*
X129871766Y-57025543D01*
X129871763Y-57025544D01*
X129871762Y-57025546D01*
X129819094Y-57071457D01*
X129819090Y-57071461D01*
X129819088Y-57071463D01*
X129777050Y-57116312D01*
X129726458Y-57216544D01*
X129706975Y-57283626D01*
X129706974Y-57283630D01*
X129694852Y-57369739D01*
X129694852Y-57369740D01*
X129694852Y-57369743D01*
X129695983Y-57752030D01*
X129696051Y-57775169D01*
X129704697Y-60697497D01*
X129704765Y-60720636D01*
X129713350Y-63622030D01*
X129713418Y-63645169D01*
X129745909Y-74626752D01*
X129745947Y-74639696D01*
X129748355Y-75453433D01*
X129758521Y-78889696D01*
X129859113Y-112889696D01*
X129871649Y-117126752D01*
X129871649Y-117126754D01*
X129871687Y-117139695D01*
X129884282Y-121396752D01*
X129884282Y-121396754D01*
X129884320Y-121409695D01*
X129896894Y-125659696D01*
X129909468Y-129909696D01*
X129922004Y-134146752D01*
X129922004Y-134146754D01*
X129922042Y-134159695D01*
X129934378Y-138329245D01*
X129934378Y-138329246D01*
X129934577Y-138396749D01*
X129934577Y-138396750D01*
X129934615Y-138409695D01*
X129943690Y-141476772D01*
X129945109Y-141489700D01*
X129932663Y-141549606D01*
X129887382Y-141590755D01*
X129846700Y-141599500D01*
X121099500Y-141599500D01*
X121041309Y-141580593D01*
X121005345Y-141531093D01*
X121000500Y-141500500D01*
X121000500Y-54799500D01*
X121019407Y-54741309D01*
X121068907Y-54705345D01*
X121099500Y-54700500D01*
X178500500Y-54700500D01*
X178558691Y-54719407D01*
G37*
%TD.AperFunction*%
%TA.AperFunction,Conductor*%
G36*
X164923166Y-92659207D02*
G01*
X164966431Y-92702472D01*
X164976002Y-92762904D01*
X164975319Y-92766731D01*
X164949500Y-92896531D01*
X164949500Y-97523861D01*
X164930593Y-97582052D01*
X164920504Y-97593865D01*
X162363865Y-100150504D01*
X162309348Y-100178281D01*
X162293861Y-100179500D01*
X158866779Y-100179500D01*
X158808588Y-100160593D01*
X158772624Y-100111093D01*
X158771020Y-100105123D01*
X158717440Y-99943432D01*
X158717439Y-99943430D01*
X158629019Y-99800078D01*
X158509922Y-99680981D01*
X158366569Y-99592560D01*
X158366567Y-99592559D01*
X158206693Y-99539582D01*
X158206683Y-99539579D01*
X158108020Y-99529500D01*
X158108012Y-99529500D01*
X152851988Y-99529500D01*
X152851980Y-99529500D01*
X152753316Y-99539579D01*
X152753306Y-99539582D01*
X152593432Y-99592559D01*
X152593430Y-99592560D01*
X152450079Y-99680980D01*
X152330980Y-99800079D01*
X152242560Y-99943430D01*
X152242559Y-99943432D01*
X152189582Y-100103306D01*
X152189579Y-100103316D01*
X152179500Y-100201980D01*
X152179500Y-102258019D01*
X152189579Y-102356683D01*
X152189580Y-102356689D01*
X152189581Y-102356690D01*
X152242560Y-102516569D01*
X152330981Y-102659922D01*
X152450078Y-102779019D01*
X152593431Y-102867440D01*
X152753310Y-102920419D01*
X152753314Y-102920419D01*
X152753316Y-102920420D01*
X152851980Y-102930500D01*
X152851988Y-102930500D01*
X158108020Y-102930500D01*
X158206683Y-102920420D01*
X158206684Y-102920419D01*
X158206690Y-102920419D01*
X158366569Y-102867440D01*
X158509922Y-102779019D01*
X158629019Y-102659922D01*
X158717440Y-102516569D01*
X158770419Y-102356690D01*
X158770418Y-102356690D01*
X158772119Y-102351560D01*
X158773825Y-102352125D01*
X158800641Y-102305833D01*
X158856573Y-102281028D01*
X158866779Y-102280500D01*
X162536236Y-102280500D01*
X162555550Y-102282402D01*
X162646535Y-102300500D01*
X162646536Y-102300500D01*
X162853464Y-102300500D01*
X162853465Y-102300500D01*
X163056420Y-102260130D01*
X163247598Y-102180941D01*
X163419655Y-102065976D01*
X166669651Y-98815979D01*
X166669655Y-98815977D01*
X166815977Y-98669655D01*
X166930941Y-98497598D01*
X167010130Y-98306420D01*
X167050500Y-98103465D01*
X167050500Y-93476139D01*
X167069407Y-93417948D01*
X167079496Y-93406135D01*
X167656136Y-92829496D01*
X167710653Y-92801719D01*
X167726140Y-92800500D01*
X168780935Y-92800500D01*
X168839126Y-92819407D01*
X168875090Y-92868907D01*
X168875090Y-92930093D01*
X168839126Y-92979593D01*
X168808229Y-92994663D01*
X168803184Y-92996109D01*
X168794343Y-92998645D01*
X168697426Y-93055327D01*
X168644625Y-93101079D01*
X168644624Y-93101080D01*
X168602446Y-93145814D01*
X168551562Y-93245885D01*
X168551559Y-93245892D01*
X168531877Y-93312921D01*
X168531875Y-93312931D01*
X168519500Y-93399000D01*
X168519500Y-94075996D01*
X168526483Y-94140951D01*
X168537681Y-94192425D01*
X168537685Y-94192441D01*
X168537688Y-94192452D01*
X168548646Y-94230658D01*
X168605325Y-94327571D01*
X168618397Y-94342657D01*
X168651075Y-94380370D01*
X168651080Y-94380375D01*
X168695813Y-94422553D01*
X168795889Y-94473439D01*
X168795891Y-94473439D01*
X168795892Y-94473440D01*
X168843155Y-94487318D01*
X168862928Y-94493124D01*
X168949000Y-94505500D01*
X168949001Y-94505500D01*
X169575500Y-94505500D01*
X169633691Y-94524407D01*
X169669655Y-94573907D01*
X169674500Y-94604500D01*
X169674500Y-97798861D01*
X169655593Y-97857052D01*
X169645504Y-97868865D01*
X163113865Y-104400504D01*
X163059348Y-104428281D01*
X163043861Y-104429500D01*
X158866779Y-104429500D01*
X158808588Y-104410593D01*
X158772624Y-104361093D01*
X158771020Y-104355123D01*
X158717440Y-104193432D01*
X158717439Y-104193430D01*
X158629019Y-104050078D01*
X158509922Y-103930981D01*
X158366569Y-103842560D01*
X158366567Y-103842559D01*
X158206693Y-103789582D01*
X158206683Y-103789579D01*
X158108020Y-103779500D01*
X158108012Y-103779500D01*
X152851988Y-103779500D01*
X152851980Y-103779500D01*
X152753316Y-103789579D01*
X152753306Y-103789582D01*
X152593432Y-103842559D01*
X152593430Y-103842560D01*
X152450079Y-103930980D01*
X152330980Y-104050079D01*
X152242560Y-104193430D01*
X152242559Y-104193432D01*
X152189582Y-104353306D01*
X152189579Y-104353316D01*
X152179500Y-104451980D01*
X152179500Y-106508019D01*
X152189579Y-106606683D01*
X152189582Y-106606693D01*
X152232427Y-106735992D01*
X152242560Y-106766569D01*
X152330981Y-106909922D01*
X152450078Y-107029019D01*
X152593431Y-107117440D01*
X152753310Y-107170419D01*
X152753314Y-107170419D01*
X152753316Y-107170420D01*
X152851980Y-107180500D01*
X152851988Y-107180500D01*
X158108020Y-107180500D01*
X158206683Y-107170420D01*
X158206684Y-107170419D01*
X158206690Y-107170419D01*
X158366569Y-107117440D01*
X158509922Y-107029019D01*
X158629019Y-106909922D01*
X158717440Y-106766569D01*
X158770419Y-106606690D01*
X158770578Y-106605132D01*
X158772728Y-106598591D01*
X158787823Y-106577960D01*
X158800641Y-106555833D01*
X158805633Y-106553618D01*
X158808858Y-106549212D01*
X158833201Y-106541393D01*
X158856573Y-106531028D01*
X158866779Y-106530500D01*
X163623464Y-106530500D01*
X163623465Y-106530500D01*
X163826420Y-106490130D01*
X164017598Y-106410941D01*
X164189655Y-106295977D01*
X164335977Y-106149655D01*
X164335979Y-106149651D01*
X171565976Y-98919655D01*
X171680941Y-98747598D01*
X171760130Y-98556420D01*
X171800500Y-98353465D01*
X171800500Y-98146535D01*
X171776839Y-98027583D01*
X171776441Y-98024715D01*
X171776698Y-98023268D01*
X171775500Y-98011098D01*
X171775500Y-94604500D01*
X171794407Y-94546309D01*
X171843907Y-94510345D01*
X171874500Y-94505500D01*
X172425996Y-94505500D01*
X172426000Y-94505500D01*
X172490941Y-94498518D01*
X172490949Y-94498516D01*
X172490951Y-94498516D01*
X172542425Y-94487318D01*
X172542426Y-94487317D01*
X172542452Y-94487312D01*
X172580658Y-94476354D01*
X172677571Y-94419675D01*
X172730375Y-94373920D01*
X172750000Y-94353106D01*
X172750000Y-101000000D01*
X170500000Y-102250000D01*
X170500000Y-108500000D01*
X172750000Y-110000000D01*
X172998815Y-141599500D01*
X151923021Y-141599500D01*
X151864830Y-141580593D01*
X151828866Y-141531093D01*
X151825076Y-141486085D01*
X151825198Y-141485253D01*
X151826421Y-141476948D01*
X151836623Y-138449500D01*
X151893837Y-121471980D01*
X152119500Y-121471980D01*
X152119500Y-123528019D01*
X152129579Y-123626683D01*
X152129582Y-123626693D01*
X152177112Y-123770130D01*
X152182560Y-123786569D01*
X152270981Y-123929922D01*
X152390078Y-124049019D01*
X152533431Y-124137440D01*
X152693310Y-124190419D01*
X152693314Y-124190419D01*
X152693316Y-124190420D01*
X152791980Y-124200500D01*
X152791988Y-124200500D01*
X158048020Y-124200500D01*
X158146683Y-124190420D01*
X158146684Y-124190419D01*
X158146690Y-124190419D01*
X158306569Y-124137440D01*
X158449922Y-124049019D01*
X158569019Y-123929922D01*
X158657440Y-123786569D01*
X158710419Y-123626690D01*
X158710418Y-123626690D01*
X158712119Y-123621560D01*
X158713825Y-123622125D01*
X158740641Y-123575833D01*
X158796573Y-123551028D01*
X158806779Y-123550500D01*
X161023878Y-123550500D01*
X161082069Y-123569407D01*
X161086676Y-123572967D01*
X161090338Y-123575971D01*
X161090341Y-123575973D01*
X161090345Y-123575977D01*
X161166232Y-123626683D01*
X161262394Y-123690938D01*
X161262406Y-123690944D01*
X161291403Y-123702954D01*
X161392496Y-123744828D01*
X161453580Y-123770130D01*
X161475545Y-123774499D01*
X161656535Y-123810501D01*
X161656536Y-123810501D01*
X161868346Y-123810501D01*
X161868366Y-123810500D01*
X164714861Y-123810500D01*
X164773052Y-123829407D01*
X164809016Y-123878907D01*
X164809016Y-123940093D01*
X164784864Y-123979504D01*
X164684022Y-124080344D01*
X164684023Y-124080345D01*
X164684020Y-124080348D01*
X163093865Y-125670504D01*
X163039348Y-125698281D01*
X163023861Y-125699500D01*
X158806779Y-125699500D01*
X158748588Y-125680593D01*
X158712624Y-125631093D01*
X158711020Y-125625123D01*
X158677350Y-125523516D01*
X158657440Y-125463431D01*
X158569019Y-125320078D01*
X158449922Y-125200981D01*
X158306569Y-125112560D01*
X158306567Y-125112559D01*
X158146693Y-125059582D01*
X158146683Y-125059579D01*
X158048020Y-125049500D01*
X158048012Y-125049500D01*
X152791988Y-125049500D01*
X152791980Y-125049500D01*
X152693316Y-125059579D01*
X152693306Y-125059582D01*
X152533432Y-125112559D01*
X152533430Y-125112560D01*
X152390079Y-125200980D01*
X152270980Y-125320079D01*
X152182560Y-125463430D01*
X152182559Y-125463432D01*
X152129582Y-125623306D01*
X152129579Y-125623316D01*
X152119500Y-125721980D01*
X152119500Y-127778019D01*
X152129579Y-127876683D01*
X152129582Y-127876693D01*
X152179243Y-128026561D01*
X152182560Y-128036569D01*
X152270981Y-128179922D01*
X152390078Y-128299019D01*
X152533431Y-128387440D01*
X152693310Y-128440419D01*
X152693314Y-128440419D01*
X152693316Y-128440420D01*
X152791980Y-128450500D01*
X152791988Y-128450500D01*
X158048020Y-128450500D01*
X158146683Y-128440420D01*
X158146684Y-128440419D01*
X158146690Y-128440419D01*
X158306569Y-128387440D01*
X158449922Y-128299019D01*
X158569019Y-128179922D01*
X158657440Y-128036569D01*
X158710419Y-127876690D01*
X158710418Y-127876690D01*
X158712119Y-127871560D01*
X158713825Y-127872125D01*
X158740641Y-127825833D01*
X158796573Y-127801028D01*
X158806779Y-127800500D01*
X163603464Y-127800500D01*
X163603465Y-127800500D01*
X163733269Y-127774680D01*
X163794028Y-127781872D01*
X163838958Y-127823404D01*
X163850895Y-127883414D01*
X163825279Y-127938979D01*
X163822585Y-127941782D01*
X161843865Y-129920504D01*
X161789348Y-129948281D01*
X161773861Y-129949500D01*
X158806779Y-129949500D01*
X158748588Y-129930593D01*
X158712624Y-129881093D01*
X158711020Y-129875123D01*
X158684158Y-129794059D01*
X158657440Y-129713431D01*
X158569019Y-129570078D01*
X158449922Y-129450981D01*
X158306569Y-129362560D01*
X158306567Y-129362559D01*
X158146693Y-129309582D01*
X158146683Y-129309579D01*
X158048020Y-129299500D01*
X158048012Y-129299500D01*
X152791988Y-129299500D01*
X152791980Y-129299500D01*
X152693316Y-129309579D01*
X152693306Y-129309582D01*
X152533432Y-129362559D01*
X152533430Y-129362560D01*
X152390079Y-129450980D01*
X152270980Y-129570079D01*
X152182560Y-129713430D01*
X152182559Y-129713432D01*
X152129582Y-129873306D01*
X152129579Y-129873316D01*
X152119500Y-129971979D01*
X152119500Y-132028019D01*
X152129579Y-132126683D01*
X152129580Y-132126689D01*
X152129581Y-132126690D01*
X152182560Y-132286569D01*
X152270981Y-132429922D01*
X152390078Y-132549019D01*
X152533431Y-132637440D01*
X152693310Y-132690419D01*
X152693314Y-132690419D01*
X152693316Y-132690420D01*
X152791980Y-132700500D01*
X152791988Y-132700500D01*
X158048020Y-132700500D01*
X158146683Y-132690420D01*
X158146684Y-132690419D01*
X158146690Y-132690419D01*
X158306569Y-132637440D01*
X158449922Y-132549019D01*
X158569019Y-132429922D01*
X158657440Y-132286569D01*
X158710419Y-132126690D01*
X158710418Y-132126690D01*
X158712119Y-132121560D01*
X158713825Y-132122125D01*
X158740641Y-132075833D01*
X158796573Y-132051028D01*
X158806779Y-132050500D01*
X162353464Y-132050500D01*
X162353465Y-132050500D01*
X162556420Y-132010130D01*
X162747598Y-131930941D01*
X162919655Y-131815977D01*
X163065977Y-131669655D01*
X163065978Y-131669652D01*
X166906136Y-127829496D01*
X166960653Y-127801719D01*
X166976140Y-127800500D01*
X167224860Y-127800500D01*
X167283051Y-127819407D01*
X167319015Y-127868907D01*
X167319015Y-127930093D01*
X167294863Y-127969504D01*
X164188369Y-131076000D01*
X161093865Y-134170504D01*
X161039348Y-134198281D01*
X161023861Y-134199500D01*
X158806779Y-134199500D01*
X158748588Y-134180593D01*
X158712624Y-134131093D01*
X158711020Y-134125123D01*
X158676071Y-134019655D01*
X158657440Y-133963431D01*
X158569019Y-133820078D01*
X158449922Y-133700981D01*
X158306569Y-133612560D01*
X158306567Y-133612559D01*
X158146693Y-133559582D01*
X158146683Y-133559579D01*
X158048020Y-133549500D01*
X158048012Y-133549500D01*
X152791988Y-133549500D01*
X152791980Y-133549500D01*
X152693316Y-133559579D01*
X152693306Y-133559582D01*
X152533432Y-133612559D01*
X152533430Y-133612560D01*
X152390079Y-133700980D01*
X152270980Y-133820079D01*
X152182560Y-133963430D01*
X152182559Y-133963432D01*
X152129582Y-134123306D01*
X152129579Y-134123316D01*
X152119500Y-134221980D01*
X152119500Y-136278019D01*
X152129579Y-136376683D01*
X152129580Y-136376689D01*
X152129581Y-136376690D01*
X152182560Y-136536569D01*
X152270981Y-136679922D01*
X152390078Y-136799019D01*
X152533431Y-136887440D01*
X152693310Y-136940419D01*
X152693314Y-136940419D01*
X152693316Y-136940420D01*
X152791980Y-136950500D01*
X152791988Y-136950500D01*
X158048020Y-136950500D01*
X158146683Y-136940420D01*
X158146684Y-136940419D01*
X158146690Y-136940419D01*
X158306569Y-136887440D01*
X158449922Y-136799019D01*
X158569019Y-136679922D01*
X158657440Y-136536569D01*
X158710419Y-136376690D01*
X158710418Y-136376690D01*
X158712119Y-136371560D01*
X158713825Y-136372125D01*
X158740641Y-136325833D01*
X158796573Y-136301028D01*
X158806779Y-136300500D01*
X161603464Y-136300500D01*
X161603465Y-136300500D01*
X161806420Y-136260130D01*
X161997598Y-136180941D01*
X161997598Y-136180940D01*
X161997600Y-136180940D01*
X162005192Y-136175867D01*
X162169655Y-136065977D01*
X162315977Y-135919655D01*
X162315978Y-135919652D01*
X168381136Y-129854496D01*
X168435653Y-129826719D01*
X168451140Y-129825500D01*
X168650021Y-129825500D01*
X168708212Y-129844407D01*
X168744176Y-129893907D01*
X168744176Y-129955093D01*
X168708212Y-130004593D01*
X168700008Y-130009952D01*
X168648277Y-130040208D01*
X168622426Y-130055327D01*
X168569625Y-130101079D01*
X168569624Y-130101080D01*
X168527446Y-130145814D01*
X168476562Y-130245885D01*
X168476559Y-130245892D01*
X168456877Y-130312921D01*
X168456875Y-130312931D01*
X168444500Y-130399000D01*
X168444500Y-131075996D01*
X168451483Y-131140951D01*
X168462681Y-131192425D01*
X168462685Y-131192441D01*
X168462688Y-131192452D01*
X168473646Y-131230658D01*
X168530325Y-131327571D01*
X168543397Y-131342657D01*
X168576075Y-131380370D01*
X168576080Y-131380375D01*
X168620813Y-131422553D01*
X168720889Y-131473439D01*
X168720891Y-131473439D01*
X168720892Y-131473440D01*
X168768155Y-131487318D01*
X168787928Y-131493124D01*
X168874000Y-131505500D01*
X168874001Y-131505500D01*
X169500500Y-131505500D01*
X169558691Y-131524407D01*
X169594655Y-131573907D01*
X169599500Y-131604500D01*
X169599500Y-132873861D01*
X169580593Y-132932052D01*
X169570504Y-132943865D01*
X164093865Y-138420504D01*
X164039348Y-138448281D01*
X164023861Y-138449500D01*
X158886779Y-138449500D01*
X158828588Y-138430593D01*
X158792624Y-138381093D01*
X158791020Y-138375123D01*
X158737440Y-138213432D01*
X158737439Y-138213430D01*
X158649019Y-138070078D01*
X158529922Y-137950981D01*
X158386569Y-137862560D01*
X158386567Y-137862559D01*
X158226693Y-137809582D01*
X158226683Y-137809579D01*
X158128020Y-137799500D01*
X158128012Y-137799500D01*
X152871988Y-137799500D01*
X152871980Y-137799500D01*
X152773316Y-137809579D01*
X152773306Y-137809582D01*
X152613432Y-137862559D01*
X152613430Y-137862560D01*
X152470079Y-137950980D01*
X152350980Y-138070079D01*
X152262560Y-138213430D01*
X152262559Y-138213432D01*
X152209582Y-138373306D01*
X152209579Y-138373316D01*
X152199500Y-138471980D01*
X152199500Y-140528019D01*
X152209579Y-140626683D01*
X152209580Y-140626689D01*
X152209581Y-140626690D01*
X152262560Y-140786569D01*
X152350981Y-140929922D01*
X152470078Y-141049019D01*
X152613431Y-141137440D01*
X152773310Y-141190419D01*
X152773314Y-141190419D01*
X152773316Y-141190420D01*
X152871980Y-141200500D01*
X152871988Y-141200500D01*
X158128020Y-141200500D01*
X158226683Y-141190420D01*
X158226684Y-141190419D01*
X158226690Y-141190419D01*
X158386569Y-141137440D01*
X158529922Y-141049019D01*
X158649019Y-140929922D01*
X158737440Y-140786569D01*
X158790419Y-140626690D01*
X158790418Y-140626690D01*
X158792119Y-140621560D01*
X158793825Y-140622125D01*
X158820641Y-140575833D01*
X158876573Y-140551028D01*
X158886779Y-140550500D01*
X164603464Y-140550500D01*
X164603465Y-140550500D01*
X164806420Y-140510130D01*
X164997598Y-140430941D01*
X165169655Y-140315977D01*
X165315977Y-140169655D01*
X165315979Y-140169651D01*
X171319651Y-134165979D01*
X171319655Y-134165977D01*
X171465977Y-134019655D01*
X171580941Y-133847598D01*
X171660130Y-133656420D01*
X171700500Y-133453465D01*
X171700500Y-131604500D01*
X171719407Y-131546309D01*
X171768907Y-131510345D01*
X171799500Y-131505500D01*
X172350996Y-131505500D01*
X172351000Y-131505500D01*
X172415941Y-131498518D01*
X172415949Y-131498516D01*
X172415951Y-131498516D01*
X172467425Y-131487318D01*
X172467426Y-131487317D01*
X172467452Y-131487312D01*
X172505658Y-131476354D01*
X172602571Y-131419675D01*
X172655375Y-131373920D01*
X172697553Y-131329187D01*
X172748439Y-131229111D01*
X172768124Y-131162072D01*
X172780500Y-131076000D01*
X172780500Y-130399000D01*
X172773518Y-130334059D01*
X172762312Y-130282548D01*
X172751354Y-130244342D01*
X172694675Y-130147429D01*
X172648920Y-130094625D01*
X172604187Y-130052447D01*
X172578817Y-130039547D01*
X172504114Y-130001562D01*
X172504107Y-130001559D01*
X172437078Y-129981877D01*
X172437068Y-129981875D01*
X172367566Y-129971882D01*
X172351000Y-129969500D01*
X171677997Y-129969500D01*
X171650306Y-129971232D01*
X171639919Y-129971882D01*
X171639905Y-129971883D01*
X171609264Y-129975732D01*
X171596883Y-129977546D01*
X171596882Y-129977546D01*
X171503413Y-130011738D01*
X171442269Y-130013972D01*
X171399400Y-129988767D01*
X171319654Y-129909022D01*
X171204854Y-129832316D01*
X171166974Y-129784266D01*
X171164572Y-129723128D01*
X171198564Y-129672254D01*
X171204854Y-129667684D01*
X171319655Y-129590977D01*
X171399362Y-129511268D01*
X171453878Y-129483491D01*
X171514238Y-129493025D01*
X171524882Y-129498437D01*
X171524886Y-129498439D01*
X171524888Y-129498439D01*
X171524889Y-129498440D01*
X171572152Y-129512318D01*
X171591925Y-129518124D01*
X171677997Y-129530500D01*
X171677998Y-129530500D01*
X172375996Y-129530500D01*
X172376000Y-129530500D01*
X172440941Y-129523518D01*
X172440949Y-129523516D01*
X172440951Y-129523516D01*
X172492425Y-129512318D01*
X172492426Y-129512317D01*
X172492452Y-129512312D01*
X172530658Y-129501354D01*
X172627571Y-129444675D01*
X172680375Y-129398920D01*
X172722553Y-129354187D01*
X172773439Y-129254111D01*
X172793124Y-129187072D01*
X172805500Y-129101000D01*
X172805500Y-128424000D01*
X172798518Y-128359059D01*
X172787312Y-128307548D01*
X172776354Y-128269342D01*
X172719675Y-128172429D01*
X172673920Y-128119625D01*
X172629187Y-128077447D01*
X172561233Y-128042894D01*
X172529114Y-128026562D01*
X172529107Y-128026559D01*
X172462078Y-128006877D01*
X172462068Y-128006875D01*
X172392559Y-127996881D01*
X172376000Y-127994500D01*
X171667642Y-127994500D01*
X171629575Y-127996881D01*
X171629547Y-127996884D01*
X171598932Y-128000728D01*
X171586533Y-128002544D01*
X171586531Y-128002544D01*
X171586529Y-128002545D01*
X171545131Y-128017689D01*
X171482336Y-128040660D01*
X171421191Y-128042894D01*
X171378322Y-128017689D01*
X171319654Y-127959022D01*
X171206497Y-127883414D01*
X171148728Y-127844814D01*
X171110850Y-127796766D01*
X171108448Y-127735628D01*
X171142440Y-127684754D01*
X171148719Y-127680191D01*
X171319655Y-127565977D01*
X171379299Y-127506331D01*
X171433815Y-127478554D01*
X171494172Y-127488087D01*
X171514531Y-127498439D01*
X171581570Y-127518124D01*
X171667642Y-127530500D01*
X171667643Y-127530500D01*
X172400996Y-127530500D01*
X172401000Y-127530500D01*
X172465941Y-127523518D01*
X172465949Y-127523516D01*
X172465951Y-127523516D01*
X172517425Y-127512318D01*
X172517426Y-127512317D01*
X172517452Y-127512312D01*
X172555658Y-127501354D01*
X172652571Y-127444675D01*
X172705375Y-127398920D01*
X172747553Y-127354187D01*
X172798439Y-127254111D01*
X172818124Y-127187072D01*
X172830500Y-127101000D01*
X172830500Y-126424000D01*
X172823518Y-126359059D01*
X172812312Y-126307548D01*
X172801354Y-126269342D01*
X172744675Y-126172429D01*
X172698920Y-126119625D01*
X172654187Y-126077447D01*
X172630117Y-126065208D01*
X172554114Y-126026562D01*
X172554107Y-126026559D01*
X172487078Y-126006877D01*
X172487068Y-126006875D01*
X172417566Y-125996882D01*
X172401000Y-125994500D01*
X171677997Y-125994500D01*
X171650306Y-125996232D01*
X171639919Y-125996882D01*
X171639905Y-125996883D01*
X171609264Y-126000732D01*
X171596883Y-126002546D01*
X171596882Y-126002546D01*
X171503413Y-126036738D01*
X171442269Y-126038972D01*
X171399400Y-126013767D01*
X171319654Y-125934022D01*
X171182438Y-125842338D01*
X171144558Y-125794288D01*
X171142156Y-125733150D01*
X171176148Y-125682276D01*
X171182420Y-125677718D01*
X171349655Y-125565977D01*
X171409299Y-125506331D01*
X171463815Y-125478554D01*
X171524172Y-125488087D01*
X171544531Y-125498439D01*
X171611570Y-125518124D01*
X171697642Y-125530500D01*
X171697643Y-125530500D01*
X172375996Y-125530500D01*
X172376000Y-125530500D01*
X172440941Y-125523518D01*
X172440949Y-125523516D01*
X172440951Y-125523516D01*
X172492425Y-125512318D01*
X172492426Y-125512317D01*
X172492452Y-125512312D01*
X172530658Y-125501354D01*
X172627571Y-125444675D01*
X172680375Y-125398920D01*
X172722553Y-125354187D01*
X172773439Y-125254111D01*
X172793124Y-125187072D01*
X172805500Y-125101000D01*
X172805500Y-124424000D01*
X172798518Y-124359059D01*
X172787312Y-124307548D01*
X172776354Y-124269342D01*
X172719675Y-124172429D01*
X172673920Y-124119625D01*
X172629187Y-124077447D01*
X172605117Y-124065208D01*
X172529114Y-124026562D01*
X172529107Y-124026559D01*
X172462078Y-124006877D01*
X172462068Y-124006875D01*
X172392566Y-123996882D01*
X172376000Y-123994500D01*
X171707997Y-123994500D01*
X171680306Y-123996232D01*
X171669919Y-123996882D01*
X171669905Y-123996883D01*
X171639264Y-124000732D01*
X171626883Y-124002546D01*
X171626882Y-124002546D01*
X171533413Y-124036738D01*
X171472269Y-124038972D01*
X171429400Y-124013767D01*
X171349654Y-123934022D01*
X171179921Y-123820611D01*
X171142041Y-123772561D01*
X171139639Y-123711423D01*
X171173631Y-123660549D01*
X171179901Y-123655993D01*
X171299655Y-123575977D01*
X171367327Y-123508303D01*
X171421840Y-123480528D01*
X171482197Y-123490061D01*
X171498673Y-123498439D01*
X171565712Y-123518124D01*
X171651784Y-123530500D01*
X171651785Y-123530500D01*
X172400996Y-123530500D01*
X172401000Y-123530500D01*
X172465941Y-123523518D01*
X172465949Y-123523516D01*
X172465951Y-123523516D01*
X172517425Y-123512318D01*
X172517426Y-123512317D01*
X172517452Y-123512312D01*
X172555658Y-123501354D01*
X172652571Y-123444675D01*
X172705375Y-123398920D01*
X172747553Y-123354187D01*
X172798439Y-123254111D01*
X172818124Y-123187072D01*
X172830500Y-123101000D01*
X172830500Y-122424000D01*
X172823518Y-122359059D01*
X172812312Y-122307548D01*
X172801354Y-122269342D01*
X172744675Y-122172429D01*
X172698920Y-122119625D01*
X172654187Y-122077447D01*
X172634406Y-122067389D01*
X172554114Y-122026562D01*
X172554107Y-122026559D01*
X172487078Y-122006877D01*
X172487068Y-122006875D01*
X172417566Y-121996882D01*
X172401000Y-121994500D01*
X171653855Y-121994500D01*
X171626163Y-121996232D01*
X171615776Y-121996882D01*
X171615758Y-121996884D01*
X171585099Y-122000735D01*
X171572751Y-122002544D01*
X171572746Y-122002545D01*
X171474980Y-122038307D01*
X171413835Y-122040541D01*
X171370969Y-122015337D01*
X171299655Y-121944023D01*
X171299651Y-121944020D01*
X171149955Y-121843997D01*
X171112075Y-121795947D01*
X171109673Y-121734809D01*
X171143666Y-121683935D01*
X171149935Y-121679378D01*
X171319655Y-121565977D01*
X171399362Y-121486268D01*
X171453878Y-121458491D01*
X171514238Y-121468025D01*
X171522032Y-121471988D01*
X171524886Y-121473439D01*
X171524888Y-121473439D01*
X171524889Y-121473440D01*
X171572152Y-121487318D01*
X171591925Y-121493124D01*
X171677997Y-121505500D01*
X171677998Y-121505500D01*
X172400996Y-121505500D01*
X172401000Y-121505500D01*
X172465941Y-121498518D01*
X172465949Y-121498516D01*
X172465951Y-121498516D01*
X172517425Y-121487318D01*
X172517426Y-121487317D01*
X172517452Y-121487312D01*
X172555658Y-121476354D01*
X172652571Y-121419675D01*
X172705375Y-121373920D01*
X172747553Y-121329187D01*
X172798439Y-121229111D01*
X172818124Y-121162072D01*
X172830500Y-121076000D01*
X172830500Y-120399000D01*
X172823518Y-120334059D01*
X172812312Y-120282548D01*
X172801354Y-120244342D01*
X172744675Y-120147429D01*
X172698920Y-120094625D01*
X172654187Y-120052447D01*
X172586233Y-120017894D01*
X172554114Y-120001562D01*
X172554107Y-120001559D01*
X172487078Y-119981877D01*
X172487068Y-119981875D01*
X172417559Y-119971881D01*
X172401000Y-119969500D01*
X171667642Y-119969500D01*
X171629575Y-119971881D01*
X171629547Y-119971884D01*
X171598932Y-119975728D01*
X171586533Y-119977544D01*
X171586531Y-119977544D01*
X171586529Y-119977545D01*
X171545131Y-119992689D01*
X171482336Y-120015660D01*
X171421191Y-120017894D01*
X171378322Y-119992689D01*
X171319654Y-119934022D01*
X171220004Y-119867439D01*
X171167437Y-119832315D01*
X171129558Y-119784266D01*
X171127156Y-119723128D01*
X171161148Y-119672254D01*
X171167430Y-119667689D01*
X171319655Y-119565977D01*
X171379299Y-119506331D01*
X171433815Y-119478554D01*
X171494172Y-119488087D01*
X171514531Y-119498439D01*
X171581570Y-119518124D01*
X171667642Y-119530500D01*
X171667643Y-119530500D01*
X172350996Y-119530500D01*
X172351000Y-119530500D01*
X172415941Y-119523518D01*
X172415949Y-119523516D01*
X172415951Y-119523516D01*
X172467425Y-119512318D01*
X172467426Y-119512317D01*
X172467452Y-119512312D01*
X172505658Y-119501354D01*
X172602571Y-119444675D01*
X172655375Y-119398920D01*
X172697553Y-119354187D01*
X172748439Y-119254111D01*
X172768124Y-119187072D01*
X172780500Y-119101000D01*
X172780500Y-118424000D01*
X172773518Y-118359059D01*
X172762312Y-118307548D01*
X172751354Y-118269342D01*
X172694675Y-118172429D01*
X172648920Y-118119625D01*
X172604187Y-118077447D01*
X172580117Y-118065208D01*
X172504114Y-118026562D01*
X172504107Y-118026559D01*
X172437078Y-118006877D01*
X172437068Y-118006875D01*
X172367566Y-117996882D01*
X172351000Y-117994500D01*
X171677997Y-117994500D01*
X171650306Y-117996232D01*
X171639919Y-117996882D01*
X171639905Y-117996883D01*
X171609264Y-118000732D01*
X171596883Y-118002546D01*
X171596882Y-118002546D01*
X171503413Y-118036738D01*
X171442269Y-118038972D01*
X171399400Y-118013767D01*
X171319654Y-117934022D01*
X171192314Y-117848937D01*
X171154434Y-117800887D01*
X171152032Y-117739749D01*
X171186024Y-117688875D01*
X171193698Y-117683858D01*
X171193554Y-117683643D01*
X171213218Y-117670504D01*
X171369655Y-117565977D01*
X171515977Y-117419655D01*
X171630941Y-117247598D01*
X171710130Y-117056420D01*
X171750500Y-116853465D01*
X171750500Y-116646535D01*
X171710130Y-116443580D01*
X171630941Y-116252402D01*
X171515977Y-116080345D01*
X171369655Y-115934023D01*
X171197598Y-115819059D01*
X171197599Y-115819059D01*
X171197597Y-115819058D01*
X171006418Y-115739869D01*
X170803467Y-115699500D01*
X170803465Y-115699500D01*
X167726139Y-115699500D01*
X167667948Y-115680593D01*
X167656135Y-115670504D01*
X161045979Y-109060348D01*
X161045977Y-109060345D01*
X160899655Y-108914023D01*
X160727598Y-108799059D01*
X160727599Y-108799059D01*
X160727597Y-108799058D01*
X160536418Y-108719869D01*
X160333467Y-108679500D01*
X160333465Y-108679500D01*
X158841779Y-108679500D01*
X158783588Y-108660593D01*
X158747624Y-108611093D01*
X158746020Y-108605123D01*
X158692440Y-108443432D01*
X158692439Y-108443430D01*
X158604019Y-108300078D01*
X158484922Y-108180981D01*
X158341569Y-108092560D01*
X158341567Y-108092559D01*
X158181693Y-108039582D01*
X158181683Y-108039579D01*
X158083020Y-108029500D01*
X158083012Y-108029500D01*
X152826988Y-108029500D01*
X152826980Y-108029500D01*
X152728316Y-108039579D01*
X152728306Y-108039582D01*
X152568432Y-108092559D01*
X152568430Y-108092560D01*
X152425079Y-108180980D01*
X152305980Y-108300079D01*
X152217560Y-108443430D01*
X152217559Y-108443432D01*
X152164582Y-108603306D01*
X152164579Y-108603316D01*
X152154500Y-108701980D01*
X152154500Y-110758019D01*
X152164579Y-110856683D01*
X152164580Y-110856689D01*
X152164581Y-110856690D01*
X152217560Y-111016569D01*
X152305981Y-111159922D01*
X152425078Y-111279019D01*
X152568431Y-111367440D01*
X152728310Y-111420419D01*
X152728314Y-111420419D01*
X152728316Y-111420420D01*
X152826980Y-111430500D01*
X152826988Y-111430500D01*
X158083020Y-111430500D01*
X158181683Y-111420420D01*
X158181684Y-111420419D01*
X158181690Y-111420419D01*
X158341569Y-111367440D01*
X158484922Y-111279019D01*
X158604019Y-111159922D01*
X158692440Y-111016569D01*
X158745419Y-110856690D01*
X158745418Y-110856690D01*
X158747119Y-110851560D01*
X158748825Y-110852125D01*
X158775641Y-110805833D01*
X158831573Y-110781028D01*
X158841779Y-110780500D01*
X159753861Y-110780500D01*
X159812052Y-110799407D01*
X159823865Y-110809496D01*
X166434020Y-117419651D01*
X166434023Y-117419655D01*
X166544866Y-117530498D01*
X166572642Y-117585013D01*
X166563071Y-117645445D01*
X166519806Y-117688710D01*
X166474861Y-117699500D01*
X165976140Y-117699500D01*
X165917949Y-117680593D01*
X165906136Y-117670504D01*
X161545978Y-113310347D01*
X161545977Y-113310345D01*
X161399655Y-113164023D01*
X161375404Y-113147819D01*
X161227597Y-113049058D01*
X161036418Y-112969869D01*
X160833467Y-112929500D01*
X160833465Y-112929500D01*
X158841779Y-112929500D01*
X158783588Y-112910593D01*
X158747624Y-112861093D01*
X158746020Y-112855123D01*
X158692440Y-112693432D01*
X158692439Y-112693430D01*
X158685465Y-112682123D01*
X158604019Y-112550078D01*
X158484922Y-112430981D01*
X158341569Y-112342560D01*
X158341567Y-112342559D01*
X158181693Y-112289582D01*
X158181683Y-112289579D01*
X158083020Y-112279500D01*
X158083012Y-112279500D01*
X152826988Y-112279500D01*
X152826980Y-112279500D01*
X152728316Y-112289579D01*
X152728306Y-112289582D01*
X152568432Y-112342559D01*
X152568430Y-112342560D01*
X152425079Y-112430980D01*
X152305980Y-112550079D01*
X152217560Y-112693430D01*
X152217559Y-112693432D01*
X152164582Y-112853306D01*
X152164579Y-112853316D01*
X152154500Y-112951980D01*
X152154500Y-115008019D01*
X152164579Y-115106683D01*
X152164580Y-115106689D01*
X152164581Y-115106690D01*
X152217560Y-115266569D01*
X152305981Y-115409922D01*
X152425078Y-115529019D01*
X152568431Y-115617440D01*
X152728310Y-115670419D01*
X152728314Y-115670419D01*
X152728316Y-115670420D01*
X152826980Y-115680500D01*
X152826988Y-115680500D01*
X158083020Y-115680500D01*
X158181683Y-115670420D01*
X158181684Y-115670419D01*
X158181690Y-115670419D01*
X158341569Y-115617440D01*
X158484922Y-115529019D01*
X158604019Y-115409922D01*
X158692440Y-115266569D01*
X158745419Y-115106690D01*
X158745418Y-115106690D01*
X158747119Y-115101560D01*
X158748825Y-115102125D01*
X158775641Y-115055833D01*
X158831573Y-115031028D01*
X158841779Y-115030500D01*
X160253861Y-115030500D01*
X160312052Y-115049407D01*
X160323865Y-115059496D01*
X164794864Y-119530496D01*
X164822641Y-119585013D01*
X164813070Y-119645445D01*
X164769805Y-119688710D01*
X164724860Y-119699500D01*
X163726139Y-119699500D01*
X163667948Y-119680593D01*
X163656135Y-119670504D01*
X161545979Y-117560348D01*
X161545977Y-117560345D01*
X161399655Y-117414023D01*
X161227598Y-117299059D01*
X161227599Y-117299059D01*
X161227597Y-117299058D01*
X161036418Y-117219869D01*
X160833467Y-117179500D01*
X160833465Y-117179500D01*
X158841779Y-117179500D01*
X158783588Y-117160593D01*
X158747624Y-117111093D01*
X158746020Y-117105123D01*
X158692440Y-116943432D01*
X158692439Y-116943430D01*
X158604019Y-116800078D01*
X158484922Y-116680981D01*
X158341569Y-116592560D01*
X158341567Y-116592559D01*
X158181693Y-116539582D01*
X158181683Y-116539579D01*
X158083020Y-116529500D01*
X158083012Y-116529500D01*
X152826988Y-116529500D01*
X152826980Y-116529500D01*
X152728316Y-116539579D01*
X152728306Y-116539582D01*
X152568432Y-116592559D01*
X152568430Y-116592560D01*
X152425079Y-116680980D01*
X152305980Y-116800079D01*
X152217560Y-116943430D01*
X152217559Y-116943432D01*
X152164582Y-117103306D01*
X152164579Y-117103316D01*
X152154500Y-117201980D01*
X152154500Y-119258019D01*
X152164579Y-119356683D01*
X152164582Y-119356693D01*
X152214167Y-119506332D01*
X152217560Y-119516569D01*
X152305981Y-119659922D01*
X152425078Y-119779019D01*
X152568431Y-119867440D01*
X152728310Y-119920419D01*
X152728314Y-119920419D01*
X152728316Y-119920420D01*
X152826980Y-119930500D01*
X152826988Y-119930500D01*
X158083020Y-119930500D01*
X158181683Y-119920420D01*
X158181684Y-119920419D01*
X158181690Y-119920419D01*
X158341569Y-119867440D01*
X158484922Y-119779019D01*
X158604019Y-119659922D01*
X158692440Y-119516569D01*
X158745419Y-119356690D01*
X158745418Y-119356690D01*
X158747119Y-119351560D01*
X158748825Y-119352125D01*
X158775641Y-119305833D01*
X158831573Y-119281028D01*
X158841779Y-119280500D01*
X160253861Y-119280500D01*
X160312052Y-119299407D01*
X160323865Y-119309496D01*
X162434020Y-121419651D01*
X162434023Y-121419655D01*
X162554866Y-121540498D01*
X162582642Y-121595013D01*
X162573071Y-121655445D01*
X162529806Y-121698710D01*
X162484861Y-121709500D01*
X162236122Y-121709500D01*
X162177931Y-121690593D01*
X162173318Y-121687028D01*
X162169661Y-121684027D01*
X161997597Y-121569058D01*
X161806418Y-121489869D01*
X161603467Y-121449500D01*
X161603465Y-121449500D01*
X158806779Y-121449500D01*
X158748588Y-121430593D01*
X158712624Y-121381093D01*
X158711020Y-121375123D01*
X158662636Y-121229111D01*
X158657440Y-121213431D01*
X158569019Y-121070078D01*
X158449922Y-120950981D01*
X158306569Y-120862560D01*
X158306567Y-120862559D01*
X158146693Y-120809582D01*
X158146683Y-120809579D01*
X158048020Y-120799500D01*
X158048012Y-120799500D01*
X152791988Y-120799500D01*
X152791980Y-120799500D01*
X152693316Y-120809579D01*
X152693306Y-120809582D01*
X152533432Y-120862559D01*
X152533430Y-120862560D01*
X152390079Y-120950980D01*
X152270980Y-121070079D01*
X152182560Y-121213430D01*
X152182559Y-121213432D01*
X152129582Y-121373306D01*
X152129579Y-121373316D01*
X152119500Y-121471980D01*
X151893837Y-121471980D01*
X151893847Y-121469134D01*
X151957716Y-102516567D01*
X151987033Y-93816877D01*
X152006136Y-93758753D01*
X152055757Y-93722956D01*
X152116942Y-93723162D01*
X152166320Y-93759292D01*
X152184519Y-93807150D01*
X152189580Y-93856683D01*
X152189581Y-93856690D01*
X152242560Y-94016569D01*
X152330981Y-94159922D01*
X152450078Y-94279019D01*
X152593431Y-94367440D01*
X152753310Y-94420419D01*
X152753314Y-94420419D01*
X152753316Y-94420420D01*
X152851980Y-94430500D01*
X152851988Y-94430500D01*
X158108020Y-94430500D01*
X158206683Y-94420420D01*
X158206684Y-94420419D01*
X158206690Y-94420419D01*
X158366569Y-94367440D01*
X158509922Y-94279019D01*
X158629019Y-94159922D01*
X158717440Y-94016569D01*
X158770419Y-93856690D01*
X158770418Y-93856690D01*
X158772119Y-93851560D01*
X158773825Y-93852125D01*
X158800641Y-93805833D01*
X158856573Y-93781028D01*
X158866779Y-93780500D01*
X160123464Y-93780500D01*
X160123465Y-93780500D01*
X160326420Y-93740130D01*
X160517598Y-93660941D01*
X160539158Y-93646535D01*
X160689655Y-93545977D01*
X160689654Y-93545977D01*
X160693699Y-93543275D01*
X160695075Y-93545334D01*
X160743124Y-93526455D01*
X160802347Y-93541824D01*
X160841226Y-93589069D01*
X160844910Y-93650144D01*
X160819088Y-93695279D01*
X158845458Y-95668909D01*
X158790941Y-95696686D01*
X158730509Y-95687115D01*
X158691193Y-95650878D01*
X158629019Y-95550078D01*
X158509922Y-95430981D01*
X158366569Y-95342560D01*
X158366567Y-95342559D01*
X158206693Y-95289582D01*
X158206683Y-95289579D01*
X158108020Y-95279500D01*
X158108012Y-95279500D01*
X152851988Y-95279500D01*
X152851980Y-95279500D01*
X152753316Y-95289579D01*
X152753306Y-95289582D01*
X152593432Y-95342559D01*
X152593430Y-95342560D01*
X152450079Y-95430980D01*
X152330980Y-95550079D01*
X152242560Y-95693430D01*
X152242559Y-95693432D01*
X152189582Y-95853306D01*
X152189579Y-95853316D01*
X152179500Y-95951980D01*
X152179500Y-98008019D01*
X152189579Y-98106683D01*
X152189582Y-98106693D01*
X152219172Y-98195991D01*
X152242560Y-98266569D01*
X152330981Y-98409922D01*
X152450078Y-98529019D01*
X152593431Y-98617440D01*
X152753310Y-98670419D01*
X152753314Y-98670419D01*
X152753316Y-98670420D01*
X152851980Y-98680500D01*
X152851988Y-98680500D01*
X158108020Y-98680500D01*
X158206683Y-98670420D01*
X158206684Y-98670419D01*
X158206690Y-98670419D01*
X158366569Y-98617440D01*
X158509922Y-98529019D01*
X158629019Y-98409922D01*
X158717440Y-98266569D01*
X158770419Y-98106690D01*
X158770418Y-98106690D01*
X158772119Y-98101560D01*
X158773825Y-98102125D01*
X158800641Y-98055833D01*
X158856573Y-98031028D01*
X158866779Y-98030500D01*
X159123464Y-98030500D01*
X159123465Y-98030500D01*
X159326420Y-97990130D01*
X159517598Y-97910941D01*
X159539158Y-97896535D01*
X159689655Y-97795977D01*
X159835977Y-97649655D01*
X159835979Y-97649651D01*
X164808218Y-92677412D01*
X164862734Y-92649636D01*
X164923166Y-92659207D01*
G37*
%TD.AperFunction*%
%TA.AperFunction,Conductor*%
G36*
X172750000Y-93124722D02*
G01*
X172723920Y-93094625D01*
X172679187Y-93052447D01*
X172665841Y-93045661D01*
X172579114Y-93001562D01*
X172579107Y-93001559D01*
X172512078Y-92981877D01*
X172512068Y-92981875D01*
X172442559Y-92971881D01*
X172426000Y-92969500D01*
X171742642Y-92969500D01*
X171704575Y-92971881D01*
X171704547Y-92971884D01*
X171673932Y-92975728D01*
X171661533Y-92977544D01*
X171661531Y-92977544D01*
X171661529Y-92977545D01*
X171620131Y-92992689D01*
X171557336Y-93015660D01*
X171496191Y-93017894D01*
X171453322Y-92992689D01*
X171394654Y-92934022D01*
X171229938Y-92823963D01*
X171192058Y-92775913D01*
X171189656Y-92714775D01*
X171223649Y-92663901D01*
X171229916Y-92659346D01*
X171369655Y-92565977D01*
X171429299Y-92506331D01*
X171483815Y-92478554D01*
X171544172Y-92488087D01*
X171564531Y-92498439D01*
X171631570Y-92518124D01*
X171717642Y-92530500D01*
X171717643Y-92530500D01*
X172425996Y-92530500D01*
X172426000Y-92530500D01*
X172490941Y-92523518D01*
X172490949Y-92523516D01*
X172490951Y-92523516D01*
X172542425Y-92512318D01*
X172542426Y-92512317D01*
X172542452Y-92512312D01*
X172580658Y-92501354D01*
X172677571Y-92444675D01*
X172730375Y-92398920D01*
X172750000Y-92378106D01*
X172750000Y-93124722D01*
G37*
%TD.AperFunction*%
%TA.AperFunction,Conductor*%
G36*
X172750000Y-91149722D02*
G01*
X172723920Y-91119625D01*
X172679187Y-91077447D01*
X172655117Y-91065208D01*
X172579114Y-91026562D01*
X172579107Y-91026559D01*
X172512078Y-91006877D01*
X172512068Y-91006875D01*
X172442566Y-90996882D01*
X172426000Y-90994500D01*
X171727997Y-90994500D01*
X171700306Y-90996232D01*
X171689919Y-90996882D01*
X171689905Y-90996883D01*
X171659264Y-91000732D01*
X171646883Y-91002546D01*
X171646882Y-91002546D01*
X171553413Y-91036738D01*
X171492269Y-91038972D01*
X171449400Y-91013767D01*
X171369654Y-90934022D01*
X171229938Y-90840668D01*
X171192058Y-90792618D01*
X171189656Y-90731480D01*
X171223648Y-90680606D01*
X171229927Y-90676043D01*
X171394655Y-90565977D01*
X171454299Y-90506331D01*
X171508815Y-90478554D01*
X171569172Y-90488087D01*
X171589531Y-90498439D01*
X171656570Y-90518124D01*
X171742642Y-90530500D01*
X171742643Y-90530500D01*
X172400996Y-90530500D01*
X172401000Y-90530500D01*
X172465941Y-90523518D01*
X172465949Y-90523516D01*
X172465951Y-90523516D01*
X172517425Y-90512318D01*
X172517426Y-90512317D01*
X172517452Y-90512312D01*
X172555658Y-90501354D01*
X172652571Y-90444675D01*
X172705375Y-90398920D01*
X172747553Y-90354187D01*
X172750000Y-90349374D01*
X172750000Y-91149722D01*
G37*
%TD.AperFunction*%
%TA.AperFunction,Conductor*%
G36*
X172750000Y-89181533D02*
G01*
X172744675Y-89172429D01*
X172698920Y-89119625D01*
X172654187Y-89077447D01*
X172630117Y-89065208D01*
X172554114Y-89026562D01*
X172554107Y-89026559D01*
X172487078Y-89006877D01*
X172487068Y-89006875D01*
X172417566Y-88996882D01*
X172401000Y-88994500D01*
X171752997Y-88994500D01*
X171725306Y-88996232D01*
X171714919Y-88996882D01*
X171714905Y-88996883D01*
X171684264Y-89000732D01*
X171671883Y-89002546D01*
X171671882Y-89002546D01*
X171578413Y-89036738D01*
X171517269Y-89038972D01*
X171474400Y-89013767D01*
X171394654Y-88934022D01*
X171218554Y-88816357D01*
X171219752Y-88814562D01*
X171183234Y-88776571D01*
X171174859Y-88715962D01*
X171203709Y-88662005D01*
X171217307Y-88651067D01*
X171344655Y-88565977D01*
X171429298Y-88481332D01*
X171483814Y-88453555D01*
X171544173Y-88463089D01*
X171564521Y-88473435D01*
X171564527Y-88473437D01*
X171564530Y-88473439D01*
X171564532Y-88473439D01*
X171564533Y-88473440D01*
X171611796Y-88487318D01*
X171631569Y-88493124D01*
X171717641Y-88505500D01*
X171717642Y-88505500D01*
X172425996Y-88505500D01*
X172426000Y-88505500D01*
X172490941Y-88498518D01*
X172490949Y-88498516D01*
X172490951Y-88498516D01*
X172542425Y-88487318D01*
X172542426Y-88487317D01*
X172542452Y-88487312D01*
X172580658Y-88476354D01*
X172677571Y-88419675D01*
X172730375Y-88373920D01*
X172750000Y-88353106D01*
X172750000Y-89181533D01*
G37*
%TD.AperFunction*%
%TA.AperFunction,Conductor*%
G36*
X172750000Y-87124722D02*
G01*
X172723920Y-87094625D01*
X172679187Y-87052447D01*
X172655117Y-87040208D01*
X172579114Y-87001562D01*
X172579107Y-87001559D01*
X172512078Y-86981877D01*
X172512068Y-86981875D01*
X172442538Y-86971878D01*
X172426000Y-86969500D01*
X171727997Y-86969500D01*
X171717845Y-86970134D01*
X171689955Y-86971878D01*
X171689949Y-86971878D01*
X171659262Y-86975731D01*
X171646899Y-86977542D01*
X171553407Y-87011738D01*
X171492263Y-87013970D01*
X171449397Y-86988766D01*
X171369654Y-86909023D01*
X171236145Y-86819814D01*
X171198266Y-86771764D01*
X171195864Y-86710625D01*
X171229857Y-86659752D01*
X171236124Y-86655198D01*
X171369655Y-86565977D01*
X171429299Y-86506331D01*
X171483815Y-86478554D01*
X171544172Y-86488087D01*
X171564531Y-86498439D01*
X171631570Y-86518124D01*
X171717642Y-86530500D01*
X171717643Y-86530500D01*
X172425996Y-86530500D01*
X172426000Y-86530500D01*
X172490941Y-86523518D01*
X172490949Y-86523516D01*
X172490951Y-86523516D01*
X172542425Y-86512318D01*
X172542426Y-86512317D01*
X172542452Y-86512312D01*
X172580658Y-86501354D01*
X172677571Y-86444675D01*
X172730375Y-86398920D01*
X172750000Y-86378106D01*
X172750000Y-87124722D01*
G37*
%TD.AperFunction*%
%TA.AperFunction,Conductor*%
G36*
X172750000Y-85149722D02*
G01*
X172723920Y-85119625D01*
X172679187Y-85077447D01*
X172655117Y-85065208D01*
X172579114Y-85026562D01*
X172579107Y-85026559D01*
X172512078Y-85006877D01*
X172512068Y-85006875D01*
X172442566Y-84996882D01*
X172426000Y-84994500D01*
X171727997Y-84994500D01*
X171700306Y-84996232D01*
X171689919Y-84996882D01*
X171689905Y-84996883D01*
X171659264Y-85000732D01*
X171646883Y-85002546D01*
X171646882Y-85002546D01*
X171553413Y-85036738D01*
X171492269Y-85038972D01*
X171449400Y-85013767D01*
X171369654Y-84934022D01*
X171272201Y-84868907D01*
X171229937Y-84840667D01*
X171192058Y-84792618D01*
X171189656Y-84731480D01*
X171223648Y-84680606D01*
X171229927Y-84676043D01*
X171394655Y-84565977D01*
X171454299Y-84506331D01*
X171508815Y-84478554D01*
X171569172Y-84488087D01*
X171589531Y-84498439D01*
X171656570Y-84518124D01*
X171742642Y-84530500D01*
X171742643Y-84530500D01*
X172400996Y-84530500D01*
X172401000Y-84530500D01*
X172465941Y-84523518D01*
X172465949Y-84523516D01*
X172465951Y-84523516D01*
X172517425Y-84512318D01*
X172517426Y-84512317D01*
X172517452Y-84512312D01*
X172555658Y-84501354D01*
X172652571Y-84444675D01*
X172705375Y-84398920D01*
X172747553Y-84354187D01*
X172750000Y-84349374D01*
X172750000Y-85149722D01*
G37*
%TD.AperFunction*%
%TA.AperFunction,Conductor*%
G36*
X172750000Y-83181533D02*
G01*
X172744675Y-83172429D01*
X172698920Y-83119625D01*
X172654187Y-83077447D01*
X172642277Y-83071391D01*
X172554114Y-83026562D01*
X172554107Y-83026559D01*
X172487078Y-83006877D01*
X172487068Y-83006875D01*
X172417566Y-82996882D01*
X172401000Y-82994500D01*
X171752997Y-82994500D01*
X171725306Y-82996232D01*
X171714919Y-82996882D01*
X171714905Y-82996883D01*
X171684264Y-83000732D01*
X171671883Y-83002546D01*
X171671882Y-83002546D01*
X171578413Y-83036738D01*
X171517269Y-83038972D01*
X171474400Y-83013767D01*
X171394654Y-82934022D01*
X171229938Y-82823963D01*
X171192058Y-82775913D01*
X171189656Y-82714775D01*
X171223649Y-82663901D01*
X171229916Y-82659346D01*
X171369655Y-82565977D01*
X171454298Y-82481332D01*
X171508814Y-82453555D01*
X171569173Y-82463089D01*
X171589521Y-82473435D01*
X171589527Y-82473437D01*
X171589530Y-82473439D01*
X171589532Y-82473439D01*
X171589533Y-82473440D01*
X171636796Y-82487318D01*
X171656569Y-82493124D01*
X171742641Y-82505500D01*
X171742642Y-82505500D01*
X172400996Y-82505500D01*
X172401000Y-82505500D01*
X172465941Y-82498518D01*
X172465949Y-82498516D01*
X172465951Y-82498516D01*
X172517425Y-82487318D01*
X172517426Y-82487317D01*
X172517452Y-82487312D01*
X172555658Y-82476354D01*
X172652571Y-82419675D01*
X172705375Y-82373920D01*
X172747553Y-82329187D01*
X172750000Y-82324374D01*
X172750000Y-83181533D01*
G37*
%TD.AperFunction*%
%TA.AperFunction,Conductor*%
G36*
X172750000Y-81156533D02*
G01*
X172744675Y-81147429D01*
X172698920Y-81094625D01*
X172654187Y-81052447D01*
X172612063Y-81031028D01*
X172554114Y-81001562D01*
X172554107Y-81001559D01*
X172487078Y-80981877D01*
X172487068Y-80981875D01*
X172417538Y-80971878D01*
X172401000Y-80969500D01*
X171752997Y-80969500D01*
X171742845Y-80970134D01*
X171714955Y-80971878D01*
X171714949Y-80971878D01*
X171684262Y-80975731D01*
X171671899Y-80977542D01*
X171578407Y-81011738D01*
X171517263Y-81013970D01*
X171474397Y-80988766D01*
X171394658Y-80909027D01*
X171394655Y-80909024D01*
X171292352Y-80840667D01*
X171254473Y-80792617D01*
X171252071Y-80731479D01*
X171286064Y-80680605D01*
X171292337Y-80676046D01*
X171419655Y-80590977D01*
X171479299Y-80531331D01*
X171533815Y-80503554D01*
X171594172Y-80513087D01*
X171614531Y-80523439D01*
X171681570Y-80543124D01*
X171767642Y-80555500D01*
X171767643Y-80555500D01*
X172400996Y-80555500D01*
X172401000Y-80555500D01*
X172465941Y-80548518D01*
X172465949Y-80548516D01*
X172465951Y-80548516D01*
X172517425Y-80537318D01*
X172517426Y-80537317D01*
X172517452Y-80537312D01*
X172555658Y-80526354D01*
X172652571Y-80469675D01*
X172705375Y-80423920D01*
X172747553Y-80379187D01*
X172750000Y-80374374D01*
X172750000Y-81156533D01*
G37*
%TD.AperFunction*%
%TA.AperFunction,Conductor*%
G36*
X172750000Y-79206533D02*
G01*
X172744675Y-79197429D01*
X172698920Y-79144625D01*
X172654187Y-79102447D01*
X172630117Y-79090208D01*
X172554114Y-79051562D01*
X172554107Y-79051559D01*
X172487078Y-79031877D01*
X172487068Y-79031875D01*
X172417566Y-79021882D01*
X172401000Y-79019500D01*
X171777997Y-79019500D01*
X171750306Y-79021232D01*
X171739919Y-79021882D01*
X171739905Y-79021883D01*
X171709264Y-79025732D01*
X171696883Y-79027546D01*
X171696882Y-79027546D01*
X171603413Y-79061738D01*
X171542269Y-79063972D01*
X171499400Y-79038767D01*
X171419654Y-78959022D01*
X171247597Y-78844058D01*
X171056418Y-78764869D01*
X170853467Y-78724500D01*
X170853465Y-78724500D01*
X165001140Y-78724500D01*
X164942949Y-78705593D01*
X164931136Y-78695504D01*
X161396761Y-75161130D01*
X161295978Y-75060347D01*
X161295977Y-75060345D01*
X161149655Y-74914023D01*
X161149651Y-74914020D01*
X160977597Y-74799058D01*
X160786418Y-74719869D01*
X160583467Y-74679500D01*
X160583465Y-74679500D01*
X158866779Y-74679500D01*
X158808588Y-74660593D01*
X158772624Y-74611093D01*
X158771020Y-74605123D01*
X158718423Y-74446397D01*
X158717440Y-74443431D01*
X158629019Y-74300078D01*
X158509922Y-74180981D01*
X158366569Y-74092560D01*
X158366567Y-74092559D01*
X158206693Y-74039582D01*
X158206683Y-74039579D01*
X158108020Y-74029500D01*
X158108012Y-74029500D01*
X152851988Y-74029500D01*
X152851980Y-74029500D01*
X152753316Y-74039579D01*
X152753306Y-74039582D01*
X152593432Y-74092559D01*
X152593430Y-74092560D01*
X152450079Y-74180980D01*
X152330980Y-74300079D01*
X152242555Y-74443439D01*
X152241176Y-74446397D01*
X152239861Y-74447807D01*
X152239533Y-74448339D01*
X152239426Y-74448273D01*
X152199448Y-74491145D01*
X152139387Y-74502820D01*
X152083934Y-74476962D01*
X152054271Y-74423448D01*
X152052453Y-74404224D01*
X152054235Y-73875402D01*
X152073338Y-73817277D01*
X152122959Y-73781480D01*
X152145918Y-73777007D01*
X158516206Y-73305136D01*
X158516221Y-73305134D01*
X158516241Y-73305133D01*
X158531802Y-73303578D01*
X158531809Y-73303577D01*
X158531820Y-73303576D01*
X158544458Y-73301984D01*
X158559980Y-73299622D01*
X165534038Y-72054254D01*
X165543724Y-72053014D01*
X168696512Y-71806703D01*
X168761591Y-71794418D01*
X168812725Y-71778870D01*
X168873626Y-71752849D01*
X169557420Y-71368213D01*
X169605956Y-71355500D01*
X172445625Y-71355500D01*
X172445625Y-71355499D01*
X172476704Y-71353914D01*
X172501816Y-71351345D01*
X172507278Y-71350736D01*
X172614376Y-71317051D01*
X172676040Y-71284197D01*
X172727122Y-71249969D01*
X172750000Y-71222521D01*
X172750000Y-79206533D01*
G37*
%TD.AperFunction*%
%TD*%
%TA.AperFunction,NonConductor*%
G36*
X172443039Y-128319685D02*
G01*
X172488794Y-128372489D01*
X172500000Y-128424000D01*
X172500000Y-129101000D01*
X172480315Y-129168039D01*
X172427511Y-129213794D01*
X172376000Y-129225000D01*
X171677997Y-129225000D01*
X171610958Y-129205315D01*
X171565203Y-129152511D01*
X171555259Y-129083353D01*
X171563436Y-129053547D01*
X171563973Y-129052251D01*
X171600500Y-128868616D01*
X171600500Y-128681384D01*
X171563973Y-128497749D01*
X171553079Y-128471450D01*
X171545612Y-128401982D01*
X171576888Y-128339503D01*
X171636977Y-128303851D01*
X171667642Y-128300000D01*
X172376000Y-128300000D01*
X172443039Y-128319685D01*
G37*
%TD.AperFunction*%
%TA.AperFunction,NonConductor*%
G36*
X172493039Y-93294685D02*
G01*
X172538794Y-93347489D01*
X172550000Y-93399000D01*
X172550000Y-94076000D01*
X172530315Y-94143039D01*
X172477511Y-94188794D01*
X172426000Y-94200000D01*
X171799500Y-94200000D01*
X171732461Y-94180315D01*
X171686706Y-94127511D01*
X171675500Y-94076000D01*
X171675500Y-93656383D01*
X171675499Y-93656379D01*
X171638974Y-93472756D01*
X171638973Y-93472749D01*
X171628079Y-93446450D01*
X171620612Y-93376982D01*
X171651888Y-93314503D01*
X171711977Y-93278851D01*
X171742642Y-93275000D01*
X172426000Y-93275000D01*
X172493039Y-93294685D01*
G37*
%TD.AperFunction*%
%TA.AperFunction,NonConductor*%
G36*
X169774397Y-93294685D02*
G01*
X169820152Y-93347489D01*
X169830096Y-93416647D01*
X169821920Y-93446449D01*
X169811027Y-93472749D01*
X169811026Y-93472752D01*
X169811026Y-93472753D01*
X169811025Y-93472756D01*
X169774500Y-93656379D01*
X169774500Y-94076000D01*
X169754815Y-94143039D01*
X169702011Y-94188794D01*
X169650500Y-94200000D01*
X168949000Y-94200000D01*
X168881961Y-94180315D01*
X168836206Y-94127511D01*
X168825000Y-94076000D01*
X168825000Y-93399000D01*
X168844685Y-93331961D01*
X168897489Y-93286206D01*
X168949000Y-93275000D01*
X169707358Y-93275000D01*
X169774397Y-93294685D01*
G37*
%TD.AperFunction*%
%TA.AperFunction,NonConductor*%
G36*
X172468039Y-79344685D02*
G01*
X172513794Y-79397489D01*
X172525000Y-79449000D01*
X172525000Y-80126000D01*
X172505315Y-80193039D01*
X172452511Y-80238794D01*
X172401000Y-80250000D01*
X171767642Y-80250000D01*
X171700603Y-80230315D01*
X171654848Y-80177511D01*
X171644904Y-80108353D01*
X171653080Y-80078548D01*
X171663973Y-80052251D01*
X171700500Y-79868616D01*
X171700500Y-79681384D01*
X171663973Y-79497749D01*
X171663435Y-79496452D01*
X171663357Y-79495719D01*
X171662205Y-79491922D01*
X171662925Y-79491703D01*
X171655967Y-79426983D01*
X171687242Y-79364504D01*
X171747331Y-79328852D01*
X171777997Y-79325000D01*
X172401000Y-79325000D01*
X172468039Y-79344685D01*
G37*
%TD.AperFunction*%
%TA.AperFunction,NonConductor*%
G36*
X172418039Y-130294685D02*
G01*
X172463794Y-130347489D01*
X172475000Y-130399000D01*
X172475000Y-131076000D01*
X172455315Y-131143039D01*
X172402511Y-131188794D01*
X172351000Y-131200000D01*
X171724500Y-131200000D01*
X171657461Y-131180315D01*
X171611706Y-131127511D01*
X171600500Y-131076000D01*
X171600500Y-130631383D01*
X171600499Y-130631379D01*
X171563974Y-130447756D01*
X171563973Y-130447749D01*
X171563435Y-130446452D01*
X171563357Y-130445719D01*
X171562205Y-130441922D01*
X171562925Y-130441703D01*
X171555967Y-130376983D01*
X171587242Y-130314504D01*
X171647331Y-130278852D01*
X171677997Y-130275000D01*
X172351000Y-130275000D01*
X172418039Y-130294685D01*
G37*
%TD.AperFunction*%
%TA.AperFunction,NonConductor*%
G36*
X169689042Y-130294685D02*
G01*
X169734797Y-130347489D01*
X169744741Y-130416647D01*
X169736564Y-130446453D01*
X169736027Y-130447748D01*
X169736025Y-130447756D01*
X169699500Y-130631379D01*
X169699500Y-131076000D01*
X169679815Y-131143039D01*
X169627011Y-131188794D01*
X169575500Y-131200000D01*
X168874000Y-131200000D01*
X168806961Y-131180315D01*
X168761206Y-131127511D01*
X168750000Y-131076000D01*
X168750000Y-130399000D01*
X168769685Y-130331961D01*
X168822489Y-130286206D01*
X168874000Y-130275000D01*
X169622003Y-130275000D01*
X169689042Y-130294685D01*
G37*
%TD.AperFunction*%
%TA.AperFunction,NonConductor*%
G36*
X172443039Y-124319685D02*
G01*
X172488794Y-124372489D01*
X172500000Y-124424000D01*
X172500000Y-125101000D01*
X172480315Y-125168039D01*
X172427511Y-125213794D01*
X172376000Y-125225000D01*
X171697642Y-125225000D01*
X171630603Y-125205315D01*
X171584848Y-125152511D01*
X171574904Y-125083353D01*
X171583080Y-125053548D01*
X171593973Y-125027251D01*
X171630500Y-124843616D01*
X171630500Y-124656384D01*
X171593973Y-124472749D01*
X171593435Y-124471452D01*
X171593357Y-124470719D01*
X171592205Y-124466922D01*
X171592925Y-124466703D01*
X171585967Y-124401983D01*
X171617242Y-124339504D01*
X171677331Y-124303852D01*
X171707997Y-124300000D01*
X172376000Y-124300000D01*
X172443039Y-124319685D01*
G37*
%TD.AperFunction*%
%TA.AperFunction,NonConductor*%
G36*
X172468039Y-89319685D02*
G01*
X172513794Y-89372489D01*
X172525000Y-89424000D01*
X172525000Y-90101000D01*
X172505315Y-90168039D01*
X172452511Y-90213794D01*
X172401000Y-90225000D01*
X171742642Y-90225000D01*
X171675603Y-90205315D01*
X171629848Y-90152511D01*
X171619904Y-90083353D01*
X171628080Y-90053548D01*
X171638973Y-90027251D01*
X171675500Y-89843616D01*
X171675500Y-89656384D01*
X171638973Y-89472749D01*
X171638435Y-89471452D01*
X171638357Y-89470719D01*
X171637205Y-89466922D01*
X171637925Y-89466703D01*
X171630967Y-89401983D01*
X171662242Y-89339504D01*
X171722331Y-89303852D01*
X171752997Y-89300000D01*
X172401000Y-89300000D01*
X172468039Y-89319685D01*
G37*
%TD.AperFunction*%
%TA.AperFunction,NonConductor*%
G36*
X172468039Y-122319685D02*
G01*
X172513794Y-122372489D01*
X172525000Y-122424000D01*
X172525000Y-123101000D01*
X172505315Y-123168039D01*
X172452511Y-123213794D01*
X172401000Y-123225000D01*
X171651784Y-123225000D01*
X171584745Y-123205315D01*
X171538990Y-123152511D01*
X171529046Y-123083353D01*
X171537223Y-123053548D01*
X171543971Y-123037255D01*
X171543973Y-123037251D01*
X171580500Y-122853616D01*
X171580500Y-122666384D01*
X171543973Y-122482749D01*
X171539294Y-122471452D01*
X171531825Y-122401982D01*
X171563101Y-122339503D01*
X171623190Y-122303852D01*
X171653855Y-122300000D01*
X172401000Y-122300000D01*
X172468039Y-122319685D01*
G37*
%TD.AperFunction*%
%TA.AperFunction,NonConductor*%
G36*
X172468039Y-126319685D02*
G01*
X172513794Y-126372489D01*
X172525000Y-126424000D01*
X172525000Y-127101000D01*
X172505315Y-127168039D01*
X172452511Y-127213794D01*
X172401000Y-127225000D01*
X171667642Y-127225000D01*
X171600603Y-127205315D01*
X171554848Y-127152511D01*
X171544904Y-127083353D01*
X171553080Y-127053548D01*
X171563973Y-127027251D01*
X171600500Y-126843616D01*
X171600500Y-126656384D01*
X171563973Y-126472749D01*
X171563435Y-126471452D01*
X171563357Y-126470719D01*
X171562205Y-126466922D01*
X171562925Y-126466703D01*
X171555967Y-126401983D01*
X171587242Y-126339504D01*
X171647331Y-126303852D01*
X171677997Y-126300000D01*
X172401000Y-126300000D01*
X172468039Y-126319685D01*
G37*
%TD.AperFunction*%
%TA.AperFunction,NonConductor*%
G36*
X172468039Y-83319685D02*
G01*
X172513794Y-83372489D01*
X172525000Y-83424000D01*
X172525000Y-84101000D01*
X172505315Y-84168039D01*
X172452511Y-84213794D01*
X172401000Y-84225000D01*
X171742642Y-84225000D01*
X171675603Y-84205315D01*
X171629848Y-84152511D01*
X171619904Y-84083353D01*
X171628080Y-84053548D01*
X171638973Y-84027251D01*
X171675500Y-83843616D01*
X171675500Y-83656384D01*
X171638973Y-83472749D01*
X171638435Y-83471452D01*
X171638357Y-83470719D01*
X171637205Y-83466922D01*
X171637925Y-83466703D01*
X171630967Y-83401983D01*
X171662242Y-83339504D01*
X171722331Y-83303852D01*
X171752997Y-83300000D01*
X172401000Y-83300000D01*
X172468039Y-83319685D01*
G37*
%TD.AperFunction*%
%TA.AperFunction,NonConductor*%
G36*
X172468039Y-120294685D02*
G01*
X172513794Y-120347489D01*
X172525000Y-120399000D01*
X172525000Y-121076000D01*
X172505315Y-121143039D01*
X172452511Y-121188794D01*
X172401000Y-121200000D01*
X171677997Y-121200000D01*
X171610958Y-121180315D01*
X171565203Y-121127511D01*
X171555259Y-121058353D01*
X171563436Y-121028547D01*
X171563973Y-121027251D01*
X171600500Y-120843616D01*
X171600500Y-120656384D01*
X171563973Y-120472749D01*
X171553079Y-120446450D01*
X171545612Y-120376982D01*
X171576888Y-120314503D01*
X171636977Y-120278851D01*
X171667642Y-120275000D01*
X172401000Y-120275000D01*
X172468039Y-120294685D01*
G37*
%TD.AperFunction*%
%TA.AperFunction,NonConductor*%
G36*
X172468039Y-81294685D02*
G01*
X172513794Y-81347489D01*
X172525000Y-81399000D01*
X172525000Y-82076000D01*
X172505315Y-82143039D01*
X172452511Y-82188794D01*
X172401000Y-82200000D01*
X171742641Y-82200000D01*
X171675602Y-82180315D01*
X171629847Y-82127511D01*
X171619903Y-82058353D01*
X171628080Y-82028547D01*
X171628617Y-82027251D01*
X171638973Y-82002250D01*
X171675500Y-81818617D01*
X171675500Y-81631384D01*
X171638973Y-81447750D01*
X171638432Y-81446446D01*
X171638353Y-81445709D01*
X171637205Y-81441923D01*
X171637923Y-81441705D01*
X171630968Y-81376977D01*
X171662247Y-81314499D01*
X171722337Y-81278850D01*
X171752997Y-81275000D01*
X172401000Y-81275000D01*
X172468039Y-81294685D01*
G37*
%TD.AperFunction*%
M02*
