%TF.GenerationSoftware,KiCad,Pcbnew,9.0.0*%
%TF.CreationDate,2025-05-27T23:15:15+02:00*%
%TF.ProjectId,PUTM_EV_PDMv2_PLAN_B_2024,5055544d-5f45-4565-9f50-444d76325f50,1.0*%
%TF.SameCoordinates,Original*%
%TF.FileFunction,Soldermask,Top*%
%TF.FilePolarity,Negative*%
%FSLAX46Y46*%
G04 Gerber Fmt 4.6, Leading zero omitted, Abs format (unit mm)*
G04 Created by KiCad (PCBNEW 9.0.0) date 2025-05-27 23:15:15*
%MOMM*%
%LPD*%
G01*
G04 APERTURE LIST*
G04 Aperture macros list*
%AMRoundRect*
0 Rectangle with rounded corners*
0 $1 Rounding radius*
0 $2 $3 $4 $5 $6 $7 $8 $9 X,Y pos of 4 corners*
0 Add a 4 corners polygon primitive as box body*
4,1,4,$2,$3,$4,$5,$6,$7,$8,$9,$2,$3,0*
0 Add four circle primitives for the rounded corners*
1,1,$1+$1,$2,$3*
1,1,$1+$1,$4,$5*
1,1,$1+$1,$6,$7*
1,1,$1+$1,$8,$9*
0 Add four rect primitives between the rounded corners*
20,1,$1+$1,$2,$3,$4,$5,0*
20,1,$1+$1,$4,$5,$6,$7,0*
20,1,$1+$1,$6,$7,$8,$9,0*
20,1,$1+$1,$8,$9,$2,$3,0*%
G04 Aperture macros list end*
%ADD10C,0.010000*%
%ADD11C,1.650000*%
%ADD12RoundRect,0.420000X-2.580000X-0.980000X2.580000X-0.980000X2.580000X0.980000X-2.580000X0.980000X0*%
%ADD13C,1.512000*%
%ADD14C,0.800000*%
%ADD15C,6.000000*%
%ADD16C,2.500000*%
%ADD17C,2.775000*%
G04 APERTURE END LIST*
D10*
%TO.C,J5*%
X169480000Y-80365000D02*
X168360000Y-80365000D01*
X168360000Y-79115000D01*
X169480000Y-79115000D01*
X169480000Y-80365000D01*
G36*
X169480000Y-80365000D02*
G01*
X168360000Y-80365000D01*
X168360000Y-79115000D01*
X169480000Y-79115000D01*
X169480000Y-80365000D01*
G37*
X169480000Y-82365000D02*
X168360000Y-82365000D01*
X168360000Y-81115000D01*
X169480000Y-81115000D01*
X169480000Y-82365000D01*
G36*
X169480000Y-82365000D02*
G01*
X168360000Y-82365000D01*
X168360000Y-81115000D01*
X169480000Y-81115000D01*
X169480000Y-82365000D01*
G37*
X169480000Y-84365000D02*
X168360000Y-84365000D01*
X168360000Y-83115000D01*
X169480000Y-83115000D01*
X169480000Y-84365000D01*
G36*
X169480000Y-84365000D02*
G01*
X168360000Y-84365000D01*
X168360000Y-83115000D01*
X169480000Y-83115000D01*
X169480000Y-84365000D01*
G37*
X169480000Y-86365000D02*
X168360000Y-86365000D01*
X168360000Y-85115000D01*
X169480000Y-85115000D01*
X169480000Y-86365000D01*
G36*
X169480000Y-86365000D02*
G01*
X168360000Y-86365000D01*
X168360000Y-85115000D01*
X169480000Y-85115000D01*
X169480000Y-86365000D01*
G37*
X169480000Y-88365000D02*
X168360000Y-88365000D01*
X168360000Y-87115000D01*
X169480000Y-87115000D01*
X169480000Y-88365000D01*
G36*
X169480000Y-88365000D02*
G01*
X168360000Y-88365000D01*
X168360000Y-87115000D01*
X169480000Y-87115000D01*
X169480000Y-88365000D01*
G37*
X169480000Y-90365000D02*
X168360000Y-90365000D01*
X168360000Y-89115000D01*
X169480000Y-89115000D01*
X169480000Y-90365000D01*
G36*
X169480000Y-90365000D02*
G01*
X168360000Y-90365000D01*
X168360000Y-89115000D01*
X169480000Y-89115000D01*
X169480000Y-90365000D01*
G37*
X169480000Y-92365000D02*
X168360000Y-92365000D01*
X168360000Y-91115000D01*
X169480000Y-91115000D01*
X169480000Y-92365000D01*
G36*
X169480000Y-92365000D02*
G01*
X168360000Y-92365000D01*
X168360000Y-91115000D01*
X169480000Y-91115000D01*
X169480000Y-92365000D01*
G37*
X169480000Y-94365000D02*
X168360000Y-94365000D01*
X168360000Y-93115000D01*
X169480000Y-93115000D01*
X169480000Y-94365000D01*
G36*
X169480000Y-94365000D02*
G01*
X168360000Y-94365000D01*
X168360000Y-93115000D01*
X169480000Y-93115000D01*
X169480000Y-94365000D01*
G37*
X170540000Y-80365000D02*
X169680000Y-80365000D01*
X169680000Y-79115000D01*
X170540000Y-79115000D01*
X170540000Y-80365000D01*
G36*
X170540000Y-80365000D02*
G01*
X169680000Y-80365000D01*
X169680000Y-79115000D01*
X170540000Y-79115000D01*
X170540000Y-80365000D01*
G37*
X170540000Y-82365000D02*
X169680000Y-82365000D01*
X169680000Y-81115000D01*
X170540000Y-81115000D01*
X170540000Y-82365000D01*
G36*
X170540000Y-82365000D02*
G01*
X169680000Y-82365000D01*
X169680000Y-81115000D01*
X170540000Y-81115000D01*
X170540000Y-82365000D01*
G37*
X170540000Y-84365000D02*
X169680000Y-84365000D01*
X169680000Y-83115000D01*
X170540000Y-83115000D01*
X170540000Y-84365000D01*
G36*
X170540000Y-84365000D02*
G01*
X169680000Y-84365000D01*
X169680000Y-83115000D01*
X170540000Y-83115000D01*
X170540000Y-84365000D01*
G37*
X170540000Y-86365000D02*
X169680000Y-86365000D01*
X169680000Y-85115000D01*
X170540000Y-85115000D01*
X170540000Y-86365000D01*
G36*
X170540000Y-86365000D02*
G01*
X169680000Y-86365000D01*
X169680000Y-85115000D01*
X170540000Y-85115000D01*
X170540000Y-86365000D01*
G37*
X170540000Y-88365000D02*
X169680000Y-88365000D01*
X169680000Y-87115000D01*
X170540000Y-87115000D01*
X170540000Y-88365000D01*
G36*
X170540000Y-88365000D02*
G01*
X169680000Y-88365000D01*
X169680000Y-87115000D01*
X170540000Y-87115000D01*
X170540000Y-88365000D01*
G37*
X170540000Y-90365000D02*
X169680000Y-90365000D01*
X169680000Y-89115000D01*
X170540000Y-89115000D01*
X170540000Y-90365000D01*
G36*
X170540000Y-90365000D02*
G01*
X169680000Y-90365000D01*
X169680000Y-89115000D01*
X170540000Y-89115000D01*
X170540000Y-90365000D01*
G37*
X170540000Y-92365000D02*
X169680000Y-92365000D01*
X169680000Y-91115000D01*
X170540000Y-91115000D01*
X170540000Y-92365000D01*
G36*
X170540000Y-92365000D02*
G01*
X169680000Y-92365000D01*
X169680000Y-91115000D01*
X170540000Y-91115000D01*
X170540000Y-92365000D01*
G37*
X170540000Y-94365000D02*
X169680000Y-94365000D01*
X169680000Y-93115000D01*
X170540000Y-93115000D01*
X170540000Y-94365000D01*
G36*
X170540000Y-94365000D02*
G01*
X169680000Y-94365000D01*
X169680000Y-93115000D01*
X170540000Y-93115000D01*
X170540000Y-94365000D01*
G37*
X171860000Y-80365000D02*
X170740000Y-80365000D01*
X170740000Y-79115000D01*
X171860000Y-79115000D01*
X171860000Y-80365000D01*
G36*
X171860000Y-80365000D02*
G01*
X170740000Y-80365000D01*
X170740000Y-79115000D01*
X171860000Y-79115000D01*
X171860000Y-80365000D01*
G37*
X171860000Y-82365000D02*
X170740000Y-82365000D01*
X170740000Y-81115000D01*
X171860000Y-81115000D01*
X171860000Y-82365000D01*
G36*
X171860000Y-82365000D02*
G01*
X170740000Y-82365000D01*
X170740000Y-81115000D01*
X171860000Y-81115000D01*
X171860000Y-82365000D01*
G37*
X171860000Y-84365000D02*
X170740000Y-84365000D01*
X170740000Y-83115000D01*
X171860000Y-83115000D01*
X171860000Y-84365000D01*
G36*
X171860000Y-84365000D02*
G01*
X170740000Y-84365000D01*
X170740000Y-83115000D01*
X171860000Y-83115000D01*
X171860000Y-84365000D01*
G37*
X171860000Y-86365000D02*
X170740000Y-86365000D01*
X170740000Y-85115000D01*
X171860000Y-85115000D01*
X171860000Y-86365000D01*
G36*
X171860000Y-86365000D02*
G01*
X170740000Y-86365000D01*
X170740000Y-85115000D01*
X171860000Y-85115000D01*
X171860000Y-86365000D01*
G37*
X171860000Y-88365000D02*
X170740000Y-88365000D01*
X170740000Y-87115000D01*
X171860000Y-87115000D01*
X171860000Y-88365000D01*
G36*
X171860000Y-88365000D02*
G01*
X170740000Y-88365000D01*
X170740000Y-87115000D01*
X171860000Y-87115000D01*
X171860000Y-88365000D01*
G37*
X171860000Y-90365000D02*
X170740000Y-90365000D01*
X170740000Y-89115000D01*
X171860000Y-89115000D01*
X171860000Y-90365000D01*
G36*
X171860000Y-90365000D02*
G01*
X170740000Y-90365000D01*
X170740000Y-89115000D01*
X171860000Y-89115000D01*
X171860000Y-90365000D01*
G37*
X171860000Y-92365000D02*
X170740000Y-92365000D01*
X170740000Y-91115000D01*
X171860000Y-91115000D01*
X171860000Y-92365000D01*
G36*
X171860000Y-92365000D02*
G01*
X170740000Y-92365000D01*
X170740000Y-91115000D01*
X171860000Y-91115000D01*
X171860000Y-92365000D01*
G37*
X171860000Y-94365000D02*
X170740000Y-94365000D01*
X170740000Y-93115000D01*
X171860000Y-93115000D01*
X171860000Y-94365000D01*
G36*
X171860000Y-94365000D02*
G01*
X170740000Y-94365000D01*
X170740000Y-93115000D01*
X171860000Y-93115000D01*
X171860000Y-94365000D01*
G37*
%TO.C,J8*%
X169520000Y-117405000D02*
X168400000Y-117405000D01*
X168400000Y-116155000D01*
X169520000Y-116155000D01*
X169520000Y-117405000D01*
G36*
X169520000Y-117405000D02*
G01*
X168400000Y-117405000D01*
X168400000Y-116155000D01*
X169520000Y-116155000D01*
X169520000Y-117405000D01*
G37*
X169520000Y-119405000D02*
X168400000Y-119405000D01*
X168400000Y-118155000D01*
X169520000Y-118155000D01*
X169520000Y-119405000D01*
G36*
X169520000Y-119405000D02*
G01*
X168400000Y-119405000D01*
X168400000Y-118155000D01*
X169520000Y-118155000D01*
X169520000Y-119405000D01*
G37*
X169520000Y-121405000D02*
X168400000Y-121405000D01*
X168400000Y-120155000D01*
X169520000Y-120155000D01*
X169520000Y-121405000D01*
G36*
X169520000Y-121405000D02*
G01*
X168400000Y-121405000D01*
X168400000Y-120155000D01*
X169520000Y-120155000D01*
X169520000Y-121405000D01*
G37*
X169520000Y-123405000D02*
X168400000Y-123405000D01*
X168400000Y-122155000D01*
X169520000Y-122155000D01*
X169520000Y-123405000D01*
G36*
X169520000Y-123405000D02*
G01*
X168400000Y-123405000D01*
X168400000Y-122155000D01*
X169520000Y-122155000D01*
X169520000Y-123405000D01*
G37*
X169520000Y-125405000D02*
X168400000Y-125405000D01*
X168400000Y-124155000D01*
X169520000Y-124155000D01*
X169520000Y-125405000D01*
G36*
X169520000Y-125405000D02*
G01*
X168400000Y-125405000D01*
X168400000Y-124155000D01*
X169520000Y-124155000D01*
X169520000Y-125405000D01*
G37*
X169520000Y-127405000D02*
X168400000Y-127405000D01*
X168400000Y-126155000D01*
X169520000Y-126155000D01*
X169520000Y-127405000D01*
G36*
X169520000Y-127405000D02*
G01*
X168400000Y-127405000D01*
X168400000Y-126155000D01*
X169520000Y-126155000D01*
X169520000Y-127405000D01*
G37*
X169520000Y-129405000D02*
X168400000Y-129405000D01*
X168400000Y-128155000D01*
X169520000Y-128155000D01*
X169520000Y-129405000D01*
G36*
X169520000Y-129405000D02*
G01*
X168400000Y-129405000D01*
X168400000Y-128155000D01*
X169520000Y-128155000D01*
X169520000Y-129405000D01*
G37*
X169520000Y-131405000D02*
X168400000Y-131405000D01*
X168400000Y-130155000D01*
X169520000Y-130155000D01*
X169520000Y-131405000D01*
G36*
X169520000Y-131405000D02*
G01*
X168400000Y-131405000D01*
X168400000Y-130155000D01*
X169520000Y-130155000D01*
X169520000Y-131405000D01*
G37*
X170580000Y-117405000D02*
X169720000Y-117405000D01*
X169720000Y-116155000D01*
X170580000Y-116155000D01*
X170580000Y-117405000D01*
G36*
X170580000Y-117405000D02*
G01*
X169720000Y-117405000D01*
X169720000Y-116155000D01*
X170580000Y-116155000D01*
X170580000Y-117405000D01*
G37*
X170580000Y-119405000D02*
X169720000Y-119405000D01*
X169720000Y-118155000D01*
X170580000Y-118155000D01*
X170580000Y-119405000D01*
G36*
X170580000Y-119405000D02*
G01*
X169720000Y-119405000D01*
X169720000Y-118155000D01*
X170580000Y-118155000D01*
X170580000Y-119405000D01*
G37*
X170580000Y-121405000D02*
X169720000Y-121405000D01*
X169720000Y-120155000D01*
X170580000Y-120155000D01*
X170580000Y-121405000D01*
G36*
X170580000Y-121405000D02*
G01*
X169720000Y-121405000D01*
X169720000Y-120155000D01*
X170580000Y-120155000D01*
X170580000Y-121405000D01*
G37*
X170580000Y-123405000D02*
X169720000Y-123405000D01*
X169720000Y-122155000D01*
X170580000Y-122155000D01*
X170580000Y-123405000D01*
G36*
X170580000Y-123405000D02*
G01*
X169720000Y-123405000D01*
X169720000Y-122155000D01*
X170580000Y-122155000D01*
X170580000Y-123405000D01*
G37*
X170580000Y-125405000D02*
X169720000Y-125405000D01*
X169720000Y-124155000D01*
X170580000Y-124155000D01*
X170580000Y-125405000D01*
G36*
X170580000Y-125405000D02*
G01*
X169720000Y-125405000D01*
X169720000Y-124155000D01*
X170580000Y-124155000D01*
X170580000Y-125405000D01*
G37*
X170580000Y-127405000D02*
X169720000Y-127405000D01*
X169720000Y-126155000D01*
X170580000Y-126155000D01*
X170580000Y-127405000D01*
G36*
X170580000Y-127405000D02*
G01*
X169720000Y-127405000D01*
X169720000Y-126155000D01*
X170580000Y-126155000D01*
X170580000Y-127405000D01*
G37*
X170580000Y-129405000D02*
X169720000Y-129405000D01*
X169720000Y-128155000D01*
X170580000Y-128155000D01*
X170580000Y-129405000D01*
G36*
X170580000Y-129405000D02*
G01*
X169720000Y-129405000D01*
X169720000Y-128155000D01*
X170580000Y-128155000D01*
X170580000Y-129405000D01*
G37*
X170580000Y-131405000D02*
X169720000Y-131405000D01*
X169720000Y-130155000D01*
X170580000Y-130155000D01*
X170580000Y-131405000D01*
G36*
X170580000Y-131405000D02*
G01*
X169720000Y-131405000D01*
X169720000Y-130155000D01*
X170580000Y-130155000D01*
X170580000Y-131405000D01*
G37*
X171900000Y-117405000D02*
X170780000Y-117405000D01*
X170780000Y-116155000D01*
X171900000Y-116155000D01*
X171900000Y-117405000D01*
G36*
X171900000Y-117405000D02*
G01*
X170780000Y-117405000D01*
X170780000Y-116155000D01*
X171900000Y-116155000D01*
X171900000Y-117405000D01*
G37*
X171900000Y-119405000D02*
X170780000Y-119405000D01*
X170780000Y-118155000D01*
X171900000Y-118155000D01*
X171900000Y-119405000D01*
G36*
X171900000Y-119405000D02*
G01*
X170780000Y-119405000D01*
X170780000Y-118155000D01*
X171900000Y-118155000D01*
X171900000Y-119405000D01*
G37*
X171900000Y-121405000D02*
X170780000Y-121405000D01*
X170780000Y-120155000D01*
X171900000Y-120155000D01*
X171900000Y-121405000D01*
G36*
X171900000Y-121405000D02*
G01*
X170780000Y-121405000D01*
X170780000Y-120155000D01*
X171900000Y-120155000D01*
X171900000Y-121405000D01*
G37*
X171900000Y-123405000D02*
X170780000Y-123405000D01*
X170780000Y-122155000D01*
X171900000Y-122155000D01*
X171900000Y-123405000D01*
G36*
X171900000Y-123405000D02*
G01*
X170780000Y-123405000D01*
X170780000Y-122155000D01*
X171900000Y-122155000D01*
X171900000Y-123405000D01*
G37*
X171900000Y-125405000D02*
X170780000Y-125405000D01*
X170780000Y-124155000D01*
X171900000Y-124155000D01*
X171900000Y-125405000D01*
G36*
X171900000Y-125405000D02*
G01*
X170780000Y-125405000D01*
X170780000Y-124155000D01*
X171900000Y-124155000D01*
X171900000Y-125405000D01*
G37*
X171900000Y-127405000D02*
X170780000Y-127405000D01*
X170780000Y-126155000D01*
X171900000Y-126155000D01*
X171900000Y-127405000D01*
G36*
X171900000Y-127405000D02*
G01*
X170780000Y-127405000D01*
X170780000Y-126155000D01*
X171900000Y-126155000D01*
X171900000Y-127405000D01*
G37*
X171900000Y-129405000D02*
X170780000Y-129405000D01*
X170780000Y-128155000D01*
X171900000Y-128155000D01*
X171900000Y-129405000D01*
G36*
X171900000Y-129405000D02*
G01*
X170780000Y-129405000D01*
X170780000Y-128155000D01*
X171900000Y-128155000D01*
X171900000Y-129405000D01*
G37*
X171900000Y-131405000D02*
X170780000Y-131405000D01*
X170780000Y-130155000D01*
X171900000Y-130155000D01*
X171900000Y-131405000D01*
G36*
X171900000Y-131405000D02*
G01*
X170780000Y-131405000D01*
X170780000Y-130155000D01*
X171900000Y-130155000D01*
X171900000Y-131405000D01*
G37*
%TD*%
D11*
%TO.C,TSAL/HV_1*%
X145550000Y-139430000D03*
D12*
X147380000Y-139430000D03*
D11*
X149210000Y-139430000D03*
X153670000Y-139500000D03*
D12*
X155500000Y-139500000D03*
D11*
X157330000Y-139500000D03*
%TD*%
%TO.C,BRAKE/IR/AIR_1*%
X145505000Y-118160000D03*
D12*
X147335000Y-118160000D03*
D11*
X149165000Y-118160000D03*
X153625000Y-118230000D03*
D12*
X155455000Y-118230000D03*
D11*
X157285000Y-118230000D03*
%TD*%
%TO.C,INVERTER_2*%
X145470000Y-126680000D03*
D12*
X147300000Y-126680000D03*
D11*
X149130000Y-126680000D03*
X153590000Y-126750000D03*
D12*
X155420000Y-126750000D03*
D11*
X157250000Y-126750000D03*
%TD*%
%TO.C,FAN_1*%
X145530000Y-88410000D03*
D12*
X147360000Y-88410000D03*
D11*
X149190000Y-88410000D03*
X153650000Y-88480000D03*
D12*
X155480000Y-88480000D03*
D11*
X157310000Y-88480000D03*
%TD*%
D13*
%TO.C,J5*%
X174860000Y-98290000D03*
X176860000Y-98290000D03*
X174860000Y-75190000D03*
X176860000Y-75190000D03*
%TD*%
D14*
%TO.C,REF\u002A\u002A*%
X172340990Y-105250000D03*
X173000000Y-103659010D03*
X173000000Y-106840990D03*
X174590990Y-103000000D03*
D15*
X174590990Y-105250000D03*
D14*
X174590990Y-107500000D03*
X176181980Y-103659010D03*
X176181980Y-106840990D03*
X176840990Y-105250000D03*
%TD*%
D11*
%TO.C,PC_4*%
X145530000Y-92660000D03*
D12*
X147360000Y-92660000D03*
D11*
X149190000Y-92660000D03*
X153650000Y-92730000D03*
D12*
X155480000Y-92730000D03*
D11*
X157310000Y-92730000D03*
%TD*%
%TO.C,PUMP_1*%
X145530000Y-84160000D03*
D12*
X147360000Y-84160000D03*
D11*
X149190000Y-84160000D03*
X153650000Y-84230000D03*
D12*
X155480000Y-84230000D03*
D11*
X157310000Y-84230000D03*
%TD*%
%TO.C,INVERTER_1*%
X145470000Y-130930000D03*
D12*
X147300000Y-130930000D03*
D11*
X149130000Y-130930000D03*
X153590000Y-131000000D03*
D12*
X155420000Y-131000000D03*
D11*
X157250000Y-131000000D03*
%TD*%
%TO.C,PUMP_2*%
X145530000Y-79910000D03*
D12*
X147360000Y-79910000D03*
D11*
X149190000Y-79910000D03*
X153650000Y-79980000D03*
D12*
X155480000Y-79980000D03*
D11*
X157310000Y-79980000D03*
%TD*%
D13*
%TO.C,J8*%
X174900000Y-135330000D03*
X176900000Y-135330000D03*
X174900000Y-112230000D03*
X176900000Y-112230000D03*
%TD*%
D16*
%TO.C,J2*%
X172435000Y-60815000D03*
D17*
X169500000Y-63750000D03*
X175370000Y-63750000D03*
X175370000Y-57880000D03*
X169500000Y-57880000D03*
%TD*%
D11*
%TO.C,REARBOX/DIAGPORT/BRAKE_L_1*%
X145470000Y-135180000D03*
D12*
X147300000Y-135180000D03*
D11*
X149130000Y-135180000D03*
X153590000Y-135250000D03*
D12*
X155420000Y-135250000D03*
D11*
X157250000Y-135250000D03*
%TD*%
%TO.C,SDC/ASMS_1*%
X145505000Y-113910000D03*
D12*
X147335000Y-113910000D03*
D11*
X149165000Y-113910000D03*
X153625000Y-113980000D03*
D12*
X155455000Y-113980000D03*
D11*
X157285000Y-113980000D03*
%TD*%
D14*
%TO.C,REF\u002A\u002A*%
X122750000Y-58250000D03*
X123409010Y-56659010D03*
X123409010Y-59840990D03*
X125000000Y-56000000D03*
D15*
X125000000Y-58250000D03*
D14*
X125000000Y-60500000D03*
X126590990Y-56659010D03*
X126590990Y-59840990D03*
X127250000Y-58250000D03*
%TD*%
D11*
%TO.C,PC_3*%
X145530000Y-96910000D03*
D12*
X147360000Y-96910000D03*
D11*
X149190000Y-96910000D03*
X153650000Y-96980000D03*
D12*
X155480000Y-96980000D03*
D11*
X157310000Y-96980000D03*
%TD*%
D14*
%TO.C,REF\u002A\u002A*%
X123000000Y-138000000D03*
X123659010Y-136409010D03*
X123659010Y-139590990D03*
X125250000Y-135750000D03*
D15*
X125250000Y-138000000D03*
D14*
X125250000Y-140250000D03*
X126840990Y-136409010D03*
X126840990Y-139590990D03*
X127500000Y-138000000D03*
%TD*%
D11*
%TO.C,PC_1*%
X145530000Y-105410000D03*
D12*
X147360000Y-105410000D03*
D11*
X149190000Y-105410000D03*
X153650000Y-105480000D03*
D12*
X155480000Y-105480000D03*
D11*
X157310000Y-105480000D03*
%TD*%
%TO.C,FBOX_1*%
X145470000Y-122430000D03*
D12*
X147300000Y-122430000D03*
D11*
X149130000Y-122430000D03*
X153590000Y-122500000D03*
D12*
X155420000Y-122500000D03*
D11*
X157250000Y-122500000D03*
%TD*%
%TO.C,FAN_2*%
X145530000Y-75660000D03*
D12*
X147360000Y-75660000D03*
D11*
X149190000Y-75660000D03*
X153650000Y-75730000D03*
D12*
X155480000Y-75730000D03*
D11*
X157310000Y-75730000D03*
%TD*%
%TO.C,DASH_1*%
X145505000Y-109660000D03*
D12*
X147335000Y-109660000D03*
D11*
X149165000Y-109660000D03*
X153625000Y-109730000D03*
D12*
X155455000Y-109730000D03*
D11*
X157285000Y-109730000D03*
%TD*%
%TO.C,PC_2*%
X145530000Y-101160000D03*
D12*
X147360000Y-101160000D03*
D11*
X149190000Y-101160000D03*
X153650000Y-101230000D03*
D12*
X155480000Y-101230000D03*
D11*
X157310000Y-101230000D03*
%TD*%
G36*
X169700566Y-76924152D02*
G01*
X171900848Y-79124434D01*
X171901000Y-79124801D01*
X171901000Y-79175414D01*
X171900414Y-79176000D01*
X168399586Y-79176000D01*
X168399000Y-79175414D01*
X168399000Y-77750414D01*
X168394152Y-77745566D01*
X168394000Y-77745199D01*
X168394000Y-76924586D01*
X168394586Y-76924000D01*
X169700199Y-76924000D01*
X169700566Y-76924152D01*
G37*
G36*
X170465566Y-114689152D02*
G01*
X171900848Y-116124434D01*
X171901000Y-116124801D01*
X171901000Y-116150414D01*
X171900414Y-116151000D01*
X168399586Y-116151000D01*
X168399000Y-116150414D01*
X168399000Y-114689586D01*
X168399586Y-114689000D01*
X170465199Y-114689000D01*
X170465566Y-114689152D01*
G37*
G36*
X171901000Y-93124586D02*
G01*
X171901000Y-94375199D01*
X171900848Y-94375566D01*
X170150566Y-96125848D01*
X170150199Y-96126000D01*
X168224586Y-96126000D01*
X168224000Y-96125414D01*
X168224000Y-93124586D01*
X168224586Y-93124000D01*
X171900414Y-93124000D01*
X171901000Y-93124586D01*
G37*
M02*
